<?xml version="1.0" encoding="utf-8"?>
<!-- Generator: Adobe Illustrator 16.0.0, SVG Export Plug-In . SVG Version: 6.00 Build 0)  -->
<!DOCTYPE svg PUBLIC "-//W3C//DTD SVG 1.1//EN" "http://www.w3.org/Graphics/SVG/1.1/DTD/svg11.dtd">
<svg version="1.1" xmlns="http://www.w3.org/2000/svg" xmlns:xlink="http://www.w3.org/1999/xlink" x="0px" y="0px"
	 width="200px" height="60px" viewBox="0 0 200 60" style="enable-background:new 0 0 200 60;" xml:space="preserve">
<style type="text/css">.angular-1{fill:#E23237;}.angular-2{fill:#B52E31;}.angular-3{fill:#F2F2F2;}.angular-4{fill:#B2B2B2;}</style>
<path class="angular-4 color-40" d="M25.087,4.45L1.039,12.913l3.799,31.512l20.276,11.143l20.378-11.297l3.799-31.507L25.087,4.45z M43.328,42.815
	l-18.296,10.09L6.994,42.899l-3.258-28.23L25.03,7.13l21.861,7.455L43.328,42.815z"/>
	<path d="M50.813,42.334"/>
	<path d="M89.044,41.525"/>
	<path d="M93.292,34.385"/>
	<path d="M117.843,21.741"/>
	<path d="M132.46,42.334"/>
	<path d="M152.979,42.334"/>
	<path class="angular-2 color-100" d="M178.944,21.741"/>
	<path class="angular-2 color-100" d="M183.696,41.613"/>
	<path d="M51.487,41.66V21.068h2.664L66.75,37.656V21.068h2.521V41.66h-2.664L54.006,24.926v16.732L51.487,41.66L51.487,41.66z"/>
	<path d="M89.717,40.855c-1.661,0.631-3.451,0.949-5.371,0.949c-7.458,0-11.188-3.576-11.188-10.729c0-6.768,3.6-10.151,10.8-10.151
		c2.063,0,3.984,0.289,5.759,0.864v2.304c-1.776-0.672-3.6-1.008-5.472-1.008c-5.615,0-8.423,2.664-8.423,7.992
		c0,5.711,2.764,8.57,8.294,8.57c0.883,0,1.862-0.117,2.938-0.35v-6.996h2.663V40.855L89.717,40.855z"/>
	<path d="M93.967,33.709V21.067h2.662v12.644c0,3.955,1.968,5.935,5.903,5.935c3.937,0,5.906-1.979,5.906-5.935V21.067h2.662v12.644
		c0,5.396-2.854,8.095-8.566,8.095C96.823,41.806,93.967,39.107,93.967,33.709L93.967,33.709z"/>
	<path d="M118.517,21.067V39.5h10.771v2.158h-13.434V21.067H118.517z"/>
	<path d="M130.368,41.66l10.238-23.311l10.235,23.311h-2.951l-2.664-6.479h-6.811l0.733-2.157h5.183l-3.845-9.334l-7.358,17.973"/>
	<path d="M153.653,41.66V21.068h8.785c3.918,0,5.875,1.646,5.875,4.939c0,2.678-1.914,4.66-5.744,5.943l7.068,9.707h-3.514
		l-6.551-9.26v-1.74c3.936-0.626,5.906-2.137,5.906-4.537c0-1.899-1.099-2.851-3.285-2.851h-5.875v18.39H153.653L153.653,41.66z"/>
	<path class="angular-2 color-100" d="M179.618,21.067v14.659c0,3.957-2.33,5.932-6.986,5.932V39.5c2.881,0,4.322-1.26,4.322-3.772v-14.66H179.618z"
		/>
	<path class="angular-2 color-100" d="M184.368,40.939V38.49c2.16,0.771,4.494,1.154,7,1.154c3.541,0,5.312-1.295,5.312-3.889
		c0-2.205-1.305-3.312-3.916-3.312h-2.649c-4.312,0-6.467-1.871-6.467-5.616c0-3.937,2.76-5.905,8.282-5.905
		c2.397,0,4.631,0.291,6.695,0.866v2.448c-2.063-0.77-4.296-1.153-6.695-1.153c-3.746,0-5.616,1.248-5.616,3.744
		c0,2.207,1.266,3.312,3.801,3.312h2.649c4.388,0,6.58,1.873,6.58,5.616c0,4.031-2.655,6.05-7.978,6.05
		C188.862,41.805,186.528,41.514,184.368,40.939L184.368,40.939z"/>
<path class="angular-4 color-40" d="M25.032,8.792v10.752l5.062,10.412h-5.051l-0.011,4.35l6.983,0.006l3.265,7.562l5.307,0.101L25.032,8.792z"/>
	<polygon class="angular-3 color-20" points="25.049,8.831 25.032,8.792 25.032,8.792"/>
	<polygon class="angular-3 color-20" points="25.042,29.956 20.646,29.948 25.032,19.544 25.032,8.792 10.163,41.87 15.708,41.771 18.688,34.312
		25.032,34.306"/>
	<path class="angular-1 color-80" d="M25.042,29.956c0,0,1.145-1.088,1.364-3.4c0.219-2.312-1.375-7.012-1.375-7.012l-4.386,10.404L25.042,29.956z"
		/>
	<path class="angular-1 color-80" d="M15.708,41.771l-5.545,0.1L25.032,8.792l0.515-0.643l-0.515-1.02l-21.296,7.54l3.258,28.18l18.037,10.057
		c0,0,3.578-5.646,3.828-11.35s-3.828-7.25-3.828-7.25l-6.343,0.006L15.708,41.771z"/>
	<path class="angular-1 color-80" d="M25.032,8.792c0,0,0.484,0.029,0.515-0.643c0.031-0.672-0.515-1.02-0.515-1.02"/>
	<path class="angular-2 color-100" d="M25.032,34.354"/>
	<polygon class="angular-2 color-100" points="25.032,7.13 25.032,8.792 40.585,41.972 35.278,41.872 32.015,34.312 25.032,34.306 25.032,52.905
		43.353,42.765 46.893,14.585"/>
	<polygon class="angular-2 color-100" points="25.032,19.544 30.093,29.956 25.032,29.954"/>
</svg>
