<?xml version="1.0" encoding="utf-8"?>
<!-- Generator: Adobe Illustrator 16.0.0, SVG Export Plug-In . SVG Version: 6.00 Build 0)  -->
<!DOCTYPE svg PUBLIC "-//W3C//DTD SVG 1.1//EN" "http://www.w3.org/Graphics/SVG/1.1/DTD/svg11.dtd">
<svg version="1.1" xmlns="http://www.w3.org/2000/svg" xmlns:xlink="http://www.w3.org/1999/xlink" x="0px" y="0px"
	 width="200px" height="60px" viewBox="0 0 200 60" style="enable-background:new 0 0 200 60;" xml:space="preserve">
<style type="text/css">.ansible-1{fill:#1A1918;}</style>
	<path class="ansible-1 color-100" d="M66.742,41.104c-0.38,0-1.074-0.476-1.074-0.476L53.486,24.85v16.096h-2.779V21.126
		c0-0.789,0.664-1.421,1.422-1.421c0.441,0,0.821,0.127,1.104,0.506l12.15,15.75V19.925h2.777v19.789
		C68.161,40.533,67.499,41.104,66.742,41.104"/>
	<path class="ansible-1 color-100" d="M89.722,41.294c-2.777,0-5.681-0.567-8.396-1.58l0.662-2.271c2.491,0.788,5.208,1.357,7.733,1.357
		c3.504,0,5.334-1.231,5.334-2.966c0-1.582-1.422-2.368-6.312-4.641c-4.894-2.271-6.818-3.723-6.818-6.565
		c0-3.564,2.778-5.018,8.017-5.018c2.177,0,5.523,0.444,7.45,1.01l-0.443,2.335c-2.113-0.504-4.766-0.851-6.943-0.851
		c-3.692,0-5.207,0.694-5.207,2.43c0,1.704,1.104,2.43,6.28,4.797c5.459,2.494,6.849,3.754,6.849,6.344
		C97.927,39.432,94.327,41.294,89.722,41.294"/>
	<rect x="111.09" y="19.925" class="ansible-1 color-100" width="2.872" height="21.02"/>
	<path class="ansible-1 color-100" d="M138.422,40.945h-8.584c-0.821,0-1.452-0.631-1.452-1.423V21.346c0-0.756,0.631-1.421,1.452-1.421h7.101
		c4.355,0,6.943,2.115,6.943,5.43c0,1.799-1.073,3.471-2.714,4.45c2.429,0.725,4.072,2.715,4.072,5.116
		C145.24,38.265,142.433,40.945,138.422,40.945 M137,22.326h-5.743v6.722H137c2.306,0,3.979-1.452,3.979-3.472
		C140.979,23.587,139.525,22.326,137,22.326 M138.391,31.415h-7.134v7.132h7.134c2.43,0,3.914-1.514,3.914-3.626
		C142.305,32.93,140.757,31.415,138.391,31.415"/>
	<path class="ansible-1 color-100" d="M159.032,40.945c-0.789,0-1.419-0.662-1.419-1.423V19.925h2.87v18.463h11.426v2.557H159.032L159.032,40.945z"
		/>
	<path class="ansible-1 color-100" d="M191.487,41.294c-5.869,0-9.404-2.146-9.404-6.47c0-2.051,1.167-4.009,3.439-4.924
		c-1.829-1.136-2.775-2.745-2.775-4.513c0-3.913,3.062-5.776,8.807-5.776c1.924,0,4.639,0.222,6.911,0.728l-0.317,2.334
		c-2.395-0.379-4.639-0.6-6.816-0.6c-3.725,0-5.713,1.009-5.713,3.44c0,1.925,1.829,3.441,4.261,3.441h4.925
		c0.693,0,1.231,0.536,1.231,1.199c0,0.693-0.536,1.23-1.231,1.23h-5.301c-2.781,0-4.543,1.356-4.543,3.441
		c0,3.062,2.87,3.977,6.466,3.977c1.959,0,4.609-0.254,6.755-0.758l0.41,2.303C196.537,40.915,193.855,41.294,191.487,41.294"/>
	<polygon class="ansible-1 color-100" points="19.109,30.202 26.705,36.185 21.674,23.772 	"/>
	<path class="ansible-1 color-100" d="M21.349,10.255c-11.013,0-19.94,8.927-19.94,19.94c0,11.014,8.927,19.941,19.94,19.941
		c11.012,0,19.939-8.927,19.939-19.941C41.288,19.182,32.361,10.255,21.349,10.255z M29.324,41.007
		c-0.379,0-0.671-0.148-1.075-0.476L18.22,32.428l-3.362,8.421h-2.905l8.491-20.421c0.222-0.538,0.695-0.822,1.232-0.822
		c0.536,0,0.977,0.284,1.199,0.822l7.737,18.62c0.084,0.229,0.131,0.439,0.131,0.569C30.743,40.437,30.081,41.007,29.324,41.007z"/>
</svg>
