<?xml version="1.0" encoding="utf-8"?>
<!-- Generator: Adobe Illustrator 16.0.0, SVG Export Plug-In . SVG Version: 6.00 Build 0)  -->
<!DOCTYPE svg PUBLIC "-//W3C//DTD SVG 1.1//EN" "http://www.w3.org/Graphics/SVG/1.1/DTD/svg11.dtd">
<svg version="1.1" xmlns="http://www.w3.org/2000/svg" xmlns:xlink="http://www.w3.org/1999/xlink" x="0px" y="0px"
	 width="200px" height="60px" viewBox="0 0.008 200 60" style="enable-background:new 0 0.008 200 60;" xml:space="preserve">
<style type="text/css">.behat-1{fill:#1E0E02;}</style>
	<path class="behat-1 color-100" d="M40.899,8.296l-3.524,16.649h0.45c6,0,10.8-6.524,10.8-12.149c0-4.275-2.775-8.1-9.9-8.1
		c-8.774,0-18.749,5.85-18.749,18.224c0,3.825,0.975,4.425,1.05,5.1c-4.95,0-8.024-1.875-8.024-6.898
		c0-10.352,13.049-19.874,27.224-19.874c11.024,0,15.975,5.772,15.975,11.924c0,4.425-2.625,9.15-7.5,11.925
		c6.375,1.275,8.85,6.45,8.85,12.075c0,7.199-3.9,21.6-16.424,21.6c-3.225,0-7.425-0.977-7.425-5.551c0-1.199,0.3-2.625,0.975-4.35
		c1.875,1.949,3.3,2.699,5.025,2.699c5.475,0,7.425-7.801,7.425-13.498c0-5.25-1.65-9.526-7.125-9.526c-0.6,0-2.1,0.075-3.45,0.225
		l-6.153,28.725H19.601L29.8,9.796L40.899,8.296z"/>
	<path class="behat-1 color-100" d="M75.699,51.643c5.925,0,9.524-3.299,13.274-7.572h2.55c-4.275,6.898-10.649,13.873-20.624,13.873
		c-7.05,0-11.7-3.449-11.7-11.926c0-8.625,4.875-26.698,20.25-26.698c6.674,0,8.25,3.448,8.25,7.198c0,8.625-8.25,15.3-17.25,15.824
		c-0.075,1.051-0.15,2.102-0.15,3C70.299,50.444,72.1,51.643,75.699,51.643z M80.049,23.295c-3.825,0-7.5,8.026-9,15.45
		c5.775-0.375,10.875-6.148,10.875-12.375C81.924,24.495,81.475,23.295,80.049,23.295z"/>
	<path class="behat-1 color-100" d="M107.799,26.519c-2.926,0-5.25,4.575-5.7,6.602l-5.175,24.373h-10.8L97,6.496l11.1-1.5l-4.051,18.897
		c3.148-3.6,6.449-4.198,8.773-4.198c4.801,0,8.324,2.475,8.324,8.475c0,6.075-3.602,15.149-3.602,19.348c0,1.875,0.75,3.15,3,3.15
		c3.302,0,4.649-2.699,6.302-6.6h3.147c-4.199,12.299-9.975,13.875-13.949,13.875c-6.522,0-8.85-4.201-8.85-8.477
		c0-5.1,3.375-14.326,3.375-19.125C110.573,27.87,109.672,26.519,107.799,26.519z"/>
	<path class="behat-1 color-100" d="M162.848,19.995l-5.4,25.5c-0.225,0.975-0.3,1.725-0.3,2.398c0,2.102,0.976,3.227,3.075,3.227
		c2.925,0,4.949-3.301,6.074-7.051h3.148c-4.273,12.225-11.023,13.875-15.072,13.875c-4.199,0-6.898-2.4-7.351-6.9
		c-2.324,3.451-5.851,6.9-11.174,6.9c-5.101,0-9.976-3.15-9.976-12.074c0-10.125,6.226-26.25,19.272-26.25
		c4.274,0,6.073,1.648,6.073,3.825v0.523l0.826-3.975L162.848,19.995L162.848,19.995z M136.974,44.819
		c0,5.773,2.399,5.85,3.749,5.85c2.176,0,5.324-2.248,6.226-6.6l3.601-16.949c0-0.9-0.676-2.852-3.074-2.852
		C141.098,24.269,136.974,37.768,136.974,44.819z"/>
	<path class="behat-1 color-100" d="M177.098,45.494c-0.227,0.898-0.375,1.801-0.375,2.625c0,1.574,0.6,2.699,2.625,2.699
		c0.523,0,1.35,0,1.949-0.227c-2.102,6.449-5.399,7.352-7.949,7.352c-5.25,0-7.5-3.676-7.5-8.477c0-1.273,0.15-2.625,0.449-3.975
		l4.801-22.499h-2.475l0.6-3h2.475l2.25-10.352l11.1-1.5c0,0-1.125,5.102-2.549,11.852h4.5l-0.601,3h-4.5L177.098,45.494z"/>
</svg>
