<?xml version="1.0" encoding="utf-8"?>
<!-- Generator: Adobe Illustrator 16.0.0, SVG Export Plug-In . SVG Version: 6.00 Build 0)  -->
<!DOCTYPE svg PUBLIC "-//W3C//DTD SVG 1.1//EN" "http://www.w3.org/Graphics/SVG/1.1/DTD/svg11.dtd">
<svg version="1.1" xmlns="http://www.w3.org/2000/svg" xmlns:xlink="http://www.w3.org/1999/xlink" x="0px" y="0px"
	 width="200px" height="60px" viewBox="0 24 200 60" style="enable-background:new 0 24 200 60;" xml:space="preserve">
<style type="text/css">.git-1{fill:#2F2707;} .git-2{fill:#DE4C36;}</style>
	<path class="git-1 color-100" d="M113.91,44.477c-3.131,0-5.464,1.538-5.464,5.238c0,2.789,1.538,4.725,5.295,4.725
		c3.186,0,5.35-1.877,5.35-4.84C119.09,46.243,117.154,44.477,113.91,44.477L113.91,44.477L113.91,44.477z M107.648,70.609
		c-0.74,0.906-1.479,1.875-1.479,3.016c0,2.275,2.902,2.959,6.888,2.959c3.303,0,7.8-0.23,7.8-3.301
		c0-1.824-2.164-1.938-4.897-2.107L107.648,70.609L107.648,70.609z M124.498,44.649c1.022,1.309,2.107,3.131,2.107,5.75
		c0,6.318-4.953,10.017-12.125,10.017c-1.822,0-3.474-0.227-4.496-0.51l-1.881,3.016l5.579,0.342
		c9.849,0.627,15.651,0.912,15.651,8.479c0,6.549-5.746,10.246-15.651,10.246c-10.304,0-14.23-2.617-14.23-7.115
		c0-2.561,1.138-3.924,3.13-5.805c-1.879-0.795-2.504-2.219-2.504-3.756c0-1.254,0.625-2.391,1.652-3.473
		c1.023-1.08,2.161-2.164,3.528-3.414c-2.789-1.367-4.896-4.328-4.896-8.541c0-6.545,4.326-11.041,13.035-11.041
		c2.447,0,3.929,0.226,5.239,0.569h11.099v4.836L124.498,44.649L124.498,44.649z"/>
	<path class="git-1 color-100" d="M139.751,34.305c-3.246,0-5.123-1.88-5.123-5.125c0-3.242,1.877-5.008,5.123-5.008
		c3.301,0,5.18,1.766,5.18,5.008C144.931,32.425,143.052,34.305,139.751,34.305L139.751,34.305L139.751,34.305z M132.405,68.516
		V64.02l2.904-0.398c0.797-0.115,0.91-0.285,0.91-1.139V45.745c0-0.625-0.17-1.025-0.74-1.194l-3.074-1.082l0.627-4.609h11.783
		v23.623c0,0.91,0.057,1.023,0.912,1.139l2.902,0.398v4.496H132.405L132.405,68.516z"/>
	<path class="git-1 color-100" d="M171.142,66.307c-2.449,1.193-6.035,2.275-9.281,2.275c-6.773,0-9.334-2.729-9.334-9.164V44.504
		c0-0.34,0-0.569-0.457-0.569h-3.984v-5.066c5.012-0.57,7.002-3.075,7.627-9.28h5.408v8.086c0,0.397,0,0.569,0.457,0.569h8.025
		v5.691h-8.482v13.604c0,3.359,0.799,4.668,3.871,4.668c1.596,0,3.246-0.398,4.611-0.91L171.142,66.307"/>
	<path class="git-2 color-80" d="M86.798,51.369L60.77,25.342c-1.498-1.499-3.929-1.499-5.429,0l-5.404,5.405l6.856,6.856
		c1.594-0.539,3.42-0.178,4.69,1.092c1.277,1.278,1.635,3.122,1.084,4.72l6.606,6.607c1.599-0.55,3.443-0.194,4.719,1.084
		c1.785,1.784,1.785,4.674,0,6.459c-1.785,1.785-4.676,1.785-6.461,0c-1.342-1.344-1.673-3.314-0.994-4.968l-6.162-6.161
		l-0.001,16.215c0.436,0.217,0.846,0.504,1.208,0.863c1.785,1.783,1.785,4.674,0,6.463c-1.785,1.783-4.677,1.783-6.459,0
		c-1.784-1.789-1.784-4.68,0-6.463c0.441-0.439,0.951-0.771,1.496-0.996V46.153c-0.545-0.222-1.054-0.554-1.496-0.998
		c-1.352-1.349-1.677-3.333-0.984-4.993l-6.758-6.759L29.435,51.248c-1.5,1.501-1.5,3.932,0,5.432l26.027,26.025
		c1.499,1.498,3.929,1.498,5.43,0l25.906-25.904C88.297,55.301,88.297,52.867,86.798,51.369"/>
</svg>
