<?xml version="1.0" encoding="utf-8"?>
<!-- Generator: Adobe Illustrator 16.0.0, SVG Export Plug-In . SVG Version: 6.00 Build 0)  -->
<!DOCTYPE svg PUBLIC "-//W3C//DTD SVG 1.1//EN" "http://www.w3.org/Graphics/SVG/1.1/DTD/svg11.dtd">
<svg version="1.1" id="Calque_1" xmlns="http://www.w3.org/2000/svg" xmlns:xlink="http://www.w3.org/1999/xlink" x="0px" y="0px"
	 width="200px" height="60px" viewBox="0 0 200 60" style="enable-background:new 0 0 200 60;" xml:space="preserve">
<style type="text/css">.gulp-1{fill:#D34A47;}</style>
<path class="gulp-1 color-100" d="M59.435,49.857l0.508-8.475l1.404-2.395c0,0-3.193,1.307-8.543,1.307c-5.349,0-8.494-1.285-8.494-1.285
	l1.572,2.619l0.556,8.23c0,0.879,2.91,1.594,6.498,1.594C56.526,51.451,59.435,50.736,59.435,49.857"/>
<path class="gulp-1 color-100" d="M57.831,10.301l1.064-4.217l7.122-3.987l-1.071-1.742l-7.954,4.809l-1.237,5.038
	c-0.898-0.029-1.834-0.047-2.799-0.047c-6.587,0-11.928,0.751-11.928,1.676c0,0.927,5.342,1.677,11.928,1.677
	c6.588,0,11.929-0.75,11.929-1.677C64.885,11.15,61.986,10.563,57.831,10.301z M57.208,12.664c0,0-0.23,0.051-0.91,0.054
	c-0.68,0.002-1.162-0.004-1.354-0.18c-0.053-0.047-0.081-0.142-0.081-0.205c0.002-0.119,0.087-0.189,0.196-0.233l0.104,0.161
	c-0.047,0.015-0.071,0.034-0.071,0.053c0,0.09,0.696,0.154,1.228,0.147c0.533-0.007,1.176-0.05,1.176-0.139
	c0-0.027-0.048-0.055-0.133-0.074l0.103-0.161c0.138,0.042,0.257,0.125,0.257,0.269C57.721,12.599,57.41,12.635,57.208,12.664z"/>
<path class="gulp-1 color-100" d="M66.003,2.106c0.193-0.118,0.116-0.602-0.176-1.086c-0.292-0.483-0.686-0.78-0.882-0.664
	c-0.193,0.118-0.115,0.606,0.176,1.088C65.414,1.927,65.809,2.223,66.003,2.106"/>
<path class="gulp-1 color-100" d="M41.112,12.78c1.915,1.623,20.747,1.918,23.544-0.028l-2.804,25.211c-4.398,2.533-14.716,2.182-18.131-0.023
	L41.112,12.78z"/>
<path class="gulp-1 color-100" d="M93.248,33.467c-0.063,0.094-0.176,0.387-0.341,0.875c-0.166,0.494-0.364,1.109-0.599,1.85
	c-0.235,0.738-0.49,1.566-0.765,2.484c-0.274,0.92-0.555,1.854-0.843,2.805c-0.289,0.955-0.567,1.895-0.834,2.811
	c-0.266,0.914-0.505,1.742-0.715,2.482c-0.21,0.744-0.387,1.365-0.528,1.865c-0.139,0.498-0.229,0.795-0.257,0.889
	c-0.078,0.297-0.204,0.625-0.375,0.986c-0.174,0.361-0.376,0.707-0.61,1.029c-0.233,0.326-0.49,0.592-0.772,0.807
	c-0.283,0.211-0.571,0.316-0.87,0.316c-0.499,0-0.863-0.162-1.089-0.496c-0.228-0.334-0.341-0.947-0.341-1.836
	c0-0.127,0-0.256,0-0.387c0-0.133,0.007-0.27,0.022-0.418c0.017-0.297,0.133-0.852,0.352-1.668c0.22-0.814,0.48-1.736,0.786-2.764
	c0.305-1.027,0.634-2.094,0.985-3.195c0.352-1.1,0.669-2.09,0.95-2.959c-0.83,0.926-1.729,1.852-2.697,2.764
	c-0.969,0.92-1.963,1.742-2.979,2.475c-1.017,0.734-2.041,1.33-3.072,1.791c-1.032,0.463-2.026,0.695-2.979,0.695
	c-1.094,0-2.036-0.244-2.827-0.725c-0.789-0.48-1.44-1.107-1.957-1.885c-0.516-0.779-0.899-1.658-1.149-2.643
	c-0.249-0.98-0.375-1.963-0.375-2.941c0-0.129,0-0.254,0-0.367c0-0.107,0.007-0.219,0.024-0.33c0.094-1.779,0.348-3.602,0.762-5.471
	c0.415-1.874,0.958-3.737,1.631-5.585c0.673-1.853,1.45-3.664,2.334-5.432c0.882-1.768,1.845-3.44,2.885-5.017
	c1.04-1.574,2.146-3.021,3.319-4.347c1.172-1.325,2.376-2.463,3.61-3.417c1.237-0.953,2.483-1.699,3.743-2.237
	c1.256-0.537,2.505-0.806,3.74-0.806c1.424,0,2.799,0.389,4.128,1.166c1.33,0.779,2.572,2.039,3.729,3.779
	c0.266,0.39,0.436,0.782,0.505,1.18s0.105,0.773,0.105,1.125c0,0.834-0.199,1.49-0.599,1.973c-0.399,0.481-0.872,0.722-1.419,0.722
	c-0.5,0-0.965-0.265-1.396-0.792c-0.431-0.529-0.912-1.282-1.443-2.264c-0.499-0.889-1.052-1.533-1.652-1.931
	c-0.603-0.397-1.255-0.597-1.958-0.597c-1.094,0-2.265,0.453-3.507,1.362c-1.243,0.907-2.476,2.109-3.694,3.598
	c-1.219,1.492-2.391,3.196-3.509,5.112c-1.116,1.917-2.106,3.878-2.966,5.889c-0.86,2.012-1.545,3.993-2.052,5.945
	c-0.509,1.953-0.763,3.709-0.763,5.266c0,0.521,0.036,1.051,0.104,1.596c0.071,0.549,0.204,1.045,0.399,1.486
	c0.196,0.445,0.462,0.812,0.798,1.1c0.337,0.285,0.763,0.432,1.279,0.432c0.577,0,1.233-0.197,1.97-0.584
	c0.734-0.391,1.496-0.9,2.287-1.525c0.789-0.631,1.582-1.346,2.381-2.145c0.798-0.795,1.54-1.602,2.228-2.414
	c0.688-0.814,1.299-1.598,1.831-2.348c0.531-0.75,0.93-1.4,1.195-1.959l2.182-6.529c0.266-0.702,0.614-1.201,1.045-1.498
	c0.429-0.297,0.871-0.445,1.326-0.445c0.218,0,0.437,0.036,0.655,0.11c0.219,0.073,0.416,0.19,0.587,0.347
	c0.171,0.159,0.309,0.361,0.409,0.612c0.103,0.248,0.152,0.541,0.152,0.873c0,0.89-0.077,1.724-0.234,2.5
	c-0.156,0.779-0.354,1.537-0.599,2.278c-0.241,0.74-0.509,1.486-0.809,2.235C93.817,31.873,93.527,32.654,93.248,33.467z"/>
<path class="gulp-1 color-100" d="M122.826,38.916c-0.69,0.926-1.489,1.828-2.405,2.707c-0.913,0.879-1.857,1.662-2.825,2.348
	c-0.971,0.684-1.925,1.238-2.861,1.652c-0.939,0.416-1.784,0.627-2.534,0.627c-0.752,0-1.36-0.252-1.83-0.75
	c-0.469-0.5-0.703-1.354-0.703-2.557c0-0.855,0.124-1.844,0.374-2.975c-0.407,0.723-0.914,1.457-1.523,2.195
	c-0.61,0.742-1.307,1.418-2.09,2.029c-0.781,0.607-1.655,1.105-2.626,1.484c-0.969,0.383-2.025,0.572-3.167,0.572
	c-0.516,0-1.012-0.064-1.489-0.197c-0.477-0.129-0.895-0.352-1.254-0.668c-0.36-0.312-0.65-0.734-0.868-1.264
	c-0.22-0.529-0.328-1.186-0.328-1.982c0-0.023,0.031-0.303,0.094-0.85c0.061-0.547,0.261-1.408,0.599-2.584
	c0.335-1.176,0.855-2.701,1.559-4.57c0.703-1.871,1.696-4.14,2.979-6.804c0.329-0.706,0.709-1.208,1.139-1.514
	c0.43-0.306,0.895-0.462,1.396-0.462c0.219,0,0.445,0.036,0.679,0.099c0.235,0.063,0.454,0.166,0.658,0.303
	c0.202,0.139,0.365,0.318,0.492,0.53c0.126,0.212,0.187,0.458,0.187,0.737c0,0.185-0.021,0.361-0.069,0.526
	c-0.08,0.315-0.247,0.728-0.505,1.235c-0.26,0.511-0.56,1.095-0.903,1.75c-0.347,0.658-0.708,1.367-1.091,2.127
	c-0.384,0.758-0.738,1.545-1.067,2.359c-0.328,0.818-0.611,1.645-0.845,2.488c-0.235,0.844-0.368,1.66-0.4,2.457
	c0,0.332,0.078,0.639,0.236,0.916c0.155,0.279,0.412,0.416,0.773,0.416c1.015,0,1.983-0.334,2.907-1
	c0.923-0.664,1.774-1.496,2.557-2.484c0.782-0.994,1.488-2.057,2.123-3.195c0.632-1.139,1.161-2.18,1.583-3.125
	c0.297-0.629,0.56-1.307,0.785-2.03c0.228-0.722,0.473-1.389,0.739-2c0.266-0.61,0.57-1.119,0.915-1.528
	c0.343-0.405,0.773-0.61,1.288-0.61c0.564,0,1.01,0.213,1.338,0.638c0.328,0.425,0.493,0.934,0.493,1.528
	c0,0.335-0.106,0.792-0.316,1.376c-0.212,0.582-0.478,1.25-0.798,2.001c-0.321,0.748-0.668,1.551-1.044,2.4
	c-0.376,0.854-0.724,1.719-1.044,2.596c-0.32,0.879-0.587,1.744-0.797,2.584c-0.212,0.846-0.316,1.625-0.316,2.35
	c0,0.666,0.343,0.998,1.031,0.998c0.484,0,1.086-0.166,1.807-0.5c0.718-0.334,1.472-0.801,2.262-1.404
	c0.79-0.598,1.581-1.307,2.369-2.123c0.79-0.816,1.489-1.695,2.099-2.641L122.826,38.916z"/>
<path class="gulp-1 color-100" d="M123.551,37.523c-0.17,0.424-0.34,0.922-0.503,1.488c-0.165,0.564-0.246,1.066-0.246,1.514
	c0,0.277,0.046,0.5,0.139,0.67c0.094,0.164,0.274,0.246,0.54,0.246c0.33,0,0.739-0.115,1.23-0.348s1.023-0.537,1.596-0.916
	c0.571-0.379,1.167-0.814,1.783-1.303c0.616-0.494,1.231-1.002,1.842-1.533c0.61-0.527,1.193-1.053,1.746-1.58
	c0.558-0.529,1.051-1.016,1.489-1.461c0.124-0.129,0.274-0.223,0.446-0.277s0.32-0.084,0.444-0.084c0.312,0,0.572,0.129,0.777,0.391
	c0.2,0.26,0.301,0.602,0.301,1.027c0,0.391-0.111,0.826-0.328,1.307c-0.218,0.482-0.601,0.953-1.149,1.416
	c-1.001,1.094-2.009,2.133-3.026,3.115c-1.016,0.98-2.028,1.846-3.036,2.596c-1.008,0.752-2.01,1.348-3.002,1.793
	c-0.993,0.443-1.959,0.666-2.898,0.666c-0.641,0-1.178-0.104-1.606-0.305c-0.43-0.205-0.773-0.484-1.032-0.836
	c-0.257-0.35-0.441-0.766-0.552-1.25c-0.11-0.48-0.162-0.988-0.162-1.525c0-0.908,0.113-1.836,0.34-2.791
	c0.227-0.953,0.494-1.832,0.809-2.627c0.548-1.447,1.103-2.881,1.665-4.309c0.562-1.424,1.079-2.727,1.55-3.915l7.105-17.921
	c0.283-0.721,0.66-1.23,1.138-1.528c0.479-0.296,0.959-0.444,1.44-0.444c0.487,0,0.928,0.159,1.326,0.473
	c0.399,0.315,0.599,0.825,0.599,1.528c0,0.334-0.064,0.686-0.199,1.056c-0.133,0.37-0.302,0.768-0.503,1.195
	c-0.392,0.871-0.855,1.934-1.396,3.195c-0.541,1.259-1.119,2.629-1.736,4.111c-0.618,1.483-1.252,3.024-1.9,4.622
	c-0.65,1.604-1.284,3.165-1.9,4.684c-0.617,1.52-1.197,2.959-1.736,4.321C124.408,35.344,123.942,36.525,123.551,37.523z"/>
<path class="gulp-1 color-100" d="M156.79,32.498c0.218-0.15,0.424-0.268,0.608-0.363c0.189-0.092,0.37-0.137,0.539-0.137
	c0.348,0,0.604,0.15,0.776,0.455c0.17,0.305,0.257,0.68,0.257,1.127c0,0.482-0.104,0.973-0.315,1.473
	c-0.21,0.5-0.529,0.912-0.949,1.25c-1.679,1.48-3.17,2.83-4.48,4.055c-1.316,1.223-2.557,2.277-3.719,3.156
	c-1.167,0.879-2.304,1.559-3.411,2.041c-1.114,0.48-2.3,0.721-3.57,0.721c-1.186,0-2.105-0.258-2.754-0.775
	c-0.646-0.521-0.976-1.232-0.976-2.141c0-0.074,0-0.143,0-0.211c0-0.064,0.009-0.141,0.025-0.234
	c0.059-0.557,0.303-1.197,0.725-1.918c0.425-0.721,0.932-1.471,1.528-2.25c0.59-0.775,1.224-1.564,1.895-2.359
	c0.674-0.797,1.298-1.555,1.87-2.268c0.566-0.711,1.041-1.365,1.417-1.959c0.375-0.588,0.562-1.072,0.562-1.443
	c0-0.222-0.08-0.396-0.234-0.527c-0.156-0.13-0.414-0.195-0.775-0.195c-0.625,0-1.268,0.162-1.934,0.489
	c-0.664,0.319-1.321,0.76-1.97,1.303c-0.651,0.545-1.283,1.172-1.901,1.875s-1.195,1.436-1.735,2.195
	c-0.539,0.762-1.032,1.523-1.478,2.291c-0.444,0.77-0.825,1.479-1.139,2.127c-0.092,0.203-0.227,0.488-0.396,0.859
	c-0.169,0.373-0.36,0.791-0.563,1.254s-0.418,0.939-0.645,1.428c-0.229,0.49-0.434,0.957-0.621,1.389
	c-0.189,0.438-0.354,0.826-0.505,1.168c-0.148,0.346-0.255,0.58-0.317,0.709c-0.078,0.168-0.207,0.48-0.386,0.943
	c-0.182,0.463-0.388,1.006-0.623,1.629c-0.234,0.617-0.48,1.275-0.739,1.959c-0.256,0.682-0.499,1.33-0.726,1.943
	c-0.229,0.611-0.427,1.15-0.599,1.611c-0.172,0.465-0.282,0.779-0.329,0.943c-0.156,0.482-0.34,0.934-0.549,1.365
	c-0.213,0.424-0.455,0.797-0.729,1.123c-0.273,0.322-0.586,0.586-0.938,0.777c-0.354,0.195-0.747,0.293-1.185,0.293
	c-0.562,0-1.027-0.135-1.396-0.402c-0.366-0.268-0.551-0.783-0.551-1.545c0-0.369,0.047-0.75,0.14-1.137
	c0.094-0.391,0.212-0.773,0.351-1.154c0.142-0.379,0.287-0.752,0.435-1.111c0.149-0.361,0.286-0.709,0.41-1.041
	c0.847-1.854,1.703-3.709,2.58-5.572s1.718-3.701,2.521-5.527c0.807-1.826,1.555-3.617,2.241-5.379
	c0.687-1.756,1.259-3.443,1.711-5.055c0.123-0.332,0.299-0.805,0.519-1.416c0.217-0.61,0.468-1.212,0.751-1.804
	c0.281-0.592,0.597-1.108,0.95-1.545c0.35-0.437,0.729-0.65,1.137-0.65c0.625,0,1.078,0.142,1.36,0.429
	c0.281,0.29,0.421,0.708,0.421,1.26c0,0.114-0.016,0.292-0.046,0.53c-0.033,0.241-0.071,0.495-0.115,0.768
	c-0.048,0.268-0.099,0.522-0.155,0.763c-0.054,0.242-0.104,0.417-0.149,0.526c0.574-0.627,1.2-1.253,1.872-1.875
	c0.674-0.621,1.37-1.18,2.09-1.679c0.72-0.5,1.454-0.91,2.206-1.226c0.748-0.313,1.5-0.47,2.251-0.47
	c0.516,0,1.027,0.074,1.535,0.223c0.511,0.148,0.962,0.365,1.363,0.651c0.397,0.29,0.722,0.65,0.972,1.084
	c0.249,0.437,0.372,0.939,0.372,1.513c0,0.76-0.188,1.571-0.574,2.434c-0.383,0.859-0.858,1.727-1.438,2.596
	c-0.58,0.871-1.206,1.719-1.879,2.541c-0.675,0.826-1.302,1.574-1.888,2.252c-0.585,0.676-1.08,1.25-1.48,1.723
	c-0.396,0.477-0.605,0.789-0.621,0.957c0,0.223,0.074,0.402,0.214,0.543c0.142,0.137,0.374,0.209,0.705,0.209
	c0.264,0,0.658-0.148,1.174-0.445c0.514-0.297,1.234-0.811,2.166-1.541c0.93-0.729,2.109-1.713,3.542-2.949
	C152.933,35.92,154.691,34.365,156.79,32.498z"/>
</svg>
