<?xml version="1.0" encoding="utf-8"?>
<!-- Generator: Adobe Illustrator 16.0.0, SVG Export Plug-In . SVG Version: 6.00 Build 0)  -->
<!DOCTYPE svg PUBLIC "-//W3C//DTD SVG 1.1//EN" "http://www.w3.org/Graphics/SVG/1.1/DTD/svg11.dtd">
<svg version="1.1" id="Calque_1" xmlns="http://www.w3.org/2000/svg" xmlns:xlink="http://www.w3.org/1999/xlink" x="0px" y="0px"
	 width="200px" height="60px" viewBox="0 0 200 60" style="enable-background:new 0 0 200 60;" xml:space="preserve">
<style type="text/css">.redis-1{fill:#912626;} .redis-2{fill:#C6302B;} .redis-3{fill:#FFFFFF;} .redis-4{fill:#621B1C;}</style>
<path class="redis-3 color-0" d="M45.693,8.832l-6.041,0.627l-1.353,3.254l-2.185-3.631l-6.976-0.627l5.205-1.877l-1.562-2.882l4.874,1.906
	l4.595-1.504l-1.242,2.979L45.693,8.832"/>
<path class="redis-3 color-0" d="M37.939,24.62l-11.275-4.678l16.157-2.479L37.939,24.62"/>
<path class="redis-3 color-0" d="M22.308,10.642c4.769,0,8.635,1.498,8.635,3.348c0,1.849-3.866,3.347-8.635,3.347s-8.636-1.499-8.636-3.347
	S17.539,10.642,22.308,10.642"/>
<path class="redis-4 color-100" d="M52.833,9.722l9.562,3.779l-9.554,3.775L52.833,9.722"/>
<path class="redis-1 color-80" d="M42.255,13.905l10.578-4.184l0.009,7.553l-1.037,0.406L42.255,13.905"/>
<path class="color-100" d="M98.294,16.54c0,1.738-1.428,3.289-3.29,3.289c-1.428,0-2.668,0.373-3.724,1.179c-1.179,0.745-2.11,1.8-2.854,2.979
	c-1.489,1.986-2.233,4.344-2.543,5.213v11.791c0,1.8-1.553,3.289-3.414,3.289c-1.799,0-3.288-1.489-3.288-3.289V16.54
	c0-1.8,1.489-3.227,3.288-3.227c1.861,0,3.414,1.427,3.414,3.227v0.436c0.371-0.436,0.869-0.932,1.303-1.242
	c2.048-1.364,4.716-2.481,7.818-2.42C96.866,13.313,98.294,14.74,98.294,16.54z"/>
<path class="color-100" d="M97.856,28.765C97.919,20.325,104.498,13.25,113,13.25c8.066,0,14.459,6.021,14.955,14.397c0,0.062,0,0.186,0,0.31
	c0,0.125,0,0.435-0.062,0.56c-0.186,1.488-1.488,2.481-3.227,2.481h-19.734c0.312,1.428,0.994,3.041,2.111,4.096
	c1.303,1.489,3.785,2.606,5.957,2.793c2.232,0.187,4.9-0.372,6.453-1.552c1.305-1.365,3.848-1.18,4.654-0.188
	c0.807,0.869,1.428,2.73,0,4.035c-3.041,2.793-6.703,4.096-11.107,4.096C104.498,44.217,97.919,37.205,97.856,28.765z
	 M104.623,25.724h17.561c-0.619-2.481-3.785-6.144-9.184-6.578C107.725,19.394,105.119,23.181,104.623,25.724z"/>
<path class="color-100" d="M160.781,40.928c0,1.8-1.49,3.353-3.352,3.353c-1.676,0-2.98-1.18-3.289-2.67c-2.359,1.615-5.338,2.67-8.439,2.67
	c-8.379,0-15.08-7.074-15.08-15.452c0-8.502,6.701-15.577,15.08-15.577c3.039,0,6.02,0.993,8.314,2.605V4.19
	c0-1.799,1.49-3.352,3.414-3.352c1.861,0,3.352,1.553,3.352,3.352v24.574c0,0,0,0,0,0.062V40.928z M145.701,20.015
	c-2.234,0-4.281,0.932-5.834,2.545c-1.551,1.551-2.482,3.785-2.482,6.268c0,2.357,0.932,4.592,2.482,6.145
	c1.553,1.612,3.6,2.543,5.834,2.543c2.297,0,4.281-0.931,5.832-2.543c1.553-1.553,2.482-3.785,2.482-6.145
	c0-2.482-0.93-4.717-2.482-6.268C149.982,20.946,147.998,20.015,145.701,20.015z"/>
<path class="color-100" d="M172.131,5.493c0,1.861-1.426,3.414-3.352,3.414c-1.859,0-3.352-1.553-3.352-3.414V4.19c0-1.861,1.49-3.352,3.352-3.352
	c1.926,0,3.352,1.49,3.352,3.352V5.493z M172.131,16.726v24.202c0,1.862-1.426,3.353-3.352,3.353c-1.859,0-3.352-1.489-3.352-3.353
	V16.726c0-1.985,1.49-3.412,3.352-3.412C170.705,13.313,172.131,14.74,172.131,16.726z"/>
<path class="color-100" d="M175.545,35.405c1.117-1.489,3.289-1.676,4.652-0.497c1.613,1.364,4.406,2.793,6.826,2.729c1.676,0,3.229-0.558,4.221-1.179
	c0.869-0.744,1.117-1.365,1.117-1.86c0-0.312-0.062-0.436-0.188-0.621c-0.062-0.187-0.311-0.436-0.807-0.744
	c-0.867-0.621-2.73-1.305-4.965-1.738h-0.062c-1.924-0.372-3.785-0.868-5.398-1.613c-1.676-0.807-3.166-1.924-4.281-3.599
	c-0.684-1.117-1.057-2.482-1.057-3.91c0-2.854,1.615-5.274,3.662-6.826c2.172-1.489,4.779-2.296,7.633-2.296
	c4.283,0,7.322,2.048,9.311,3.413c1.488,0.993,1.924,3.041,0.992,4.592c-0.992,1.489-3.041,1.925-4.594,0.869
	c-1.984-1.304-3.723-2.296-5.709-2.296c-1.551,0-2.916,0.497-3.723,1.117c-0.807,0.559-0.994,1.117-0.994,1.427
	c0,0.248,0,0.31,0.125,0.497c0.062,0.124,0.248,0.372,0.682,0.621c0.809,0.558,2.422,1.117,4.531,1.488l0.062,0.062h0.061
	c2.049,0.373,3.973,0.932,5.771,1.8c1.676,0.745,3.352,1.925,4.406,3.662c0.744,1.241,1.18,2.668,1.18,4.097
	c0,3.039-1.676,5.584-3.91,7.197c-2.234,1.553-5.025,2.482-8.066,2.482c-4.842-0.062-8.564-2.297-11.047-4.282
	C174.613,38.88,174.426,36.771,175.545,35.405z"/>
<path class="redis-2 color-70" d="M69.442,11.345c-3.654-1.339-22.964-9.023-26.661-10.379c-3.697-1.355-5.205-1.299-9.55,0.26
	c-4.346,1.56-24.904,9.625-28.562,11.058s-3.58,2.659,0.144,4.438c3.723,1.779,24.395,10.129,27.662,11.691
	c3.267,1.562,5.564,1.583,9.7-0.573c4.136-2.155,23.562-10.144,27.311-12.098C73.236,13.787,73.098,12.685,69.442,11.345z
	 M32.781,3.696l4.874,1.906l4.595-1.504l-1.242,2.979l4.685,1.755l-6.041,0.627l-1.353,3.254l-2.185-3.631l-6.976-0.627
	l5.205-1.877L32.781,3.696z M13.671,13.989c0-1.848,3.867-3.348,8.636-3.348s8.635,1.498,8.635,3.348
	c0,1.849-3.866,3.347-8.635,3.347S13.671,15.837,13.671,13.989z M37.939,24.62l-11.275-4.678l16.157-2.479L37.939,24.62z
	 M51.806,17.681l-9.55-3.775l10.578-4.184l9.562,3.779L51.806,17.681z"/>
<path class="redis-1 color-80" d="M1.978,37.74c0,0-0.005,0.001-0.005,0.001v0.037C1.972,37.766,1.977,37.753,1.978,37.74z"/>
<path class="redis-1 color-80" d="M72.24,36.287c0.003,0.682-0.897,1.44-2.752,2.407c-3.749,1.953-23.175,9.941-27.311,12.098
	c-4.136,2.158-6.433,2.135-9.7,0.572C29.21,49.804,8.538,41.452,4.814,39.673c-1.86-0.889-2.81-1.639-2.84-2.346v7.058
	c0,0.711,0.979,1.461,2.84,2.35c3.724,1.781,24.397,10.131,27.664,11.693c3.267,1.563,5.565,1.583,9.7-0.574
	c4.135-2.156,23.562-10.143,27.312-12.098c1.909-0.994,2.752-1.766,2.752-2.466c0-0.658,0.002-7.002,0.002-7.002
	C72.243,36.288,72.241,36.287,72.24,36.287z"/>
<path class="redis-2 color-70" d="M69.443,34.296c-0.003-0.001-0.007-0.003-0.01-0.004c-3.871,1.999-23.139,9.923-27.256,12.069
	c-4.135,2.158-6.433,2.136-9.7,0.574S8.537,37.023,4.813,35.243c-0.025-0.012-0.046-0.023-0.071-0.035
	c-0.022,0.009-0.051,0.02-0.072,0.028c-3.658,1.434-3.58,2.658,0.144,4.438s24.396,10.13,27.663,11.691
	c3.267,1.562,5.564,1.585,9.7-0.572c4.136-2.157,23.562-10.145,27.311-12.098C73.238,36.74,73.099,35.637,69.443,34.296z"/>
<path class="redis-1 color-80" d="M72.239,24.783c0.004,0.682-0.896,1.44-2.752,2.407c-3.748,1.953-23.174,9.941-27.311,12.098
	c-4.136,2.158-6.434,2.135-9.699,0.572C29.209,38.3,8.538,29.948,4.813,28.169c-1.86-0.889-2.81-1.639-2.84-2.346v7.058
	c0,0.711,0.979,1.461,2.84,2.35c3.724,1.781,24.397,10.131,27.664,11.693c3.268,1.563,5.565,1.583,9.7-0.574
	c4.136-2.156,23.562-10.143,27.312-12.098c1.91-0.994,2.752-1.766,2.752-2.466c0-0.658,0.002-7.002,0.002-7.002
	S72.241,24.783,72.239,24.783z"/>
<path class="redis-2 color-70" d="M69.442,22.792c-0.002-0.001-0.006-0.003-0.01-0.004c-3.871,1.999-23.139,9.923-27.256,12.069
	c-4.135,2.158-6.433,2.136-9.699,0.574C29.209,33.87,8.537,25.52,4.812,23.739c-0.025-0.012-0.046-0.023-0.071-0.035
	c-0.022,0.009-0.051,0.02-0.072,0.028c-3.658,1.434-3.58,2.658,0.144,4.438S29.209,38.3,32.477,39.861
	c3.266,1.562,5.563,1.585,9.699-0.572c4.137-2.157,23.562-10.145,27.311-12.098C73.237,25.236,73.098,24.133,69.442,22.792z"/>
<path class="redis-1 color-80" d="M72.239,13.312c0.004,0.682-0.896,1.44-2.752,2.407c-3.748,1.953-23.174,9.941-27.311,12.098
	c-4.136,2.158-6.434,2.135-9.699,0.572C29.21,26.828,8.538,18.477,4.814,16.697c-1.86-0.889-2.81-1.639-2.84-2.346v7.058
	c0,0.711,0.979,1.461,2.84,2.35C8.538,25.54,29.211,33.89,32.478,35.452c3.268,1.563,5.565,1.583,9.7-0.574
	c4.136-2.156,23.562-10.143,27.312-12.098c1.91-0.994,2.752-1.766,2.752-2.466c0-0.658,0.002-7.002,0.002-7.002
	S72.241,13.312,72.239,13.312z"/>
</svg>
