<?xml version="1.0" encoding="utf-8"?>
<!-- Generator: Adobe Illustrator 16.0.0, SVG Export Plug-In . SVG Version: 6.00 Build 0)  -->
<!DOCTYPE svg PUBLIC "-//W3C//DTD SVG 1.1//EN" "http://www.w3.org/Graphics/SVG/1.1/DTD/svg11.dtd">
<svg version="1.1"
	 id="svg2" xmlns:dc="http://purl.org/dc/elements/1.1/" xmlns:cc="http://creativecommons.org/ns#" xmlns:rdf="http://www.w3.org/1999/02/22-rdf-syntax-ns#" xmlns:svg="http://www.w3.org/2000/svg" xmlns:sodipodi="http://sodipodi.sourceforge.net/DTD/sodipodi-0.dtd" xmlns:inkscape="http://www.inkscape.org/namespaces/inkscape" inkscape:version="0.48.2 r9819" sodipodi:docname="vagrant.svg" inkscape:export-xdpi="90" inkscape:export-filename="/Users/andrew/Downloads/vagrant.png" inkscape:export-ydpi="90"
	 xmlns="http://www.w3.org/2000/svg" xmlns:xlink="http://www.w3.org/1999/xlink" x="0px" y="0px" width="200px" height="60px"
	 viewBox="0 0 200 60" style="enable-background:new 0 0 200 60;" xml:space="preserve">
<style type="text/css">.vagrant-1{fill:#EAEAEA;}.vagrant-2{fill:#2890CB;}.vagrant-3{fill:#62B0E2;}</style>
<path class="vagrant-3 color-70" d="M48.187,10.722l-0.046-0.027l-0.005,0.004l-3.627-2.107l-3.717,2.131l-3.436,7.477L34.43,30.591l-4.755,1.539
	l-7.431-19.205V8.589l-0.027-0.016l-7.442,4.32L0,4.315v4.401l4.613,11.08l2.806,1.648v5.137l11.112,26.98l11.097,6.422
	l11.152-6.422L59.326,8.589V4.311L48.187,10.722z M7.358,12.894L3.646,10.74l3.713-2.15L7.358,12.894z M14.746,34.3l-3.686-2.141
	l3.709-2.138l3.663,2.138L14.746,34.3z M18.479,19.248l-3.72-2.121l3.72-2.168V19.248z M29.562,55.726l-3.709-2.146l3.709-2.145
	V55.726z M29.611,47.126l-3.691-2.158l3.709-2.143l3.661,2.143L29.611,47.126z M37.458,34.55l3.222,1.879l-5.201,3.057L37.458,34.55
	z M37.026,51.468v-4.336l3.67,2.133L37.026,51.468z M44.488,21.419l-3.737-2.164l3.71-2.141l3.712,2.16L44.488,21.419z"/>
	<polygon class="vagrant-2 color-100" points="51.919,8.589 55.589,10.722 55.589,6.458"/>
	<polygon class="vagrant-2 color-100" points="48.206,32.13 48.206,27.867 44.536,30"/>
	<polygon class="vagrant-2 color-100" points="51.962,4.278 51.962,0.015 55.633,2.146"/>
	<polygon class="vagrant-2 color-100" points="37.092,8.589 37.092,12.914 33.34,22.484 33.34,27.867 30.733,29.38 29.664,32.13 29.681,42.851
		33.341,44.991 37.509,34.575 40.731,36.454 40.731,26.455 41.708,24.125 44.488,25.746 44.488,21.419 40.803,19.255 44.514,17.117
		48.174,19.275 48.174,10.722 44.5,8.589 44.488,12.855 40.792,15.019 40.792,10.722"/>
	<path class="vagrant-2 color-100" d="M7.411,8.613L7.41,12.917l-3.72-2.209L3.687,6.455L0,4.311v4.365l4.601,11.123l2.806,1.648v5.137l11.112,26.98
		l11.097,6.42l-0.007-4.232l3.732,2.096v-8.562l-7.387-4.279L14.81,17.15v-4.248L7.411,8.613z M11.117,32.126v-4.259l7.272,4.318
		l-3.594,2.045L11.117,32.126z M29.607,55.751l-3.755-2.17l3.755-2.158V55.751z"/>
	<polygon class="vagrant-2 color-100" points="22.231,17.148 18.527,14.982 18.527,19.273 22.231,21.414"/>
	<polygon class="vagrant-2 color-100" points="37.078,47.153 40.749,49.284 40.749,45.021"/>
	<polygon class="vagrant-1 color-20" points="7.514,0.03 22.279,8.589 14.81,12.902 0,4.311"/>
	<polygon class="vagrant-1 color-20" points="7.41,12.917 7.411,8.613 3.698,10.763"/>
	<polygon class="vagrant-1 color-20" points="18.527,19.273 18.527,14.982 14.81,17.15"/>
	<polygon class="vagrant-1 color-20" points="29.607,55.751 29.607,51.423 25.853,53.581"/>
	<polygon class="vagrant-1 color-20" points="37.078,51.491 37.078,47.157 40.749,49.29"/>
	<polygon class="vagrant-1 color-20" points="11.117,32.126 14.751,30.031 18.389,32.185 14.794,34.229"/>
	<polygon class="vagrant-1 color-20" points="25.954,45.001 29.681,42.851 33.341,44.991 29.664,47.153"/>
	<polygon class="vagrant-1 color-20" points="40.803,19.255 44.514,17.117 48.174,19.279 44.488,21.419"/>
	<polygon class="vagrant-1 color-20" points="37.509,34.575 40.731,36.454 35.531,39.509"/>
	<polygon class="vagrant-1 color-20" points="37.092,8.589 40.792,10.722 44.513,8.589 48.174,10.722 59.326,4.311 55.633,2.146 51.962,4.278
		48.188,2.203"/>
<path class="vagrant-2 color-100" d="M72.961,40.794h3.762l7.133-21.593h-2.691l-6.322,19.164L68.52,19.201h-2.691L72.961,40.794z M94.621,19.201
	h-3.762l-7.295,21.595h2.821l1.751-5.188h9.176l1.783,5.188h2.82L94.621,19.201z M96.599,33.175h-7.718L92.74,21.21L96.599,33.175z
	 M107.654,25.394c0-2.918,1.07-3.988,4.637-3.988c1.783,0,3.73,0.195,5.805,0.553l0.324-2.4c-2.012-0.455-4.15-0.682-6-0.682
	c-5.383,0-7.555,2.012-7.555,6.389v9.5c0,3.986,1.688,6.355,7.199,6.355c2.236,0,4.732-0.326,6.842-0.941v-9.307h-2.693V38.2
	c-1.49,0.291-2.918,0.391-4.051,0.391c-3.697,0-4.508-1.232-4.508-3.988V25.394L107.654,25.394z M137.551,40.794h3.209l-5.609-8.139
	c2.498-0.713,3.438-2.462,3.438-5.025v-3.111c0-3.309-1.621-5.318-6.258-5.318h-8.234v21.595h2.787v-7.814h5.285L137.551,40.794z
	 M135.799,24.55v3.113c0,2.107-0.906,2.855-3.566,2.855h-5.35v-8.82h5.35C134.893,21.697,135.799,22.412,135.799,24.55
	L135.799,24.55z M154.055,19.201h-3.76L143,40.796h2.82l1.75-5.188h9.178l1.781,5.188h2.822L154.055,19.201z M156.033,33.175h-7.717
	l3.857-11.964L156.033,33.175z M177.076,40.794h3.826V19.201h-2.66v18.482l-9.402-18.482h-3.824v21.595h2.656V22.412L177.076,40.794
	z M190.758,40.794h2.789V21.697H200v-2.496h-15.693v2.496h6.451V40.794z"/>
</svg>
