<?xml version="1.0" encoding="utf-8"?>
<!-- Generator: Adobe Illustrator 16.0.0, SVG Export Plug-In . SVG Version: 6.00 Build 0)  -->
<!DOCTYPE svg PUBLIC "-//W3C//DTD SVG 1.1//EN" "http://www.w3.org/Graphics/SVG/1.1/DTD/svg11.dtd">
<svg version="1.1" xmlns="http://www.w3.org/2000/svg" xmlns:xlink="http://www.w3.org/1999/xlink" x="0px" y="0px"
	 width="324.334px" height="61.334px" viewBox="0 0 324.334 61.334" enable-background="new 0 0 324.334 61.334"
	 xml:space="preserve">
<g id="Calque_1">
	<g>
		<rect x="58.988" y="15.026" fill="none" stroke="#414042" stroke-miterlimit="10" width="200" height="30"/>
		<g>
			<path d="M68.816,25.245h2.412c0.432,0,0.827,0.04,1.188,0.12s0.666,0.21,0.918,0.39c0.252,0.18,0.448,0.418,0.588,0.714
				s0.21,0.66,0.21,1.092c0,0.416-0.07,0.776-0.21,1.08c-0.14,0.304-0.338,0.556-0.594,0.756c-0.256,0.2-0.562,0.35-0.918,0.45
				c-0.356,0.1-0.75,0.15-1.182,0.15h-1.416v3.12h-0.996V25.245z M71.108,29.181c0.688,0,1.197-0.13,1.529-0.39
				c0.332-0.26,0.498-0.67,0.498-1.23c0-0.568-0.168-0.962-0.504-1.182c-0.336-0.22-0.844-0.33-1.523-0.33h-1.296v3.132H71.108z"/>
			<path d="M75.632,24.573h0.984v7.44c0,0.16,0.028,0.271,0.084,0.336s0.12,0.096,0.192,0.096c0.031,0,0.062,0,0.09,0
				c0.027,0,0.069-0.008,0.126-0.023l0.132,0.744c-0.064,0.031-0.14,0.056-0.229,0.072c-0.088,0.016-0.199,0.023-0.336,0.023
				c-0.376,0-0.644-0.112-0.804-0.336c-0.16-0.225-0.24-0.553-0.24-0.984V24.573z"/>
			<path d="M78.404,31.604c0-0.64,0.286-1.13,0.858-1.47c0.571-0.34,1.481-0.578,2.729-0.714c0-0.184-0.018-0.364-0.054-0.54
				c-0.036-0.176-0.101-0.332-0.192-0.468c-0.092-0.136-0.214-0.246-0.366-0.33c-0.151-0.084-0.348-0.126-0.588-0.126
				c-0.344,0-0.662,0.064-0.954,0.192s-0.554,0.272-0.785,0.432l-0.396-0.684c0.271-0.176,0.604-0.346,0.996-0.51
				c0.392-0.164,0.824-0.246,1.296-0.246c0.712,0,1.228,0.218,1.548,0.654s0.48,1.018,0.48,1.746v3.576H82.16l-0.084-0.695h-0.023
				c-0.28,0.232-0.582,0.43-0.906,0.594s-0.666,0.246-1.026,0.246c-0.496,0-0.906-0.145-1.229-0.432
				C78.566,32.54,78.404,32.133,78.404,31.604z M79.376,31.532c0,0.336,0.099,0.576,0.294,0.721
				c0.196,0.144,0.438,0.216,0.727,0.216c0.279,0,0.546-0.065,0.798-0.198c0.252-0.132,0.518-0.326,0.798-0.582v-1.62
				c-0.488,0.064-0.9,0.14-1.236,0.228s-0.605,0.192-0.81,0.312c-0.204,0.12-0.351,0.258-0.438,0.414
				C79.42,31.179,79.376,31.349,79.376,31.532z"/>
			<path d="M84.404,30.213c0-0.488,0.076-0.922,0.228-1.302c0.152-0.38,0.356-0.702,0.612-0.966c0.256-0.264,0.554-0.464,0.895-0.6
				c0.34-0.136,0.697-0.204,1.073-0.204c0.385,0,0.715,0.07,0.99,0.21c0.276,0.14,0.514,0.302,0.714,0.486l-0.492,0.636
				c-0.176-0.152-0.357-0.276-0.546-0.372c-0.188-0.096-0.397-0.144-0.63-0.144c-0.264,0-0.508,0.054-0.731,0.162
				c-0.225,0.108-0.416,0.262-0.576,0.462c-0.16,0.2-0.286,0.438-0.378,0.714c-0.092,0.276-0.139,0.582-0.139,0.918
				c0,0.336,0.044,0.64,0.133,0.911c0.088,0.273,0.21,0.507,0.365,0.703c0.156,0.195,0.347,0.348,0.57,0.455
				c0.224,0.108,0.468,0.162,0.732,0.162c0.279,0,0.533-0.058,0.762-0.174c0.228-0.115,0.43-0.254,0.606-0.414l0.443,0.648
				c-0.264,0.232-0.558,0.416-0.882,0.552s-0.662,0.204-1.014,0.204c-0.385,0-0.744-0.068-1.08-0.204s-0.626-0.334-0.87-0.594
				c-0.244-0.261-0.437-0.58-0.576-0.96S84.404,30.693,84.404,30.213z"/>
			<path d="M89.624,30.213c0-0.48,0.074-0.91,0.222-1.29c0.148-0.38,0.344-0.702,0.588-0.966c0.244-0.264,0.522-0.466,0.834-0.606
				c0.312-0.14,0.637-0.21,0.973-0.21c0.367,0,0.697,0.064,0.99,0.192c0.291,0.128,0.535,0.312,0.731,0.552
				c0.196,0.24,0.346,0.528,0.45,0.864c0.104,0.336,0.156,0.712,0.156,1.128c0,0.216-0.013,0.396-0.036,0.54h-3.937
				c0.04,0.632,0.234,1.132,0.582,1.5c0.349,0.367,0.802,0.552,1.362,0.552c0.28,0,0.538-0.042,0.774-0.126
				c0.235-0.084,0.462-0.193,0.678-0.33l0.348,0.648c-0.256,0.16-0.54,0.3-0.852,0.42c-0.312,0.119-0.668,0.18-1.068,0.18
				c-0.392,0-0.758-0.07-1.098-0.21c-0.341-0.14-0.637-0.34-0.889-0.601c-0.252-0.26-0.449-0.577-0.594-0.953
				C89.696,31.12,89.624,30.693,89.624,30.213z M93.704,29.769c0-0.6-0.126-1.058-0.378-1.374c-0.252-0.316-0.606-0.474-1.062-0.474
				c-0.208,0-0.406,0.042-0.594,0.126s-0.358,0.204-0.51,0.36c-0.152,0.156-0.278,0.348-0.378,0.576
				c-0.101,0.228-0.166,0.49-0.198,0.786H93.704z"/>
			<path d="M98.144,31.604c0-0.64,0.286-1.13,0.858-1.47c0.571-0.34,1.481-0.578,2.729-0.714c0-0.184-0.018-0.364-0.054-0.54
				c-0.036-0.176-0.101-0.332-0.192-0.468c-0.092-0.136-0.214-0.246-0.366-0.33c-0.151-0.084-0.348-0.126-0.588-0.126
				c-0.344,0-0.662,0.064-0.954,0.192s-0.554,0.272-0.785,0.432l-0.396-0.684c0.271-0.176,0.604-0.346,0.996-0.51
				c0.392-0.164,0.824-0.246,1.296-0.246c0.712,0,1.228,0.218,1.548,0.654s0.48,1.018,0.48,1.746v3.576h-0.816l-0.084-0.695h-0.023
				c-0.28,0.232-0.582,0.43-0.906,0.594s-0.666,0.246-1.026,0.246c-0.496,0-0.906-0.145-1.229-0.432
				C98.306,32.54,98.144,32.133,98.144,31.604z M99.115,31.532c0,0.336,0.099,0.576,0.294,0.721
				c0.196,0.144,0.438,0.216,0.727,0.216c0.279,0,0.546-0.065,0.798-0.198c0.252-0.132,0.518-0.326,0.798-0.582v-1.62
				c-0.488,0.064-0.9,0.14-1.236,0.228s-0.605,0.192-0.81,0.312c-0.204,0.12-0.351,0.258-0.438,0.414
				C99.159,31.179,99.115,31.349,99.115,31.532z"/>
			<path d="M104.575,27.285h0.816l0.084,0.84h0.036c0.279-0.28,0.574-0.514,0.882-0.702s0.666-0.282,1.074-0.282
				c0.615,0,1.065,0.192,1.35,0.576c0.284,0.384,0.426,0.952,0.426,1.704v3.695h-0.983v-3.563c0-0.552-0.088-0.95-0.265-1.194
				c-0.176-0.244-0.455-0.366-0.84-0.366c-0.304,0-0.572,0.076-0.804,0.228c-0.232,0.152-0.496,0.376-0.792,0.672v4.224h-0.984
				V27.285z"/>
			<path d="M113.131,30.213c0-0.488,0.074-0.922,0.223-1.302c0.147-0.38,0.346-0.702,0.594-0.966c0.248-0.264,0.534-0.464,0.858-0.6
				c0.323-0.136,0.666-0.204,1.025-0.204c0.36,0,0.702,0.068,1.026,0.204c0.324,0.136,0.609,0.336,0.858,0.6
				c0.247,0.264,0.445,0.586,0.594,0.966c0.147,0.38,0.222,0.814,0.222,1.302c0,0.48-0.074,0.91-0.222,1.29
				c-0.148,0.38-0.347,0.699-0.594,0.96c-0.249,0.26-0.534,0.458-0.858,0.594s-0.666,0.204-1.026,0.204
				c-0.359,0-0.702-0.068-1.025-0.204c-0.324-0.136-0.61-0.334-0.858-0.594c-0.248-0.261-0.446-0.58-0.594-0.96
				C113.205,31.123,113.131,30.693,113.131,30.213z M114.151,30.213c0,0.336,0.04,0.64,0.12,0.911
				c0.08,0.273,0.193,0.507,0.342,0.703c0.148,0.195,0.326,0.348,0.534,0.455c0.208,0.108,0.436,0.162,0.684,0.162
				s0.477-0.054,0.685-0.162c0.208-0.107,0.386-0.26,0.534-0.455c0.147-0.196,0.262-0.43,0.342-0.703
				c0.08-0.271,0.12-0.575,0.12-0.911c0-0.336-0.04-0.642-0.12-0.918c-0.08-0.276-0.194-0.514-0.342-0.714
				c-0.148-0.2-0.326-0.354-0.534-0.462s-0.437-0.162-0.685-0.162s-0.476,0.054-0.684,0.162s-0.386,0.262-0.534,0.462
				c-0.148,0.2-0.262,0.438-0.342,0.714C114.191,29.571,114.151,29.876,114.151,30.213z"/>
			<path d="M120.067,27.285h0.815l0.084,1.056h0.036c0.2-0.368,0.442-0.66,0.727-0.876c0.283-0.216,0.594-0.324,0.93-0.324
				c0.232,0,0.44,0.04,0.624,0.12l-0.192,0.864c-0.096-0.032-0.184-0.056-0.264-0.072s-0.18-0.024-0.3-0.024
				c-0.248,0-0.506,0.1-0.774,0.3c-0.268,0.2-0.502,0.548-0.702,1.044v3.744h-0.983V27.285z"/>
			<path d="M123.69,30.213c0-0.472,0.07-0.898,0.21-1.278c0.141-0.38,0.326-0.702,0.559-0.966c0.231-0.264,0.5-0.468,0.804-0.612
				c0.304-0.144,0.624-0.216,0.96-0.216s0.628,0.06,0.876,0.18s0.5,0.284,0.756,0.492l-0.048-0.996v-2.244h0.996v8.543h-0.816
				l-0.084-0.684h-0.035c-0.232,0.225-0.498,0.418-0.799,0.582c-0.3,0.164-0.622,0.246-0.966,0.246
				c-0.736,0-1.322-0.264-1.758-0.792C123.908,31.94,123.69,31.188,123.69,30.213z M124.711,30.201c0,0.704,0.14,1.251,0.42,1.644
				s0.676,0.588,1.188,0.588c0.272,0,0.528-0.066,0.769-0.197c0.24-0.133,0.479-0.334,0.72-0.606v-3.048
				c-0.248-0.224-0.486-0.382-0.714-0.474c-0.229-0.092-0.462-0.138-0.702-0.138c-0.232,0-0.45,0.054-0.654,0.162
				c-0.204,0.108-0.382,0.26-0.533,0.456c-0.152,0.196-0.272,0.43-0.36,0.702S124.711,29.865,124.711,30.201z"/>
			<path d="M130.339,30.213c0-0.48,0.074-0.91,0.222-1.29c0.148-0.38,0.344-0.702,0.588-0.966c0.244-0.264,0.522-0.466,0.834-0.606
				c0.312-0.14,0.637-0.21,0.973-0.21c0.367,0,0.697,0.064,0.99,0.192c0.291,0.128,0.535,0.312,0.731,0.552
				c0.196,0.24,0.346,0.528,0.45,0.864c0.104,0.336,0.156,0.712,0.156,1.128c0,0.216-0.013,0.396-0.036,0.54h-3.937
				c0.04,0.632,0.234,1.132,0.582,1.5c0.349,0.367,0.802,0.552,1.362,0.552c0.28,0,0.538-0.042,0.774-0.126
				c0.235-0.084,0.462-0.193,0.678-0.33l0.348,0.648c-0.256,0.16-0.54,0.3-0.852,0.42c-0.312,0.119-0.668,0.18-1.068,0.18
				c-0.392,0-0.758-0.07-1.098-0.21c-0.341-0.14-0.637-0.34-0.889-0.601c-0.252-0.26-0.449-0.577-0.594-0.953
				C130.411,31.12,130.339,30.693,130.339,30.213z M134.419,29.769c0-0.6-0.126-1.058-0.378-1.374
				c-0.252-0.316-0.606-0.474-1.062-0.474c-0.208,0-0.406,0.042-0.594,0.126s-0.358,0.204-0.51,0.36
				c-0.152,0.156-0.278,0.348-0.378,0.576c-0.101,0.228-0.166,0.49-0.198,0.786H134.419z"/>
			<path d="M136.723,27.285h0.815l0.084,1.056h0.036c0.2-0.368,0.442-0.66,0.727-0.876c0.283-0.216,0.594-0.324,0.93-0.324
				c0.232,0,0.44,0.04,0.624,0.12l-0.192,0.864c-0.096-0.032-0.184-0.056-0.264-0.072s-0.18-0.024-0.3-0.024
				c-0.248,0-0.506,0.1-0.774,0.3c-0.268,0.2-0.502,0.548-0.702,1.044v3.744h-0.983V27.285z"/>
			<path d="M143.021,31.604c0-0.64,0.286-1.13,0.858-1.47s1.482-0.578,2.73-0.714c0-0.184-0.019-0.364-0.054-0.54
				c-0.037-0.176-0.101-0.332-0.192-0.468c-0.093-0.136-0.214-0.246-0.366-0.33s-0.348-0.126-0.588-0.126
				c-0.344,0-0.662,0.064-0.954,0.192s-0.554,0.272-0.786,0.432l-0.396-0.684c0.271-0.176,0.604-0.346,0.995-0.51
				c0.393-0.164,0.824-0.246,1.297-0.246c0.712,0,1.228,0.218,1.548,0.654c0.319,0.436,0.479,1.018,0.479,1.746v3.576h-0.815
				l-0.084-0.695h-0.024c-0.279,0.232-0.582,0.43-0.906,0.594s-0.666,0.246-1.025,0.246c-0.496,0-0.906-0.145-1.23-0.432
				C143.184,32.54,143.021,32.133,143.021,31.604z M143.994,31.532c0,0.336,0.098,0.576,0.294,0.721
				c0.196,0.144,0.438,0.216,0.726,0.216c0.28,0,0.547-0.065,0.799-0.198c0.252-0.132,0.518-0.326,0.798-0.582v-1.62
				c-0.488,0.064-0.9,0.14-1.236,0.228s-0.606,0.192-0.81,0.312c-0.204,0.12-0.351,0.258-0.438,0.414
				C144.038,31.179,143.994,31.349,143.994,31.532z"/>
			<path d="M149.454,27.285h0.815l0.084,0.84h0.037c0.279-0.28,0.574-0.514,0.881-0.702c0.309-0.188,0.666-0.282,1.074-0.282
				c0.616,0,1.066,0.192,1.351,0.576c0.284,0.384,0.426,0.952,0.426,1.704v3.695h-0.983v-3.563c0-0.552-0.088-0.95-0.265-1.194
				c-0.176-0.244-0.456-0.366-0.84-0.366c-0.304,0-0.572,0.076-0.804,0.228c-0.232,0.152-0.496,0.376-0.793,0.672v4.224h-0.983
				V27.285z"/>
			<path d="M155.598,30.213c0-0.472,0.07-0.898,0.211-1.278c0.14-0.38,0.326-0.702,0.558-0.966s0.5-0.468,0.804-0.612
				c0.305-0.144,0.624-0.216,0.961-0.216c0.336,0,0.627,0.06,0.875,0.18s0.5,0.284,0.756,0.492l-0.047-0.996v-2.244h0.995v8.543
				h-0.815l-0.084-0.684h-0.036c-0.232,0.225-0.498,0.418-0.798,0.582c-0.301,0.164-0.623,0.246-0.967,0.246
				c-0.736,0-1.322-0.264-1.758-0.792S155.598,31.188,155.598,30.213z M156.618,30.201c0,0.704,0.14,1.251,0.42,1.644
				s0.677,0.588,1.188,0.588c0.271,0,0.527-0.066,0.768-0.197c0.24-0.133,0.48-0.334,0.721-0.606v-3.048
				c-0.248-0.224-0.486-0.382-0.715-0.474c-0.229-0.092-0.462-0.138-0.701-0.138c-0.232,0-0.451,0.054-0.654,0.162
				c-0.205,0.108-0.383,0.26-0.534,0.456c-0.152,0.196-0.272,0.43-0.36,0.702S156.618,29.865,156.618,30.201z"/>
			<path d="M165.102,27.285h0.816l0.084,0.84h0.036c0.28-0.28,0.574-0.514,0.882-0.702c0.309-0.188,0.666-0.282,1.074-0.282
				c0.615,0,1.066,0.192,1.35,0.576c0.284,0.384,0.426,0.952,0.426,1.704v3.695h-0.983v-3.563c0-0.552-0.088-0.95-0.265-1.194
				c-0.176-0.244-0.455-0.366-0.84-0.366c-0.304,0-0.572,0.076-0.804,0.228s-0.496,0.376-0.792,0.672v4.224h-0.984V27.285z"/>
			<path d="M171.234,30.213c0-0.488,0.074-0.922,0.222-1.302s0.347-0.702,0.595-0.966c0.247-0.264,0.533-0.464,0.857-0.6
				c0.324-0.136,0.666-0.204,1.025-0.204c0.36,0,0.703,0.068,1.026,0.204c0.324,0.136,0.61,0.336,0.858,0.6
				c0.248,0.264,0.445,0.586,0.594,0.966s0.223,0.814,0.223,1.302c0,0.48-0.074,0.91-0.223,1.29s-0.346,0.699-0.594,0.96
				c-0.248,0.26-0.534,0.458-0.858,0.594c-0.323,0.136-0.666,0.204-1.026,0.204c-0.359,0-0.701-0.068-1.025-0.204
				s-0.61-0.334-0.857-0.594c-0.248-0.261-0.447-0.58-0.595-0.96S171.234,30.693,171.234,30.213z M172.254,30.213
				c0,0.336,0.04,0.64,0.12,0.911c0.08,0.273,0.194,0.507,0.343,0.703c0.147,0.195,0.325,0.348,0.533,0.455
				c0.208,0.108,0.436,0.162,0.684,0.162s0.477-0.054,0.685-0.162c0.208-0.107,0.386-0.26,0.534-0.455
				c0.148-0.196,0.262-0.43,0.342-0.703c0.08-0.271,0.12-0.575,0.12-0.911c0-0.336-0.04-0.642-0.12-0.918
				c-0.08-0.276-0.193-0.514-0.342-0.714c-0.148-0.2-0.326-0.354-0.534-0.462s-0.437-0.162-0.685-0.162s-0.476,0.054-0.684,0.162
				s-0.386,0.262-0.533,0.462c-0.148,0.2-0.263,0.438-0.343,0.714C172.294,29.571,172.254,29.876,172.254,30.213z"/>
			<path d="M178.338,28.089h-0.863v-0.744l0.912-0.06l0.119-1.632h0.828v1.632h1.572v0.804h-1.572v3.24
				c0,0.359,0.066,0.638,0.198,0.834c0.132,0.195,0.366,0.293,0.702,0.293c0.104,0,0.216-0.016,0.336-0.047
				c0.119-0.032,0.228-0.068,0.324-0.108l0.191,0.744c-0.16,0.056-0.334,0.106-0.521,0.149c-0.188,0.045-0.375,0.066-0.559,0.066
				c-0.312,0-0.574-0.048-0.785-0.145c-0.213-0.096-0.385-0.228-0.517-0.396s-0.226-0.372-0.282-0.612
				c-0.056-0.24-0.084-0.504-0.084-0.791V28.089z"/>
			<path d="M182.73,26.084c-0.192,0-0.354-0.06-0.486-0.18s-0.197-0.272-0.197-0.456c0-0.192,0.065-0.346,0.197-0.462
				c0.132-0.116,0.294-0.174,0.486-0.174c0.191,0,0.354,0.058,0.486,0.174c0.131,0.116,0.197,0.27,0.197,0.462
				c0,0.184-0.066,0.336-0.197,0.456C183.084,26.025,182.922,26.084,182.73,26.084z M182.227,27.285h0.983v5.832h-0.983V27.285z"/>
			<path d="M187.806,25.376c-0.216-0.096-0.437-0.144-0.659-0.144c-0.545,0-0.816,0.376-0.816,1.128v0.924h1.236v0.804h-1.236v5.027
				h-0.984v-5.027h-0.792v-0.744l0.792-0.06v-0.924c0-0.6,0.139-1.072,0.414-1.416c0.275-0.344,0.706-0.516,1.29-0.516
				c0.185,0,0.358,0.018,0.522,0.054c0.164,0.036,0.313,0.082,0.449,0.138L187.806,25.376z"/>
			<path d="M188.502,34.778c0.08,0.02,0.156,0.03,0.229,0.03c0.336,0,0.609-0.118,0.821-0.354c0.212-0.235,0.378-0.533,0.498-0.894
				l0.132-0.432l-2.34-5.844h1.02l1.188,3.228c0.088,0.256,0.182,0.526,0.282,0.811c0.1,0.283,0.193,0.562,0.281,0.834h0.049
				c0.088-0.265,0.172-0.541,0.252-0.828c0.08-0.289,0.16-0.56,0.24-0.816l1.043-3.228h0.961l-2.196,6.312
				c-0.104,0.288-0.22,0.557-0.349,0.805c-0.127,0.247-0.279,0.461-0.455,0.641c-0.176,0.181-0.377,0.322-0.601,0.427
				s-0.483,0.155-0.78,0.155c-0.136,0-0.26-0.01-0.371-0.029c-0.113-0.02-0.217-0.051-0.312-0.09l0.191-0.78
				C188.35,34.741,188.422,34.759,188.502,34.778z"/>
			<path d="M196.878,28.089h-0.864v-0.744l0.912-0.06l0.12-1.632h0.828v1.632h1.571v0.804h-1.571v3.24
				c0,0.359,0.065,0.638,0.197,0.834c0.132,0.195,0.366,0.293,0.702,0.293c0.104,0,0.216-0.016,0.336-0.047
				c0.12-0.032,0.229-0.068,0.324-0.108l0.192,0.744c-0.16,0.056-0.335,0.106-0.522,0.149c-0.188,0.045-0.374,0.066-0.558,0.066
				c-0.312,0-0.574-0.048-0.786-0.145c-0.212-0.096-0.384-0.228-0.517-0.396c-0.132-0.168-0.226-0.372-0.281-0.612
				c-0.057-0.24-0.084-0.504-0.084-0.791V28.089z"/>
			<path d="M200.766,24.573h0.983v2.328l-0.036,1.2c0.28-0.264,0.572-0.49,0.876-0.678c0.305-0.188,0.66-0.282,1.068-0.282
				c0.616,0,1.066,0.192,1.35,0.576c0.284,0.384,0.427,0.952,0.427,1.704v3.695h-0.984v-3.563c0-0.552-0.088-0.95-0.264-1.194
				c-0.177-0.244-0.456-0.366-0.84-0.366c-0.305,0-0.572,0.076-0.805,0.228c-0.231,0.152-0.496,0.376-0.792,0.672v4.224h-0.983
				V24.573z"/>
			<path d="M206.861,30.213c0-0.48,0.074-0.91,0.223-1.29c0.147-0.38,0.344-0.702,0.588-0.966c0.243-0.264,0.521-0.466,0.834-0.606
				c0.312-0.14,0.636-0.21,0.972-0.21c0.368,0,0.698,0.064,0.99,0.192c0.292,0.128,0.536,0.312,0.731,0.552
				c0.196,0.24,0.347,0.528,0.45,0.864c0.104,0.336,0.156,0.712,0.156,1.128c0,0.216-0.012,0.396-0.036,0.54h-3.936
				c0.039,0.632,0.233,1.132,0.582,1.5c0.348,0.367,0.802,0.552,1.361,0.552c0.28,0,0.538-0.042,0.774-0.126
				c0.235-0.084,0.462-0.193,0.678-0.33l0.348,0.648c-0.256,0.16-0.54,0.3-0.852,0.42c-0.312,0.119-0.668,0.18-1.068,0.18
				c-0.392,0-0.758-0.07-1.098-0.21s-0.636-0.34-0.888-0.601c-0.252-0.26-0.45-0.577-0.595-0.953
				C206.934,31.12,206.861,30.693,206.861,30.213z M210.941,29.769c0-0.6-0.126-1.058-0.378-1.374
				c-0.252-0.316-0.605-0.474-1.062-0.474c-0.209,0-0.406,0.042-0.595,0.126c-0.188,0.084-0.357,0.204-0.51,0.36
				c-0.152,0.156-0.278,0.348-0.378,0.576s-0.166,0.49-0.198,0.786H210.941z"/>
			<path d="M215.382,31.604c0-0.64,0.286-1.13,0.857-1.47c0.572-0.34,1.482-0.578,2.73-0.714c0-0.184-0.019-0.364-0.054-0.54
				c-0.036-0.176-0.101-0.332-0.192-0.468c-0.092-0.136-0.214-0.246-0.366-0.33s-0.348-0.126-0.588-0.126
				c-0.344,0-0.662,0.064-0.954,0.192s-0.554,0.272-0.786,0.432l-0.396-0.684c0.271-0.176,0.604-0.346,0.996-0.51
				c0.392-0.164,0.823-0.246,1.296-0.246c0.712,0,1.228,0.218,1.548,0.654c0.319,0.436,0.479,1.018,0.479,1.746v3.576h-0.815
				l-0.084-0.695h-0.024c-0.28,0.232-0.582,0.43-0.905,0.594c-0.324,0.164-0.666,0.246-1.026,0.246c-0.496,0-0.906-0.145-1.23-0.432
				C215.544,32.54,215.382,32.133,215.382,31.604z M216.354,31.532c0,0.336,0.098,0.576,0.294,0.721
				c0.196,0.144,0.438,0.216,0.727,0.216c0.279,0,0.546-0.065,0.798-0.198c0.252-0.132,0.518-0.326,0.798-0.582v-1.62
				c-0.488,0.064-0.9,0.14-1.236,0.228s-0.605,0.192-0.81,0.312c-0.204,0.12-0.351,0.258-0.438,0.414
				C216.397,31.179,216.354,31.349,216.354,31.532z"/>
			<path d="M221.394,30.213c0-0.472,0.069-0.898,0.21-1.278c0.14-0.38,0.325-0.702,0.558-0.966c0.231-0.264,0.5-0.468,0.804-0.612
				c0.304-0.144,0.624-0.216,0.96-0.216s0.628,0.06,0.876,0.18s0.5,0.284,0.756,0.492l-0.048-0.996v-2.244h0.996v8.543h-0.815
				l-0.084-0.684h-0.036c-0.232,0.225-0.498,0.418-0.798,0.582c-0.301,0.164-0.622,0.246-0.967,0.246
				c-0.735,0-1.321-0.264-1.758-0.792C221.611,31.94,221.394,31.188,221.394,30.213z M222.413,30.201c0,0.704,0.14,1.251,0.42,1.644
				s0.676,0.588,1.188,0.588c0.271,0,0.527-0.066,0.768-0.197c0.24-0.133,0.48-0.334,0.72-0.606v-3.048
				c-0.248-0.224-0.485-0.382-0.714-0.474c-0.228-0.092-0.462-0.138-0.702-0.138c-0.231,0-0.449,0.054-0.653,0.162
				c-0.204,0.108-0.383,0.26-0.534,0.456c-0.152,0.196-0.272,0.43-0.36,0.702S222.413,29.865,222.413,30.201z"/>
			<path d="M228.474,27.285h0.815l0.084,0.84h0.036c0.256-0.28,0.534-0.514,0.834-0.702s0.626-0.282,0.979-0.282
				c0.447,0,0.798,0.098,1.05,0.294c0.252,0.196,0.438,0.47,0.558,0.822c0.304-0.336,0.61-0.606,0.918-0.81s0.643-0.306,1.002-0.306
				c0.601,0,1.046,0.192,1.338,0.576c0.292,0.384,0.438,0.952,0.438,1.704v3.695h-0.984v-3.563c0-0.552-0.088-0.95-0.264-1.194
				s-0.448-0.366-0.816-0.366c-0.439,0-0.928,0.3-1.464,0.9v4.224h-0.983v-3.563c0-0.552-0.089-0.95-0.265-1.194
				s-0.452-0.366-0.828-0.366c-0.439,0-0.928,0.3-1.464,0.9v4.224h-0.983V27.285z"/>
			<path d="M238.926,26.084c-0.192,0-0.354-0.06-0.486-0.18s-0.198-0.272-0.198-0.456c0-0.192,0.066-0.346,0.198-0.462
				c0.132-0.116,0.294-0.174,0.486-0.174c0.191,0,0.354,0.058,0.485,0.174c0.133,0.116,0.198,0.27,0.198,0.462
				c0,0.184-0.065,0.336-0.198,0.456C239.279,26.025,239.117,26.084,238.926,26.084z M238.422,27.285h0.983v5.832h-0.983V27.285z"/>
			<path d="M241.374,27.285h0.815l0.084,0.84h0.036c0.28-0.28,0.574-0.514,0.882-0.702c0.309-0.188,0.666-0.282,1.074-0.282
				c0.616,0,1.066,0.192,1.35,0.576c0.284,0.384,0.427,0.952,0.427,1.704v3.695h-0.984v-3.563c0-0.552-0.088-0.95-0.264-1.194
				c-0.177-0.244-0.456-0.366-0.84-0.366c-0.305,0-0.572,0.076-0.805,0.228c-0.231,0.152-0.496,0.376-0.792,0.672v4.224h-0.983
				V27.285z"/>
			<path d="M247.734,32.517c0-0.232,0.069-0.418,0.21-0.559c0.14-0.139,0.31-0.209,0.51-0.209c0.192,0,0.358,0.07,0.498,0.209
				c0.14,0.141,0.21,0.326,0.21,0.559c0,0.217-0.07,0.395-0.21,0.534s-0.306,0.21-0.498,0.21c-0.2,0-0.37-0.07-0.51-0.21
				C247.804,32.911,247.734,32.733,247.734,32.517z"/>
		</g>
	</g>
</g>
<g id="Calque_2" display="none">
	<g display="inline">
		<g>
			<path d="M13.108,26.828h2.412c0.432,0,0.828,0.04,1.188,0.12c0.36,0.08,0.666,0.21,0.918,0.391
				c0.252,0.18,0.448,0.418,0.588,0.713c0.14,0.297,0.21,0.66,0.21,1.092c0,0.416-0.07,0.777-0.21,1.08
				c-0.14,0.305-0.338,0.557-0.594,0.756c-0.256,0.201-0.562,0.351-0.918,0.451c-0.356,0.1-0.75,0.149-1.182,0.149h-1.416v3.12
				h-0.996V26.828z M15.4,30.765c0.688,0,1.198-0.131,1.53-0.391s0.498-0.67,0.498-1.23c0-0.567-0.168-0.961-0.504-1.182
				c-0.336-0.22-0.844-0.33-1.524-0.33h-1.296v3.133H15.4z"/>
			<path d="M19.924,26.156h0.984v7.44c0,0.16,0.028,0.271,0.084,0.336c0.056,0.063,0.12,0.096,0.192,0.096c0.032,0,0.062,0,0.09,0
				c0.028,0,0.07-0.008,0.126-0.023l0.132,0.743c-0.064,0.032-0.14,0.056-0.228,0.072c-0.088,0.016-0.2,0.024-0.336,0.024
				c-0.376,0-0.644-0.113-0.804-0.336c-0.16-0.225-0.24-0.553-0.24-0.984V26.156z"/>
			<path d="M22.696,33.188c0-0.641,0.286-1.131,0.858-1.471c0.572-0.34,1.482-0.578,2.73-0.713c0-0.185-0.018-0.365-0.054-0.541
				s-0.1-0.332-0.192-0.468c-0.092-0.136-0.214-0.246-0.366-0.33s-0.348-0.126-0.588-0.126c-0.344,0-0.662,0.064-0.954,0.192
				s-0.554,0.272-0.786,0.432l-0.396-0.685c0.271-0.176,0.604-0.346,0.996-0.51s0.824-0.246,1.296-0.246
				c0.712,0,1.228,0.219,1.548,0.654c0.32,0.437,0.48,1.019,0.48,1.746V34.7h-0.816l-0.084-0.695h-0.024
				c-0.28,0.231-0.582,0.43-0.906,0.594s-0.666,0.246-1.026,0.246c-0.496,0-0.906-0.145-1.23-0.433
				C22.858,34.124,22.696,33.716,22.696,33.188z M23.668,33.116c0,0.336,0.098,0.576,0.294,0.721
				c0.196,0.143,0.438,0.215,0.726,0.215c0.28,0,0.546-0.065,0.798-0.197c0.252-0.133,0.518-0.326,0.798-0.582v-1.62
				c-0.488,0.063-0.9,0.14-1.236,0.228s-0.606,0.192-0.81,0.312c-0.204,0.119-0.35,0.258-0.438,0.414S23.668,32.933,23.668,33.116z"
				/>
			<path d="M28.696,31.796c0-0.488,0.076-0.922,0.228-1.302s0.356-0.702,0.612-0.966c0.256-0.264,0.554-0.464,0.894-0.6
				c0.34-0.137,0.698-0.205,1.074-0.205c0.384,0,0.714,0.07,0.99,0.211c0.276,0.14,0.514,0.302,0.714,0.486l-0.492,0.635
				c-0.176-0.151-0.358-0.275-0.546-0.371s-0.398-0.145-0.63-0.145c-0.264,0-0.508,0.055-0.732,0.162
				c-0.224,0.107-0.416,0.262-0.576,0.462s-0.286,0.438-0.378,0.714c-0.092,0.276-0.138,0.582-0.138,0.918s0.044,0.641,0.132,0.912
				c0.088,0.272,0.21,0.506,0.366,0.702c0.156,0.196,0.346,0.349,0.57,0.456c0.224,0.107,0.468,0.162,0.732,0.162
				c0.28,0,0.534-0.059,0.762-0.174c0.228-0.116,0.43-0.254,0.606-0.414l0.444,0.648c-0.264,0.231-0.558,0.416-0.882,0.551
				c-0.324,0.137-0.662,0.205-1.014,0.205c-0.384,0-0.744-0.068-1.08-0.205c-0.336-0.135-0.626-0.334-0.87-0.594
				s-0.436-0.58-0.576-0.959C28.767,32.706,28.696,32.276,28.696,31.796z"/>
			<path d="M33.916,31.796c0-0.479,0.074-0.91,0.222-1.289c0.148-0.381,0.344-0.703,0.588-0.967s0.522-0.466,0.834-0.605
				c0.312-0.141,0.636-0.211,0.972-0.211c0.368,0,0.698,0.064,0.99,0.192c0.292,0.128,0.536,0.312,0.732,0.552
				c0.196,0.24,0.346,0.528,0.45,0.864s0.156,0.712,0.156,1.128c0,0.217-0.012,0.396-0.036,0.54h-3.936
				c0.04,0.632,0.234,1.132,0.582,1.5s0.802,0.552,1.362,0.552c0.28,0,0.538-0.041,0.774-0.125c0.236-0.084,0.462-0.194,0.678-0.33
				l0.348,0.647c-0.256,0.16-0.54,0.3-0.852,0.42s-0.668,0.181-1.068,0.181c-0.392,0-0.758-0.07-1.098-0.211
				c-0.34-0.14-0.636-0.34-0.888-0.6s-0.45-0.578-0.594-0.954S33.916,32.276,33.916,31.796z M37.996,31.353
				c0-0.601-0.126-1.059-0.378-1.375c-0.252-0.315-0.606-0.473-1.062-0.473c-0.208,0-0.406,0.041-0.594,0.125
				c-0.188,0.084-0.358,0.204-0.51,0.36c-0.152,0.155-0.278,0.349-0.378,0.576s-0.166,0.489-0.198,0.786H37.996z"/>
			<path d="M42.436,33.188c0-0.641,0.286-1.131,0.858-1.471c0.572-0.34,1.482-0.578,2.73-0.713c0-0.185-0.018-0.365-0.054-0.541
				s-0.1-0.332-0.192-0.468c-0.092-0.136-0.214-0.246-0.366-0.33s-0.348-0.126-0.588-0.126c-0.344,0-0.662,0.064-0.954,0.192
				s-0.554,0.272-0.786,0.432l-0.396-0.685c0.271-0.176,0.604-0.346,0.996-0.51s0.824-0.246,1.296-0.246
				c0.712,0,1.228,0.219,1.548,0.654c0.32,0.437,0.48,1.019,0.48,1.746V34.7h-0.816l-0.084-0.695h-0.024
				c-0.28,0.231-0.582,0.43-0.906,0.594s-0.666,0.246-1.026,0.246c-0.496,0-0.906-0.145-1.23-0.433
				C42.598,34.124,42.436,33.716,42.436,33.188z M43.408,33.116c0,0.336,0.098,0.576,0.294,0.721
				c0.196,0.143,0.438,0.215,0.726,0.215c0.28,0,0.546-0.065,0.798-0.197c0.252-0.133,0.518-0.326,0.798-0.582v-1.62
				c-0.488,0.063-0.9,0.14-1.236,0.228s-0.606,0.192-0.81,0.312c-0.204,0.119-0.35,0.258-0.438,0.414S43.408,32.933,43.408,33.116z"
				/>
			<path d="M48.868,28.868h0.816l0.084,0.84h0.036c0.28-0.279,0.574-0.514,0.882-0.701c0.308-0.188,0.666-0.283,1.074-0.283
				c0.616,0,1.066,0.192,1.35,0.576c0.284,0.385,0.426,0.953,0.426,1.705V34.7h-0.984v-3.564c0-0.552-0.088-0.949-0.264-1.193
				c-0.176-0.244-0.456-0.366-0.84-0.366c-0.304,0-0.572,0.076-0.804,0.228c-0.232,0.152-0.496,0.377-0.792,0.672V34.7h-0.984
				V28.868z"/>
			<path d="M55.012,31.796c0-0.472,0.07-0.897,0.21-1.277c0.14-0.381,0.326-0.702,0.558-0.967c0.232-0.264,0.5-0.468,0.804-0.611
				c0.304-0.145,0.624-0.217,0.96-0.217c0.336,0,0.628,0.061,0.876,0.181c0.248,0.12,0.5,0.284,0.756,0.491L59.128,28.4v-2.244
				h0.996V34.7h-0.816l-0.084-0.684h-0.036c-0.232,0.224-0.498,0.418-0.798,0.582c-0.3,0.164-0.622,0.246-0.966,0.246
				c-0.736,0-1.322-0.265-1.758-0.793C55.229,33.524,55.012,32.772,55.012,31.796z M56.032,31.784c0,0.704,0.14,1.252,0.42,1.645
				c0.28,0.392,0.676,0.588,1.188,0.588c0.272,0,0.528-0.066,0.768-0.198c0.24-0.132,0.48-0.334,0.72-0.606v-3.048
				c-0.248-0.224-0.486-0.382-0.714-0.474s-0.462-0.139-0.702-0.139c-0.232,0-0.45,0.055-0.654,0.162
				c-0.204,0.108-0.382,0.26-0.534,0.457c-0.152,0.195-0.272,0.43-0.36,0.701S56.032,31.448,56.032,31.784z"/>
			<path d="M64.083,31.796c0-0.488,0.074-0.922,0.222-1.302s0.346-0.702,0.594-0.966c0.248-0.264,0.534-0.464,0.858-0.6
				c0.324-0.137,0.666-0.205,1.026-0.205s0.702,0.068,1.026,0.205c0.324,0.136,0.61,0.336,0.858,0.6
				c0.248,0.264,0.446,0.586,0.594,0.966s0.222,0.813,0.222,1.302c0,0.48-0.074,0.91-0.222,1.291
				c-0.148,0.379-0.346,0.699-0.594,0.959c-0.249,0.26-0.534,0.459-0.858,0.594c-0.324,0.137-0.666,0.205-1.026,0.205
				s-0.702-0.068-1.026-0.205c-0.324-0.135-0.61-0.334-0.858-0.594c-0.248-0.26-0.446-0.58-0.594-0.959
				C64.157,32.706,64.083,32.276,64.083,31.796z M65.103,31.796c0,0.336,0.04,0.641,0.12,0.912c0.08,0.272,0.194,0.506,0.342,0.702
				c0.148,0.196,0.326,0.349,0.534,0.456s0.436,0.162,0.684,0.162s0.476-0.055,0.684-0.162s0.386-0.26,0.534-0.456
				c0.148-0.196,0.262-0.43,0.342-0.702c0.08-0.271,0.12-0.576,0.12-0.912s-0.04-0.642-0.12-0.918
				c-0.08-0.275-0.194-0.514-0.342-0.714c-0.148-0.2-0.326-0.354-0.534-0.462s-0.436-0.162-0.684-0.162s-0.476,0.055-0.684,0.162
				s-0.386,0.262-0.534,0.462c-0.148,0.2-0.262,0.438-0.342,0.714C65.143,31.154,65.103,31.46,65.103,31.796z"/>
			<path d="M71.019,28.868h0.816l0.084,1.057h0.036c0.2-0.369,0.442-0.66,0.726-0.877c0.284-0.216,0.594-0.324,0.93-0.324
				c0.232,0,0.44,0.041,0.624,0.121l-0.192,0.863c-0.096-0.031-0.184-0.056-0.264-0.072c-0.08-0.016-0.18-0.023-0.3-0.023
				c-0.248,0-0.506,0.1-0.774,0.3s-0.502,0.548-0.702,1.044V34.7h-0.984V28.868z"/>
			<path d="M74.643,31.796c0-0.472,0.07-0.897,0.21-1.277c0.14-0.381,0.326-0.702,0.558-0.967c0.232-0.264,0.5-0.468,0.804-0.611
				c0.304-0.145,0.624-0.217,0.96-0.217c0.336,0,0.628,0.061,0.876,0.181c0.248,0.12,0.5,0.284,0.756,0.491L78.759,28.4v-2.244
				h0.996V34.7h-0.816l-0.084-0.684h-0.036c-0.232,0.224-0.498,0.418-0.798,0.582c-0.3,0.164-0.622,0.246-0.966,0.246
				c-0.736,0-1.322-0.265-1.758-0.793C74.861,33.524,74.643,32.772,74.643,31.796z M75.663,31.784c0,0.704,0.14,1.252,0.42,1.645
				c0.28,0.392,0.676,0.588,1.188,0.588c0.272,0,0.528-0.066,0.768-0.198c0.24-0.132,0.48-0.334,0.72-0.606v-3.048
				c-0.248-0.224-0.486-0.382-0.714-0.474s-0.462-0.139-0.702-0.139c-0.232,0-0.45,0.055-0.654,0.162
				c-0.204,0.108-0.382,0.26-0.534,0.457c-0.152,0.195-0.272,0.43-0.36,0.701S75.663,31.448,75.663,31.784z"/>
			<path d="M81.291,31.796c0-0.479,0.074-0.91,0.222-1.289c0.148-0.381,0.344-0.703,0.588-0.967s0.522-0.466,0.834-0.605
				c0.312-0.141,0.636-0.211,0.972-0.211c0.368,0,0.698,0.064,0.99,0.192c0.292,0.128,0.536,0.312,0.732,0.552
				c0.196,0.24,0.346,0.528,0.45,0.864s0.156,0.712,0.156,1.128c0,0.217-0.012,0.396-0.036,0.54h-3.936
				c0.04,0.632,0.234,1.132,0.582,1.5s0.802,0.552,1.362,0.552c0.28,0,0.538-0.041,0.774-0.125c0.236-0.084,0.462-0.194,0.678-0.33
				l0.348,0.647c-0.256,0.16-0.54,0.3-0.852,0.42s-0.668,0.181-1.068,0.181c-0.392,0-0.758-0.07-1.098-0.211
				c-0.34-0.14-0.636-0.34-0.888-0.6s-0.45-0.578-0.594-0.954S81.291,32.276,81.291,31.796z M85.371,31.353
				c0-0.601-0.126-1.059-0.378-1.375c-0.252-0.315-0.606-0.473-1.062-0.473c-0.208,0-0.406,0.041-0.594,0.125
				c-0.188,0.084-0.358,0.204-0.51,0.36c-0.152,0.155-0.278,0.349-0.378,0.576s-0.166,0.489-0.198,0.786H85.371z"/>
			<path d="M87.675,28.868h0.816l0.084,1.057h0.036c0.2-0.369,0.442-0.66,0.726-0.877c0.284-0.216,0.594-0.324,0.93-0.324
				c0.232,0,0.44,0.041,0.624,0.121l-0.192,0.863c-0.096-0.031-0.184-0.056-0.264-0.072c-0.08-0.016-0.18-0.023-0.3-0.023
				c-0.248,0-0.506,0.1-0.774,0.3s-0.502,0.548-0.702,1.044V34.7h-0.984V28.868z"/>
		</g>
		<rect x="2" y="15.5" fill="none" stroke="#414042" stroke-miterlimit="10" width="100" height="30"/>
	</g>
	<g display="inline">
		<g>
			<path d="M231.976,25.244h1.032l2.844,4.943l0.852,1.633h0.049c-0.024-0.4-0.051-0.814-0.078-1.242
				c-0.028-0.428-0.042-0.85-0.042-1.266v-4.068h0.947v7.873h-1.031l-2.856-4.957l-0.852-1.619h-0.048
				c0.031,0.4,0.062,0.805,0.09,1.217c0.027,0.412,0.042,0.826,0.042,1.242v4.117h-0.948V25.244z"/>
			<path d="M239.211,30.213c0-0.488,0.074-0.922,0.223-1.303c0.147-0.379,0.346-0.701,0.594-0.965
				c0.248-0.266,0.534-0.465,0.857-0.602c0.324-0.135,0.666-0.203,1.026-0.203s0.702,0.068,1.026,0.203
				c0.323,0.137,0.609,0.336,0.857,0.602c0.248,0.264,0.446,0.586,0.595,0.965c0.147,0.381,0.222,0.814,0.222,1.303
				c0,0.48-0.074,0.91-0.222,1.289c-0.148,0.381-0.347,0.701-0.595,0.961s-0.534,0.457-0.857,0.594
				c-0.324,0.137-0.666,0.203-1.026,0.203s-0.702-0.066-1.026-0.203c-0.323-0.137-0.609-0.334-0.857-0.594s-0.446-0.58-0.594-0.961
				C239.286,31.123,239.211,30.693,239.211,30.213z M240.232,30.213c0,0.336,0.04,0.641,0.12,0.912
				c0.079,0.271,0.193,0.506,0.342,0.701c0.147,0.197,0.326,0.348,0.534,0.457c0.208,0.107,0.436,0.162,0.684,0.162
				s0.476-0.055,0.684-0.162c0.208-0.109,0.387-0.26,0.534-0.457c0.148-0.195,0.263-0.43,0.342-0.701
				c0.08-0.271,0.12-0.576,0.12-0.912s-0.04-0.643-0.12-0.918c-0.079-0.277-0.193-0.514-0.342-0.715
				c-0.147-0.199-0.326-0.354-0.534-0.461c-0.208-0.109-0.436-0.162-0.684-0.162s-0.476,0.053-0.684,0.162
				c-0.208,0.107-0.387,0.262-0.534,0.461c-0.148,0.201-0.263,0.438-0.342,0.715C240.272,29.57,240.232,29.877,240.232,30.213z"/>
			<path d="M246.316,28.088h-0.864v-0.744l0.912-0.059l0.12-1.633h0.828v1.633h1.571v0.803h-1.571v3.24
				c0,0.359,0.065,0.639,0.197,0.834c0.132,0.197,0.366,0.295,0.702,0.295c0.104,0,0.216-0.016,0.336-0.049
				c0.12-0.031,0.229-0.068,0.324-0.107l0.192,0.744c-0.16,0.055-0.335,0.105-0.522,0.15c-0.188,0.043-0.374,0.064-0.558,0.064
				c-0.312,0-0.574-0.047-0.786-0.143c-0.212-0.098-0.384-0.229-0.517-0.396c-0.132-0.168-0.226-0.373-0.281-0.611
				c-0.057-0.24-0.084-0.506-0.084-0.793V28.088z"/>
			<path d="M250.708,26.084c-0.192,0-0.354-0.059-0.486-0.18c-0.132-0.119-0.198-0.271-0.198-0.455c0-0.193,0.066-0.348,0.198-0.463
				s0.294-0.174,0.486-0.174c0.191,0,0.354,0.059,0.485,0.174c0.133,0.115,0.198,0.27,0.198,0.463c0,0.184-0.065,0.336-0.198,0.455
				C251.061,26.025,250.899,26.084,250.708,26.084z M250.204,27.285h0.983v5.832h-0.983V27.285z"/>
			<path d="M255.784,25.377c-0.216-0.096-0.437-0.145-0.66-0.145c-0.544,0-0.816,0.377-0.816,1.129v0.924h1.236v0.803h-1.236v5.029
				h-0.983v-5.029h-0.792v-0.744l0.792-0.059v-0.924c0-0.602,0.138-1.072,0.414-1.416c0.275-0.346,0.705-0.518,1.29-0.518
				c0.184,0,0.357,0.02,0.521,0.055s0.313,0.082,0.45,0.139L255.784,25.377z"/>
			<path d="M256.479,34.779c0.08,0.02,0.156,0.029,0.229,0.029c0.336,0,0.609-0.119,0.821-0.354
				c0.212-0.236,0.379-0.535,0.498-0.895l0.133-0.432l-2.341-5.844h1.021l1.188,3.227c0.088,0.258,0.183,0.527,0.282,0.811
				c0.101,0.285,0.194,0.562,0.282,0.834h0.048c0.088-0.264,0.172-0.539,0.252-0.828c0.08-0.287,0.16-0.559,0.24-0.816l1.044-3.227
				h0.96l-2.196,6.311c-0.104,0.289-0.22,0.557-0.348,0.805s-0.28,0.463-0.456,0.643s-0.376,0.322-0.6,0.426
				c-0.225,0.104-0.484,0.156-0.78,0.156c-0.136,0-0.26-0.01-0.372-0.031c-0.112-0.02-0.216-0.049-0.312-0.09l0.191-0.779
				C256.328,34.74,256.399,34.758,256.479,34.779z"/>
			<path d="M264.855,28.088h-0.864v-0.744l0.912-0.059l0.12-1.633h0.828v1.633h1.571v0.803h-1.571v3.24
				c0,0.359,0.065,0.639,0.197,0.834c0.132,0.197,0.366,0.295,0.702,0.295c0.104,0,0.216-0.016,0.336-0.049
				c0.12-0.031,0.229-0.068,0.324-0.107l0.192,0.744c-0.16,0.055-0.335,0.105-0.522,0.15c-0.188,0.043-0.374,0.064-0.558,0.064
				c-0.312,0-0.574-0.047-0.786-0.143c-0.212-0.098-0.384-0.229-0.517-0.396c-0.132-0.168-0.226-0.373-0.281-0.611
				c-0.057-0.24-0.084-0.506-0.084-0.793V28.088z"/>
			<path d="M268.743,24.572h0.983V26.9L269.69,28.1c0.28-0.264,0.572-0.488,0.876-0.678c0.305-0.188,0.66-0.281,1.068-0.281
				c0.616,0,1.066,0.191,1.35,0.576c0.284,0.383,0.427,0.951,0.427,1.703v3.697h-0.984v-3.564c0-0.553-0.088-0.949-0.264-1.193
				c-0.177-0.244-0.456-0.367-0.84-0.367c-0.305,0-0.572,0.076-0.805,0.229c-0.231,0.152-0.496,0.375-0.792,0.672v4.225h-0.983
				V24.572z"/>
			<path d="M274.838,30.213c0-0.48,0.074-0.91,0.223-1.291c0.147-0.379,0.344-0.701,0.588-0.965
				c0.243-0.264,0.521-0.467,0.834-0.607c0.312-0.139,0.636-0.209,0.972-0.209c0.368,0,0.698,0.064,0.99,0.191
				c0.292,0.129,0.536,0.312,0.731,0.553c0.196,0.24,0.347,0.527,0.45,0.863c0.104,0.336,0.156,0.713,0.156,1.129
				c0,0.215-0.012,0.395-0.036,0.539h-3.936c0.039,0.633,0.233,1.133,0.582,1.5c0.348,0.369,0.802,0.553,1.361,0.553
				c0.28,0,0.538-0.043,0.774-0.127c0.235-0.084,0.462-0.193,0.678-0.33l0.348,0.648c-0.256,0.16-0.54,0.301-0.852,0.42
				c-0.312,0.121-0.668,0.18-1.068,0.18c-0.392,0-0.758-0.07-1.098-0.209c-0.34-0.141-0.636-0.34-0.888-0.6s-0.45-0.578-0.595-0.955
				C274.911,31.121,274.838,30.693,274.838,30.213z M278.918,29.768c0-0.6-0.126-1.057-0.378-1.373s-0.605-0.475-1.062-0.475
				c-0.209,0-0.406,0.043-0.595,0.127c-0.188,0.084-0.357,0.203-0.51,0.359s-0.278,0.348-0.378,0.576s-0.166,0.49-0.198,0.785
				H278.918z"/>
			<path d="M283.359,31.604c0-0.639,0.286-1.129,0.858-1.469c0.572-0.34,1.482-0.578,2.73-0.715c0-0.184-0.02-0.363-0.055-0.539
				s-0.1-0.332-0.191-0.469c-0.092-0.135-0.215-0.246-0.367-0.33s-0.348-0.125-0.588-0.125c-0.344,0-0.662,0.064-0.953,0.191
				c-0.293,0.129-0.555,0.271-0.787,0.432l-0.395-0.684c0.272-0.176,0.604-0.346,0.997-0.51c0.391-0.164,0.822-0.246,1.295-0.246
				c0.713,0,1.229,0.219,1.549,0.654c0.318,0.436,0.479,1.018,0.479,1.746v3.576h-0.814l-0.084-0.697h-0.025
				c-0.279,0.232-0.582,0.43-0.904,0.594c-0.324,0.164-0.666,0.246-1.027,0.246c-0.496,0-0.906-0.143-1.23-0.432
				C283.521,32.541,283.359,32.133,283.359,31.604z M284.33,31.533c0,0.336,0.098,0.576,0.295,0.719
				c0.195,0.145,0.438,0.217,0.727,0.217c0.279,0,0.545-0.066,0.797-0.199c0.252-0.131,0.518-0.324,0.799-0.582v-1.619
				c-0.488,0.064-0.9,0.141-1.236,0.229s-0.605,0.191-0.811,0.312c-0.203,0.119-0.35,0.258-0.438,0.412
				C284.375,31.178,284.33,31.348,284.33,31.533z"/>
			<path d="M289.371,30.213c0-0.473,0.068-0.898,0.209-1.279c0.141-0.379,0.326-0.701,0.559-0.965c0.23-0.264,0.5-0.469,0.803-0.611
				c0.305-0.145,0.625-0.217,0.961-0.217s0.627,0.061,0.875,0.18c0.248,0.121,0.5,0.285,0.756,0.492l-0.047-0.996v-2.244h0.996
				v8.545h-0.816l-0.084-0.686h-0.035c-0.232,0.225-0.498,0.418-0.799,0.582s-0.621,0.246-0.967,0.246
				c-0.734,0-1.32-0.264-1.758-0.791C289.588,31.941,289.371,31.189,289.371,30.213z M290.391,30.201
				c0,0.703,0.139,1.252,0.42,1.643c0.279,0.393,0.676,0.588,1.188,0.588c0.271,0,0.527-0.064,0.768-0.197s0.48-0.334,0.721-0.605
				V28.58c-0.248-0.223-0.486-0.381-0.715-0.473c-0.227-0.094-0.461-0.139-0.701-0.139c-0.232,0-0.449,0.053-0.654,0.162
				c-0.203,0.107-0.383,0.26-0.533,0.455c-0.152,0.197-0.273,0.43-0.361,0.703C290.434,29.561,290.391,29.865,290.391,30.201z"/>
			<path d="M296.451,27.285h0.814l0.084,0.84h0.037c0.256-0.281,0.533-0.514,0.834-0.703c0.299-0.188,0.625-0.281,0.979-0.281
				c0.447,0,0.797,0.098,1.049,0.293c0.252,0.197,0.438,0.471,0.559,0.822c0.303-0.336,0.609-0.605,0.918-0.809
				c0.307-0.205,0.643-0.307,1.002-0.307c0.6,0,1.045,0.191,1.338,0.576c0.291,0.383,0.438,0.951,0.438,1.703v3.697h-0.984v-3.564
				c0-0.553-0.088-0.949-0.264-1.193s-0.447-0.367-0.816-0.367c-0.439,0-0.928,0.301-1.463,0.9v4.225h-0.984v-3.564
				c0-0.553-0.088-0.949-0.264-1.193s-0.453-0.367-0.828-0.367c-0.439,0-0.928,0.301-1.465,0.9v4.225h-0.982V27.285z"/>
			<path d="M306.902,26.084c-0.191,0-0.354-0.059-0.486-0.18c-0.131-0.119-0.197-0.271-0.197-0.455c0-0.193,0.066-0.348,0.197-0.463
				c0.133-0.115,0.295-0.174,0.486-0.174s0.354,0.059,0.486,0.174s0.197,0.27,0.197,0.463c0,0.184-0.064,0.336-0.197,0.455
				C307.256,26.025,307.094,26.084,306.902,26.084z M306.398,27.285h0.984v5.832h-0.984V27.285z"/>
			<path d="M309.352,27.285h0.814l0.084,0.84h0.037c0.279-0.281,0.574-0.514,0.881-0.703c0.309-0.188,0.666-0.281,1.074-0.281
				c0.617,0,1.066,0.191,1.35,0.576c0.285,0.383,0.428,0.951,0.428,1.703v3.697h-0.984v-3.564c0-0.553-0.088-0.949-0.264-1.193
				c-0.178-0.244-0.457-0.367-0.84-0.367c-0.305,0-0.572,0.076-0.805,0.229s-0.496,0.375-0.793,0.672v4.225h-0.982V27.285z"/>
		</g>
		<rect x="222.998" y="15.027" fill="none" stroke="#414042" stroke-miterlimit="10" width="100" height="29.999"/>
	</g>
	<g display="inline">
		<text transform="matrix(1 0 0 1 141.6206 22.0044)"><tspan x="0" y="0" font-family="'SourceSansPro-Regular'" font-size="9.6986">« An order</tspan><tspan x="2.133" y="11.638" font-family="'SourceSansPro-Regular'" font-size="9.6986">has been</tspan><tspan x="2.662" y="23.277" font-family="'SourceSansPro-Regular'" font-size="9.6986">placed » </tspan></text>
		<circle fill="none" stroke="#333333" stroke-miterlimit="10" cx="162.055" cy="30.5" r="29.5"/>
	</g>
	<path display="inline" fill-rule="evenodd" clip-rule="evenodd" fill="#999999" d="M112.614,40.764l5.41-10l-5.41-10h4.59l5.41,10
		l-5.41,10H112.614z"/>
	<path display="inline" fill-rule="evenodd" clip-rule="evenodd" fill="#999999" d="M202.45,40.764l5.41-10l-5.41-10h4.59l5.41,10
		l-5.41,10H202.45z"/>
</g>
</svg>
