<?xml version="1.0" encoding="utf-8"?>
<!-- Generator: Adobe Illustrator 16.0.0, SVG Export Plug-In . SVG Version: 6.00 Build 0)  -->
<!DOCTYPE svg PUBLIC "-//W3C//DTD SVG 1.1//EN" "http://www.w3.org/Graphics/SVG/1.1/DTD/svg11.dtd">
<svg version="1.1" id="Calque_1" xmlns="http://www.w3.org/2000/svg" xmlns:xlink="http://www.w3.org/1999/xlink" x="0px" y="0px"
	 width="360px" height="80px" viewBox="0 -9.333 360 80" enable-background="new 0 -9.333 360 80" xml:space="preserve">
<g>
	<path d="M33.668,26.629c0.503-0.084,1.163-0.156,2.003-0.156c1.031,0,1.787,0.24,2.267,0.672c0.444,0.384,0.708,0.971,0.708,1.691
		c0,0.731-0.216,1.307-0.624,1.727c-0.552,0.587-1.451,0.888-2.471,0.888c-0.312,0-0.6-0.013-0.839-0.072v3.238h-1.043V26.629z
		 M34.711,30.527c0.228,0.06,0.516,0.084,0.863,0.084c1.259,0,2.027-0.612,2.027-1.727c0-1.067-0.755-1.583-1.907-1.583
		c-0.456,0-0.804,0.036-0.983,0.084V30.527z"/>
	<path d="M39.956,26.102h1.056v8.516h-1.056V26.102z"/>
	<path d="M46.002,34.617l-0.084-0.732h-0.036c-0.324,0.456-0.947,0.863-1.775,0.863c-1.175,0-1.775-0.827-1.775-1.666
		c0-1.404,1.247-2.172,3.49-2.159v-0.12c0-0.479-0.132-1.343-1.319-1.343c-0.54,0-1.104,0.168-1.511,0.432l-0.24-0.695
		c0.48-0.312,1.175-0.516,1.907-0.516c1.775,0,2.207,1.211,2.207,2.375v2.171c0,0.503,0.024,0.995,0.096,1.392H46.002z
		 M45.846,31.654c-1.151-0.023-2.458,0.18-2.458,1.307c0,0.684,0.456,1.008,0.996,1.008c0.755,0,1.235-0.479,1.403-0.971
		c0.036-0.108,0.06-0.229,0.06-0.336V31.654z"/>
	<path d="M52.709,34.4c-0.276,0.145-0.888,0.336-1.667,0.336c-1.751,0-2.891-1.188-2.891-2.962c0-1.787,1.224-3.083,3.119-3.083
		c0.624,0,1.175,0.156,1.463,0.3l-0.24,0.815c-0.252-0.144-0.647-0.275-1.223-0.275c-1.332,0-2.051,0.983-2.051,2.195
		c0,1.343,0.864,2.17,2.015,2.17c0.6,0,0.996-0.155,1.295-0.287L52.709,34.4z"/>
	<path d="M54.464,31.906c0.024,1.428,0.935,2.015,1.991,2.015c0.755,0,1.211-0.132,1.607-0.3l0.18,0.756
		c-0.372,0.168-1.007,0.359-1.931,0.359c-1.787,0-2.854-1.176-2.854-2.926c0-1.751,1.032-3.13,2.723-3.13
		c1.895,0,2.399,1.667,2.399,2.734c0,0.217-0.024,0.385-0.036,0.492H54.464z M57.558,31.15c0.012-0.671-0.276-1.715-1.463-1.715
		c-1.067,0-1.535,0.983-1.619,1.715H57.558z"/>
	<path d="M65.646,34.617l-0.084-0.732h-0.036c-0.324,0.456-0.947,0.863-1.775,0.863c-1.175,0-1.775-0.827-1.775-1.666
		c0-1.404,1.247-2.172,3.49-2.159v-0.12c0-0.479-0.132-1.343-1.319-1.343c-0.54,0-1.104,0.168-1.511,0.432l-0.24-0.695
		c0.48-0.312,1.175-0.516,1.907-0.516c1.775,0,2.207,1.211,2.207,2.375v2.171c0,0.503,0.024,0.995,0.096,1.392H65.646z
		 M65.49,31.654c-1.151-0.023-2.458,0.18-2.458,1.307c0,0.684,0.456,1.008,0.996,1.008c0.755,0,1.235-0.479,1.403-0.971
		c0.036-0.108,0.06-0.229,0.06-0.336V31.654z"/>
	<path d="M68.215,30.383c0-0.6-0.012-1.091-0.048-1.571h0.936l0.06,0.959h0.024c0.288-0.552,0.959-1.091,1.919-1.091
		c0.803,0,2.051,0.479,2.051,2.47v3.467h-1.056v-3.347c0-0.936-0.348-1.715-1.343-1.715c-0.695,0-1.235,0.492-1.415,1.079
		c-0.048,0.132-0.072,0.312-0.072,0.492v3.49h-1.056V30.383z"/>
	<path d="M82.672,31.666c0,2.146-1.487,3.082-2.89,3.082c-1.571,0-2.783-1.15-2.783-2.986c0-1.942,1.271-3.082,2.878-3.082
		C81.545,28.68,82.672,29.891,82.672,31.666z M78.067,31.727c0,1.271,0.732,2.23,1.763,2.23c1.007,0,1.763-0.947,1.763-2.255
		c0-0.983-0.492-2.23-1.739-2.23C78.607,29.472,78.067,30.623,78.067,31.727z"/>
	<path d="M84.007,30.623c0-0.684-0.012-1.271-0.048-1.811h0.923l0.036,1.139h0.048c0.264-0.779,0.899-1.271,1.607-1.271
		c0.12,0,0.204,0.012,0.3,0.036v0.996c-0.108-0.024-0.216-0.036-0.359-0.036c-0.744,0-1.271,0.564-1.416,1.356
		c-0.024,0.144-0.048,0.311-0.048,0.491v3.095h-1.043V30.623z"/>
	<path d="M92.825,26.102v7.016c0,0.516,0.012,1.104,0.048,1.5h-0.947l-0.048-1.008h-0.024c-0.324,0.647-1.032,1.139-1.979,1.139
		c-1.403,0-2.483-1.188-2.483-2.949c-0.012-1.932,1.188-3.119,2.603-3.119c0.888,0,1.487,0.419,1.751,0.887h0.024v-3.466H92.825z
		 M91.77,31.175c0-0.132-0.012-0.312-0.048-0.444c-0.156-0.671-0.731-1.223-1.523-1.223c-1.091,0-1.739,0.959-1.739,2.243
		c0,1.176,0.576,2.146,1.715,2.146c0.708,0,1.355-0.467,1.547-1.259c0.036-0.144,0.048-0.288,0.048-0.456V31.175z"/>
	<path d="M95.167,31.906c0.024,1.428,0.935,2.015,1.991,2.015c0.755,0,1.211-0.132,1.607-0.3l0.18,0.756
		c-0.372,0.168-1.007,0.359-1.931,0.359c-1.787,0-2.854-1.176-2.854-2.926c0-1.751,1.032-3.13,2.723-3.13
		c1.895,0,2.399,1.667,2.399,2.734c0,0.217-0.024,0.385-0.036,0.492H95.167z M98.261,31.15c0.012-0.671-0.276-1.715-1.463-1.715
		c-1.067,0-1.535,0.983-1.619,1.715H98.261z"/>
	<path d="M100.591,30.623c0-0.684-0.012-1.271-0.048-1.811h0.923l0.036,1.139h0.048c0.264-0.779,0.899-1.271,1.607-1.271
		c0.12,0,0.204,0.012,0.3,0.036v0.996c-0.108-0.024-0.216-0.036-0.359-0.036c-0.744,0-1.271,0.564-1.416,1.356
		c-0.024,0.144-0.048,0.311-0.048,0.491v3.095h-1.043V30.623z"/>
	<path d="M108.331,27.145v1.667h1.511v0.803h-1.511v3.131c0,0.719,0.204,1.127,0.792,1.127c0.276,0,0.479-0.036,0.612-0.072
		l0.048,0.792c-0.204,0.084-0.528,0.144-0.936,0.144c-0.492,0-0.888-0.156-1.14-0.443c-0.3-0.312-0.408-0.828-0.408-1.512v-3.166
		h-0.899v-0.803h0.899V27.42L108.331,27.145z"/>
	<path d="M111.031,26.102h1.056v3.622h0.024c0.168-0.3,0.432-0.563,0.755-0.743c0.312-0.18,0.684-0.3,1.08-0.3
		c0.779,0,2.027,0.479,2.027,2.482v3.455h-1.056v-3.334c0-0.936-0.348-1.728-1.343-1.728c-0.684,0-1.223,0.479-1.415,1.055
		c-0.06,0.144-0.072,0.299-0.072,0.504v3.502h-1.056V26.102z"/>
	<path d="M118.278,31.906c0.024,1.428,0.936,2.015,1.991,2.015c0.756,0,1.211-0.132,1.607-0.3l0.18,0.756
		c-0.372,0.168-1.008,0.359-1.931,0.359c-1.787,0-2.854-1.176-2.854-2.926c0-1.751,1.031-3.13,2.723-3.13
		c1.895,0,2.398,1.667,2.398,2.734c0,0.217-0.024,0.385-0.036,0.492H118.278z M121.373,31.15c0.012-0.671-0.276-1.715-1.463-1.715
		c-1.067,0-1.535,0.983-1.619,1.715H121.373z"/>
	<path d="M123.704,30.383c0-0.6-0.013-1.091-0.049-1.571h0.936l0.061,0.959h0.023c0.288-0.552,0.96-1.091,1.919-1.091
		c0.804,0,2.051,0.479,2.051,2.47v3.467h-1.055v-3.347c0-0.936-0.348-1.715-1.344-1.715c-0.695,0-1.235,0.492-1.415,1.079
		c-0.048,0.132-0.072,0.312-0.072,0.492v3.49h-1.055V30.383z"/>
	<path d="M132.907,30.383c0-0.6-0.013-1.091-0.049-1.571h0.936l0.061,0.959h0.023c0.288-0.552,0.96-1.091,1.919-1.091
		c0.804,0,2.051,0.479,2.051,2.47v3.467h-1.055v-3.347c0-0.936-0.348-1.715-1.344-1.715c-0.695,0-1.235,0.492-1.415,1.079
		c-0.048,0.132-0.072,0.312-0.072,0.492v3.49h-1.055V30.383z"/>
	<path d="M144.82,31.666c0,2.146-1.487,3.082-2.891,3.082c-1.571,0-2.782-1.15-2.782-2.986c0-1.942,1.271-3.082,2.878-3.082
		C143.692,28.68,144.82,29.891,144.82,31.666z M140.214,31.727c0,1.271,0.731,2.23,1.763,2.23c1.008,0,1.763-0.947,1.763-2.255
		c0-0.983-0.491-2.23-1.738-2.23C140.753,29.472,140.214,30.623,140.214,31.727z"/>
	<path d="M147.425,27.145v1.667h1.512v0.803h-1.512v3.131c0,0.719,0.204,1.127,0.792,1.127c0.275,0,0.479-0.036,0.611-0.072
		l0.048,0.792c-0.203,0.084-0.527,0.144-0.936,0.144c-0.491,0-0.887-0.156-1.139-0.443c-0.3-0.312-0.408-0.828-0.408-1.512v-3.166
		h-0.899v-0.803h0.899V27.42L147.425,27.145z"/>
	<path d="M151.301,27.181c0.012,0.36-0.252,0.648-0.672,0.648c-0.371,0-0.636-0.288-0.636-0.648c0-0.372,0.276-0.66,0.66-0.66
		C151.049,26.521,151.301,26.809,151.301,27.181z M150.126,34.617v-5.805h1.055v5.805H150.126z"/>
	<path d="M153.042,34.617v-5.002h-0.815v-0.803h0.815v-0.276c0-0.815,0.18-1.559,0.672-2.027c0.396-0.384,0.923-0.54,1.415-0.54
		c0.372,0,0.695,0.084,0.899,0.168l-0.144,0.816c-0.156-0.072-0.372-0.132-0.672-0.132c-0.899,0-1.127,0.792-1.127,1.679v0.312
		h1.402v0.803h-1.402v5.002H153.042z"/>
	<path d="M156.823,28.812l1.271,3.43c0.132,0.384,0.276,0.84,0.372,1.188h0.024c0.107-0.348,0.228-0.792,0.371-1.211l1.151-3.407
		h1.116l-1.583,4.137c-0.755,1.991-1.271,3.011-1.99,3.635c-0.516,0.455-1.031,0.635-1.296,0.684l-0.264-0.888
		c0.264-0.084,0.611-0.252,0.924-0.517c0.288-0.227,0.647-0.635,0.888-1.175c0.048-0.108,0.084-0.192,0.084-0.251
		c0-0.061-0.024-0.145-0.072-0.276l-2.146-5.349H156.823z"/>
	<path d="M165.905,27.145v1.667h1.512v0.803h-1.512v3.131c0,0.719,0.203,1.127,0.791,1.127c0.275,0,0.48-0.036,0.611-0.072
		l0.049,0.792c-0.203,0.084-0.527,0.144-0.936,0.144c-0.492,0-0.887-0.156-1.139-0.443c-0.301-0.312-0.408-0.828-0.408-1.512v-3.166
		h-0.9v-0.803h0.9V27.42L165.905,27.145z"/>
	<path d="M168.606,26.102h1.055v3.622h0.023c0.168-0.3,0.432-0.563,0.756-0.743c0.312-0.18,0.684-0.3,1.08-0.3
		c0.779,0,2.025,0.479,2.025,2.482v3.455h-1.055v-3.334c0-0.936-0.348-1.728-1.344-1.728c-0.684,0-1.223,0.479-1.414,1.055
		c-0.061,0.144-0.072,0.299-0.072,0.504v3.502h-1.055V26.102z"/>
	<path d="M175.853,31.906c0.025,1.428,0.936,2.015,1.992,2.015c0.756,0,1.211-0.132,1.607-0.3l0.18,0.756
		c-0.373,0.168-1.008,0.359-1.932,0.359c-1.787,0-2.854-1.176-2.854-2.926c0-1.751,1.031-3.13,2.723-3.13
		c1.895,0,2.398,1.667,2.398,2.734c0,0.217-0.025,0.385-0.037,0.492H175.853z M178.948,31.15c0.012-0.671-0.277-1.715-1.463-1.715
		c-1.068,0-1.535,0.983-1.619,1.715H178.948z"/>
	<path d="M187.036,34.617l-0.084-0.732h-0.037c-0.324,0.456-0.947,0.863-1.775,0.863c-1.174,0-1.773-0.827-1.773-1.666
		c0-1.404,1.246-2.172,3.49-2.159v-0.12c0-0.479-0.133-1.343-1.32-1.343c-0.539,0-1.104,0.168-1.512,0.432l-0.238-0.695
		c0.479-0.312,1.174-0.516,1.906-0.516c1.775,0,2.207,1.211,2.207,2.375v2.171c0,0.503,0.023,0.995,0.096,1.392H187.036z
		 M186.88,31.654c-1.152-0.023-2.459,0.18-2.459,1.307c0,0.684,0.455,1.008,0.996,1.008c0.756,0,1.234-0.479,1.402-0.971
		c0.037-0.108,0.061-0.229,0.061-0.336V31.654z"/>
	<path d="M194.618,26.102v7.016c0,0.516,0.012,1.104,0.049,1.5h-0.947l-0.049-1.008h-0.023c-0.324,0.647-1.031,1.139-1.979,1.139
		c-1.404,0-2.482-1.188-2.482-2.949c-0.014-1.932,1.188-3.119,2.602-3.119c0.889,0,1.488,0.419,1.752,0.887h0.023v-3.466H194.618z
		 M193.563,31.175c0-0.132-0.012-0.312-0.049-0.444c-0.154-0.671-0.73-1.223-1.523-1.223c-1.09,0-1.738,0.959-1.738,2.243
		c0,1.176,0.576,2.146,1.715,2.146c0.709,0,1.355-0.467,1.547-1.259c0.037-0.144,0.049-0.288,0.049-0.456V31.175z"/>
	<path d="M196.374,30.383c0-0.6-0.014-1.091-0.049-1.571h0.924l0.047,0.936h0.037c0.324-0.552,0.863-1.067,1.822-1.067
		c0.791,0,1.391,0.479,1.643,1.163h0.025c0.18-0.324,0.406-0.576,0.646-0.755c0.348-0.264,0.732-0.408,1.283-0.408
		c0.768,0,1.908,0.503,1.908,2.519v3.418h-1.031V31.33c0-1.115-0.408-1.787-1.26-1.787c-0.6,0-1.068,0.444-1.248,0.959
		c-0.047,0.144-0.084,0.336-0.084,0.528v3.586h-1.031v-3.479c0-0.923-0.408-1.595-1.211-1.595c-0.66,0-1.139,0.528-1.307,1.056
		c-0.061,0.156-0.084,0.335-0.084,0.516v3.502h-1.031V30.383z"/>
	<path d="M207.558,27.181c0.012,0.36-0.252,0.648-0.672,0.648c-0.371,0-0.637-0.288-0.637-0.648c0-0.372,0.277-0.66,0.66-0.66
		C207.306,26.521,207.558,26.809,207.558,27.181z M206.382,34.617v-5.805h1.055v5.805H206.382z"/>
	<path d="M209.19,30.383c0-0.6-0.014-1.091-0.049-1.571h0.936l0.061,0.959h0.023c0.287-0.552,0.959-1.091,1.918-1.091
		c0.805,0,2.051,0.479,2.051,2.47v3.467h-1.055v-3.347c0-0.936-0.348-1.715-1.344-1.715c-0.695,0-1.234,0.492-1.414,1.079
		c-0.049,0.132-0.072,0.312-0.072,0.492v3.49h-1.055V30.383z"/>
	<path d="M221.608,34.617l-0.084-0.732h-0.037c-0.324,0.456-0.947,0.863-1.775,0.863c-1.174,0-1.773-0.827-1.773-1.666
		c0-1.404,1.246-2.172,3.49-2.159v-0.12c0-0.479-0.133-1.343-1.32-1.343c-0.539,0-1.104,0.168-1.512,0.432l-0.238-0.695
		c0.479-0.312,1.174-0.516,1.906-0.516c1.775,0,2.207,1.211,2.207,2.375v2.171c0,0.503,0.023,0.995,0.096,1.392H221.608z
		 M221.452,31.654c-1.152-0.023-2.459,0.18-2.459,1.307c0,0.684,0.455,1.008,0.996,1.008c0.756,0,1.234-0.479,1.402-0.971
		c0.037-0.108,0.061-0.229,0.061-0.336V31.654z"/>
	<path d="M224.177,30.383c0-0.6-0.012-1.091-0.049-1.571h0.936l0.061,0.959h0.023c0.289-0.552,0.961-1.091,1.92-1.091
		c0.803,0,2.051,0.479,2.051,2.47v3.467h-1.055v-3.347c0-0.936-0.35-1.715-1.344-1.715c-0.695,0-1.236,0.492-1.416,1.079
		c-0.047,0.132-0.072,0.312-0.072,0.492v3.49h-1.055V30.383z"/>
	<path d="M235.851,26.102v7.016c0,0.516,0.012,1.104,0.047,1.5h-0.947l-0.047-1.008h-0.025c-0.322,0.647-1.031,1.139-1.979,1.139
		c-1.402,0-2.482-1.188-2.482-2.949c-0.012-1.932,1.188-3.119,2.604-3.119c0.887,0,1.486,0.419,1.75,0.887h0.023v-3.466H235.851z
		 M234.794,31.175c0-0.132-0.012-0.312-0.047-0.444c-0.156-0.671-0.732-1.223-1.523-1.223c-1.092,0-1.738,0.959-1.738,2.243
		c0,1.176,0.574,2.146,1.715,2.146c0.707,0,1.355-0.467,1.547-1.259c0.035-0.144,0.047-0.288,0.047-0.456V31.175z"/>
	<path d="M240.101,34.617c0.023-0.396,0.049-0.984,0.049-1.5v-7.016h1.043v3.646h0.023c0.371-0.648,1.043-1.067,1.979-1.067
		c1.439,0,2.459,1.199,2.447,2.962c0,2.074-1.307,3.105-2.604,3.105c-0.838,0-1.51-0.323-1.941-1.091h-0.037l-0.047,0.96H240.101z
		 M241.192,32.29c0,0.132,0.023,0.264,0.047,0.384c0.205,0.731,0.816,1.235,1.584,1.235c1.104,0,1.764-0.899,1.764-2.231
		c0-1.163-0.6-2.158-1.729-2.158c-0.719,0-1.391,0.492-1.607,1.295c-0.023,0.12-0.059,0.264-0.059,0.432V32.29z"/>
	<path d="M251.833,33.033c0,0.6,0.014,1.128,0.049,1.584h-0.936l-0.061-0.947h-0.023c-0.275,0.467-0.887,1.078-1.918,1.078
		c-0.912,0-2.004-0.503-2.004-2.542v-3.394h1.055v3.213c0,1.104,0.336,1.848,1.297,1.848c0.707,0,1.199-0.492,1.391-0.959
		c0.061-0.156,0.096-0.348,0.096-0.54v-3.562h1.055V33.033z"/>
	<path d="M254.765,27.181c0.012,0.36-0.252,0.648-0.672,0.648c-0.371,0-0.637-0.288-0.637-0.648c0-0.372,0.277-0.66,0.66-0.66
		C254.513,26.521,254.765,26.809,254.765,27.181z M253.589,34.617v-5.805h1.055v5.805H253.589z"/>
	<path d="M256.397,26.102h1.055v8.516h-1.055V26.102z"/>
	<path d="M264.241,26.102v7.016c0,0.516,0.012,1.104,0.049,1.5h-0.947l-0.049-1.008h-0.023c-0.324,0.647-1.031,1.139-1.979,1.139
		c-1.404,0-2.482-1.188-2.482-2.949c-0.014-1.932,1.188-3.119,2.602-3.119c0.889,0,1.488,0.419,1.752,0.887h0.023v-3.466H264.241z
		 M263.187,31.175c0-0.132-0.012-0.312-0.049-0.444c-0.154-0.671-0.73-1.223-1.523-1.223c-1.09,0-1.738,0.959-1.738,2.243
		c0,1.176,0.576,2.146,1.715,2.146c0.709,0,1.355-0.467,1.547-1.259c0.037-0.144,0.049-0.288,0.049-0.456V31.175z"/>
	<path d="M269.812,27.145v1.667h1.512v0.803h-1.512v3.131c0,0.719,0.203,1.127,0.791,1.127c0.275,0,0.48-0.036,0.611-0.072
		l0.049,0.792c-0.203,0.084-0.527,0.144-0.936,0.144c-0.492,0-0.887-0.156-1.139-0.443c-0.301-0.312-0.408-0.828-0.408-1.512v-3.166
		h-0.9v-0.803h0.9V27.42L269.812,27.145z"/>
	<path d="M272.513,26.102h1.055v3.622h0.023c0.168-0.3,0.432-0.563,0.756-0.743c0.312-0.18,0.684-0.3,1.08-0.3
		c0.779,0,2.025,0.479,2.025,2.482v3.455h-1.055v-3.334c0-0.936-0.348-1.728-1.344-1.728c-0.684,0-1.223,0.479-1.414,1.055
		c-0.061,0.144-0.072,0.299-0.072,0.504v3.502h-1.055V26.102z"/>
	<path d="M279.759,31.906c0.025,1.428,0.936,2.015,1.992,2.015c0.756,0,1.211-0.132,1.607-0.3l0.18,0.756
		c-0.373,0.168-1.008,0.359-1.932,0.359c-1.787,0-2.854-1.176-2.854-2.926c0-1.751,1.031-3.13,2.723-3.13
		c1.895,0,2.398,1.667,2.398,2.734c0,0.217-0.025,0.385-0.037,0.492H279.759z M282.854,31.15c0.012-0.671-0.277-1.715-1.463-1.715
		c-1.068,0-1.535,0.983-1.619,1.715H282.854z"/>
	<path d="M288.903,27.181c0.012,0.36-0.252,0.648-0.672,0.648c-0.371,0-0.637-0.288-0.637-0.648c0-0.372,0.277-0.66,0.66-0.66
		C288.651,26.521,288.903,26.809,288.903,27.181z M287.728,34.617v-5.805h1.055v5.805H287.728z"/>
	<path d="M290.536,30.383c0-0.6-0.012-1.091-0.049-1.571h0.936l0.061,0.959h0.023c0.289-0.552,0.961-1.091,1.92-1.091
		c0.803,0,2.051,0.479,2.051,2.47v3.467h-1.055v-3.347c0-0.936-0.35-1.715-1.344-1.715c-0.695,0-1.236,0.492-1.416,1.079
		c-0.047,0.132-0.072,0.312-0.072,0.492v3.49h-1.055V30.383z"/>
	<path d="M297.448,28.812l1.139,3.262c0.191,0.527,0.348,1.008,0.469,1.486h0.035c0.133-0.479,0.301-0.959,0.492-1.486l1.127-3.262
		h1.104l-2.279,5.805h-1.008l-2.205-5.805H297.448z"/>
	<path d="M307.944,31.666c0,2.146-1.486,3.082-2.891,3.082c-1.57,0-2.781-1.15-2.781-2.986c0-1.942,1.27-3.082,2.877-3.082
		C306.817,28.68,307.944,29.891,307.944,31.666z M303.339,31.727c0,1.271,0.732,2.23,1.764,2.23c1.008,0,1.762-0.947,1.762-2.255
		c0-0.983-0.49-2.23-1.738-2.23S303.339,30.623,303.339,31.727z"/>
	<path d="M310.454,27.181c0.012,0.36-0.252,0.648-0.672,0.648c-0.371,0-0.635-0.288-0.635-0.648c0-0.372,0.275-0.66,0.66-0.66
		C310.202,26.521,310.454,26.809,310.454,27.181z M309.28,34.617v-5.805h1.055v5.805H309.28z"/>
	<path d="M316.226,34.4c-0.275,0.145-0.887,0.336-1.668,0.336c-1.75,0-2.889-1.188-2.889-2.962c0-1.787,1.223-3.083,3.117-3.083
		c0.623,0,1.176,0.156,1.463,0.3l-0.24,0.815c-0.25-0.144-0.646-0.275-1.223-0.275c-1.33,0-2.051,0.983-2.051,2.195
		c0,1.343,0.863,2.17,2.016,2.17c0.6,0,0.994-0.155,1.295-0.287L316.226,34.4z"/>
	<path d="M317.979,31.906c0.023,1.428,0.936,2.015,1.99,2.015c0.756,0,1.211-0.132,1.607-0.3l0.18,0.756
		c-0.371,0.168-1.008,0.359-1.93,0.359c-1.787,0-2.855-1.176-2.855-2.926c0-1.751,1.031-3.13,2.723-3.13
		c1.895,0,2.398,1.667,2.398,2.734c0,0.217-0.023,0.385-0.035,0.492H317.979z M321.073,31.15c0.012-0.671-0.275-1.715-1.463-1.715
		c-1.066,0-1.535,0.983-1.619,1.715H321.073z"/>
</g>
<rect x="27.501" y="18.356" fill="none" stroke="#000000" stroke-miterlimit="10" width="303.334" height="25.333"/>
<g id="Calque_2" display="none">
	<g display="inline">
		<g>
			<path d="M13.108,26.828h2.412c0.432,0,0.828,0.04,1.188,0.12c0.36,0.08,0.666,0.21,0.918,0.391
				c0.252,0.18,0.448,0.418,0.588,0.713c0.14,0.297,0.21,0.66,0.21,1.092c0,0.416-0.07,0.777-0.21,1.08
				c-0.14,0.305-0.338,0.557-0.594,0.756c-0.256,0.201-0.562,0.351-0.918,0.451c-0.356,0.101-0.75,0.149-1.182,0.149h-1.416v3.12
				h-0.996V26.828z M15.4,30.765c0.688,0,1.198-0.131,1.53-0.391s0.498-0.67,0.498-1.23c0-0.567-0.168-0.961-0.504-1.182
				c-0.336-0.22-0.844-0.33-1.524-0.33h-1.296v3.133H15.4z"/>
			<path d="M19.924,26.156h0.984v7.44c0,0.159,0.028,0.271,0.084,0.336c0.056,0.062,0.12,0.096,0.192,0.096c0.032,0,0.062,0,0.09,0
				s0.07-0.008,0.126-0.023l0.132,0.743c-0.064,0.032-0.14,0.056-0.228,0.071c-0.088,0.017-0.2,0.024-0.336,0.024
				c-0.376,0-0.644-0.112-0.804-0.336c-0.16-0.225-0.24-0.553-0.24-0.983V26.156z"/>
			<path d="M22.696,33.188c0-0.642,0.286-1.131,0.858-1.472c0.572-0.34,1.482-0.578,2.73-0.713c0-0.185-0.018-0.365-0.054-0.541
				c-0.036-0.176-0.1-0.332-0.192-0.468c-0.092-0.136-0.214-0.246-0.366-0.33c-0.152-0.084-0.348-0.126-0.588-0.126
				c-0.344,0-0.662,0.064-0.954,0.192s-0.554,0.272-0.786,0.432l-0.396-0.685c0.271-0.176,0.604-0.346,0.996-0.51
				c0.392-0.164,0.824-0.246,1.296-0.246c0.712,0,1.228,0.219,1.548,0.654c0.32,0.437,0.48,1.019,0.48,1.746V34.7h-0.816
				l-0.084-0.695h-0.024c-0.28,0.23-0.582,0.43-0.906,0.594s-0.666,0.246-1.026,0.246c-0.496,0-0.906-0.145-1.23-0.433
				C22.858,34.124,22.696,33.716,22.696,33.188z M23.668,33.116c0,0.336,0.098,0.576,0.294,0.721
				c0.196,0.143,0.438,0.215,0.726,0.215c0.28,0,0.546-0.064,0.798-0.197s0.518-0.326,0.798-0.582v-1.619
				c-0.488,0.062-0.9,0.14-1.236,0.228s-0.606,0.192-0.81,0.312c-0.204,0.119-0.35,0.259-0.438,0.414
				C23.712,32.763,23.668,32.933,23.668,33.116z"/>
			<path d="M28.696,31.796c0-0.488,0.076-0.922,0.228-1.302c0.152-0.38,0.356-0.702,0.612-0.966c0.256-0.264,0.554-0.464,0.894-0.6
				c0.34-0.137,0.698-0.205,1.074-0.205c0.384,0,0.714,0.07,0.99,0.211c0.276,0.14,0.514,0.302,0.714,0.486l-0.492,0.635
				c-0.176-0.151-0.358-0.275-0.546-0.371c-0.188-0.096-0.398-0.145-0.63-0.145c-0.264,0-0.508,0.055-0.732,0.162
				c-0.224,0.107-0.416,0.262-0.576,0.462c-0.16,0.2-0.286,0.438-0.378,0.714s-0.138,0.582-0.138,0.918s0.044,0.642,0.132,0.912
				c0.088,0.272,0.21,0.506,0.366,0.702c0.156,0.195,0.346,0.349,0.57,0.456c0.224,0.106,0.468,0.161,0.732,0.161
				c0.28,0,0.534-0.059,0.762-0.174s0.43-0.254,0.606-0.414l0.444,0.648c-0.264,0.23-0.558,0.416-0.882,0.551
				c-0.324,0.137-0.662,0.205-1.014,0.205c-0.384,0-0.744-0.068-1.08-0.205c-0.336-0.135-0.626-0.334-0.87-0.594
				s-0.436-0.58-0.576-0.959C28.767,32.706,28.696,32.276,28.696,31.796z"/>
			<path d="M33.916,31.796c0-0.479,0.074-0.91,0.222-1.289c0.148-0.381,0.344-0.703,0.588-0.967s0.522-0.466,0.834-0.605
				c0.312-0.141,0.636-0.211,0.972-0.211c0.368,0,0.698,0.064,0.99,0.192s0.536,0.312,0.732,0.552
				c0.196,0.24,0.346,0.528,0.45,0.864s0.156,0.712,0.156,1.128c0,0.217-0.012,0.396-0.036,0.54h-3.936
				c0.04,0.632,0.234,1.132,0.582,1.5c0.348,0.368,0.802,0.552,1.362,0.552c0.28,0,0.538-0.041,0.774-0.125s0.462-0.193,0.678-0.33
				l0.348,0.647c-0.256,0.159-0.54,0.3-0.852,0.42s-0.668,0.181-1.068,0.181c-0.392,0-0.758-0.07-1.098-0.211
				c-0.34-0.14-0.636-0.34-0.888-0.6s-0.45-0.578-0.594-0.954S33.916,32.276,33.916,31.796z M37.996,31.353
				c0-0.601-0.126-1.059-0.378-1.375c-0.252-0.315-0.606-0.473-1.062-0.473c-0.208,0-0.406,0.041-0.594,0.125
				s-0.358,0.204-0.51,0.36c-0.152,0.155-0.278,0.349-0.378,0.576c-0.1,0.227-0.166,0.489-0.198,0.787H37.996L37.996,31.353z"/>
			<path d="M42.436,33.188c0-0.642,0.286-1.131,0.858-1.472c0.572-0.34,1.482-0.578,2.73-0.713c0-0.185-0.018-0.365-0.054-0.541
				c-0.036-0.176-0.1-0.332-0.192-0.468c-0.092-0.136-0.214-0.246-0.366-0.33c-0.152-0.084-0.348-0.126-0.588-0.126
				c-0.344,0-0.662,0.064-0.954,0.192s-0.554,0.272-0.786,0.432l-0.396-0.685c0.271-0.176,0.604-0.346,0.996-0.51
				c0.392-0.164,0.824-0.246,1.296-0.246c0.712,0,1.228,0.219,1.548,0.654c0.32,0.437,0.48,1.019,0.48,1.746V34.7h-0.816
				l-0.084-0.695h-0.024c-0.28,0.23-0.582,0.43-0.906,0.594c-0.324,0.164-0.666,0.246-1.026,0.246c-0.496,0-0.906-0.145-1.23-0.433
				C42.598,34.124,42.436,33.716,42.436,33.188z M43.408,33.116c0,0.336,0.098,0.576,0.294,0.721
				c0.196,0.143,0.438,0.215,0.726,0.215c0.28,0,0.546-0.064,0.798-0.197s0.518-0.326,0.798-0.582v-1.619
				c-0.488,0.062-0.9,0.14-1.236,0.228s-0.606,0.192-0.81,0.312s-0.35,0.259-0.438,0.414C43.452,32.763,43.408,32.933,43.408,33.116
				z"/>
			<path d="M48.868,28.868h0.816l0.084,0.84h0.036c0.28-0.279,0.574-0.514,0.882-0.701c0.308-0.188,0.666-0.283,1.074-0.283
				c0.616,0,1.066,0.192,1.35,0.576c0.284,0.385,0.426,0.953,0.426,1.705V34.7h-0.984v-3.564c0-0.552-0.088-0.949-0.264-1.193
				c-0.176-0.244-0.456-0.366-0.84-0.366c-0.304,0-0.572,0.076-0.804,0.228c-0.232,0.152-0.496,0.377-0.792,0.672V34.7h-0.984
				V28.868z"/>
			<path d="M55.012,31.796c0-0.472,0.07-0.897,0.21-1.277c0.14-0.381,0.326-0.702,0.558-0.967c0.232-0.264,0.5-0.468,0.804-0.611
				c0.304-0.145,0.624-0.217,0.96-0.217s0.628,0.061,0.876,0.181c0.248,0.12,0.5,0.284,0.756,0.491L59.128,28.4v-2.244h0.996V34.7
				h-0.816l-0.084-0.684h-0.036c-0.232,0.224-0.498,0.418-0.798,0.582c-0.3,0.164-0.622,0.245-0.966,0.245
				c-0.736,0-1.322-0.265-1.758-0.793C55.229,33.524,55.012,32.772,55.012,31.796z M56.032,31.784c0,0.703,0.14,1.252,0.42,1.645
				c0.28,0.393,0.676,0.588,1.188,0.588c0.272,0,0.528-0.065,0.768-0.197c0.24-0.133,0.48-0.334,0.72-0.606v-3.048
				c-0.248-0.224-0.486-0.382-0.714-0.474c-0.228-0.092-0.462-0.139-0.702-0.139c-0.232,0-0.45,0.055-0.654,0.162
				c-0.204,0.108-0.382,0.26-0.534,0.457c-0.152,0.195-0.272,0.43-0.36,0.701S56.032,31.448,56.032,31.784z"/>
			<path d="M64.083,31.796c0-0.488,0.074-0.922,0.222-1.302s0.346-0.702,0.594-0.966c0.248-0.264,0.534-0.464,0.858-0.6
				c0.324-0.137,0.666-0.205,1.026-0.205c0.36,0,0.702,0.068,1.026,0.205c0.324,0.136,0.61,0.336,0.858,0.6
				c0.248,0.264,0.446,0.586,0.594,0.966c0.148,0.38,0.222,0.813,0.222,1.302c0,0.48-0.074,0.91-0.222,1.291
				c-0.148,0.379-0.346,0.699-0.594,0.959c-0.249,0.26-0.534,0.459-0.858,0.594c-0.324,0.137-0.666,0.205-1.026,0.205
				c-0.36,0-0.702-0.068-1.026-0.205c-0.324-0.135-0.61-0.334-0.858-0.594s-0.446-0.58-0.594-0.959
				C64.157,32.706,64.083,32.276,64.083,31.796z M65.103,31.796c0,0.336,0.04,0.641,0.12,0.912s0.194,0.506,0.342,0.702
				s0.326,0.349,0.534,0.456s0.436,0.162,0.684,0.162c0.248,0,0.476-0.055,0.684-0.162s0.386-0.26,0.534-0.456
				s0.262-0.431,0.342-0.702c0.08-0.271,0.12-0.576,0.12-0.912s-0.04-0.642-0.12-0.918c-0.08-0.275-0.194-0.514-0.342-0.714
				s-0.326-0.354-0.534-0.462c-0.208-0.108-0.436-0.162-0.684-0.162c-0.248,0-0.476,0.055-0.684,0.162s-0.386,0.262-0.534,0.462
				s-0.262,0.438-0.342,0.714S65.103,31.46,65.103,31.796z"/>
			<path d="M71.019,28.868h0.816l0.084,1.057h0.036c0.2-0.369,0.442-0.66,0.726-0.877c0.284-0.216,0.594-0.324,0.93-0.324
				c0.232,0,0.44,0.041,0.624,0.121l-0.192,0.863c-0.096-0.031-0.184-0.056-0.264-0.072c-0.08-0.016-0.18-0.023-0.3-0.023
				c-0.248,0-0.506,0.1-0.774,0.3c-0.268,0.2-0.502,0.548-0.702,1.044V34.7h-0.984V28.868z"/>
			<path d="M74.643,31.796c0-0.472,0.07-0.897,0.21-1.277c0.14-0.381,0.326-0.702,0.558-0.967c0.232-0.264,0.5-0.468,0.804-0.611
				c0.304-0.145,0.624-0.217,0.96-0.217c0.336,0,0.628,0.061,0.876,0.181c0.248,0.12,0.5,0.284,0.756,0.491L78.759,28.4v-2.244
				h0.996V34.7h-0.816l-0.084-0.684h-0.036c-0.232,0.224-0.498,0.418-0.798,0.582s-0.622,0.245-0.966,0.245
				c-0.736,0-1.322-0.265-1.758-0.793C74.861,33.524,74.643,32.772,74.643,31.796z M75.663,31.784c0,0.703,0.14,1.252,0.42,1.645
				s0.676,0.588,1.188,0.588c0.272,0,0.528-0.065,0.768-0.197c0.24-0.133,0.48-0.334,0.72-0.606v-3.048
				c-0.248-0.224-0.486-0.382-0.714-0.474c-0.228-0.092-0.462-0.139-0.702-0.139c-0.232,0-0.45,0.055-0.654,0.162
				c-0.204,0.108-0.382,0.26-0.534,0.457c-0.152,0.195-0.272,0.43-0.36,0.701S75.663,31.448,75.663,31.784z"/>
			<path d="M81.291,31.796c0-0.479,0.074-0.91,0.222-1.289c0.148-0.381,0.344-0.703,0.588-0.967s0.522-0.466,0.834-0.605
				c0.312-0.141,0.636-0.211,0.972-0.211c0.368,0,0.698,0.064,0.99,0.192s0.536,0.312,0.732,0.552
				c0.196,0.24,0.346,0.528,0.45,0.864s0.156,0.712,0.156,1.128c0,0.217-0.012,0.396-0.036,0.54h-3.936
				c0.04,0.632,0.234,1.132,0.582,1.5c0.348,0.368,0.802,0.552,1.362,0.552c0.28,0,0.538-0.041,0.774-0.125s0.462-0.193,0.678-0.33
				l0.348,0.647c-0.256,0.159-0.54,0.3-0.852,0.42s-0.668,0.181-1.068,0.181c-0.392,0-0.758-0.07-1.098-0.211
				c-0.34-0.14-0.636-0.34-0.888-0.6s-0.45-0.578-0.594-0.954S81.291,32.276,81.291,31.796z M85.371,31.353
				c0-0.601-0.126-1.059-0.378-1.375c-0.252-0.315-0.606-0.473-1.062-0.473c-0.208,0-0.406,0.041-0.594,0.125
				s-0.358,0.204-0.51,0.36c-0.152,0.155-0.278,0.349-0.378,0.576c-0.1,0.227-0.166,0.489-0.198,0.787H85.371L85.371,31.353z"/>
			<path d="M87.675,28.868h0.816l0.084,1.057h0.036c0.2-0.369,0.442-0.66,0.726-0.877c0.284-0.216,0.594-0.324,0.93-0.324
				c0.232,0,0.44,0.041,0.624,0.121l-0.192,0.863c-0.096-0.031-0.184-0.056-0.264-0.072c-0.08-0.016-0.18-0.023-0.3-0.023
				c-0.248,0-0.506,0.1-0.774,0.3c-0.268,0.2-0.502,0.548-0.702,1.044V34.7h-0.984V28.868z"/>
		</g>
		<rect x="2" y="15.5" fill="none" stroke="#414042" stroke-miterlimit="10" width="100" height="30"/>
	</g>
	<g display="inline">
		<g>
			<path d="M231.976,25.244h1.032l2.845,4.943l0.852,1.632h0.049c-0.023-0.399-0.051-0.813-0.078-1.241
				c-0.027-0.428-0.042-0.85-0.042-1.266v-4.068h0.947v7.873h-1.031l-2.856-4.957l-0.852-1.619h-0.048
				c0.031,0.4,0.062,0.805,0.09,1.217c0.027,0.412,0.042,0.826,0.042,1.242v4.117h-0.947v-7.873H231.976z"/>
			<path d="M239.211,30.213c0-0.488,0.074-0.922,0.224-1.303c0.146-0.379,0.346-0.701,0.594-0.965
				c0.248-0.266,0.533-0.465,0.856-0.602c0.324-0.135,0.666-0.203,1.026-0.203c0.359,0,0.701,0.068,1.025,0.203
				c0.323,0.137,0.609,0.336,0.857,0.602c0.248,0.264,0.446,0.586,0.596,0.965c0.146,0.381,0.221,0.814,0.221,1.303
				c0,0.48-0.073,0.91-0.221,1.289c-0.148,0.381-0.348,0.701-0.596,0.961c-0.248,0.261-0.534,0.457-0.857,0.595
				c-0.324,0.137-0.666,0.202-1.025,0.202c-0.36,0-0.702-0.065-1.026-0.202c-0.323-0.138-0.608-0.334-0.856-0.595
				c-0.248-0.26-0.446-0.58-0.594-0.961C239.286,31.123,239.211,30.693,239.211,30.213z M240.231,30.213
				c0,0.336,0.041,0.641,0.121,0.912c0.078,0.271,0.192,0.506,0.342,0.701c0.146,0.196,0.326,0.348,0.533,0.457
				c0.209,0.106,0.437,0.161,0.685,0.161s0.476-0.055,0.685-0.161c0.207-0.109,0.387-0.261,0.533-0.457
				c0.148-0.195,0.264-0.431,0.342-0.701c0.08-0.271,0.12-0.576,0.12-0.912s-0.04-0.643-0.12-0.918
				c-0.078-0.277-0.193-0.514-0.342-0.715c-0.146-0.199-0.326-0.354-0.533-0.461c-0.209-0.109-0.437-0.162-0.685-0.162
				s-0.476,0.053-0.685,0.162c-0.207,0.107-0.387,0.262-0.533,0.461c-0.148,0.201-0.264,0.438-0.342,0.715
				C240.272,29.57,240.231,29.877,240.231,30.213z"/>
			<path d="M246.315,28.088h-0.863v-0.744l0.912-0.059l0.119-1.633h0.828v1.633h1.571v0.803h-1.571v3.24
				c0,0.358,0.065,0.639,0.197,0.834c0.133,0.196,0.366,0.295,0.702,0.295c0.104,0,0.216-0.017,0.336-0.049
				c0.12-0.031,0.229-0.068,0.324-0.107l0.192,0.744c-0.16,0.056-0.336,0.104-0.522,0.149c-0.188,0.043-0.374,0.064-0.558,0.064
				c-0.312,0-0.574-0.047-0.787-0.143c-0.211-0.098-0.383-0.229-0.516-0.396s-0.227-0.373-0.281-0.611
				c-0.058-0.239-0.084-0.506-0.084-0.793V28.088L246.315,28.088z"/>
			<path d="M250.708,26.084c-0.191,0-0.354-0.059-0.486-0.18c-0.132-0.119-0.197-0.271-0.197-0.455c0-0.193,0.065-0.348,0.197-0.463
				c0.133-0.115,0.295-0.174,0.486-0.174s0.354,0.059,0.484,0.174c0.134,0.115,0.199,0.27,0.199,0.463
				c0,0.184-0.065,0.336-0.199,0.455C251.062,26.025,250.899,26.084,250.708,26.084z M250.204,27.285h0.982v5.832h-0.982V27.285z"/>
			<path d="M255.784,25.377c-0.217-0.096-0.438-0.145-0.66-0.145c-0.544,0-0.816,0.377-0.816,1.129v0.924h1.236v0.803h-1.236v5.029
				h-0.982v-5.029h-0.792v-0.744l0.792-0.059v-0.924c0-0.602,0.138-1.072,0.414-1.416c0.275-0.346,0.705-0.518,1.289-0.518
				c0.185,0,0.357,0.02,0.521,0.055s0.312,0.082,0.45,0.139L255.784,25.377z"/>
			<path d="M256.479,34.778c0.08,0.021,0.155,0.029,0.229,0.029c0.336,0,0.609-0.119,0.82-0.354c0.213-0.236,0.38-0.535,0.498-0.895
				l0.134-0.433l-2.341-5.844h1.021l1.188,3.227c0.088,0.258,0.183,0.527,0.281,0.812c0.102,0.285,0.194,0.562,0.282,0.834h0.048
				c0.088-0.264,0.172-0.539,0.252-0.828c0.08-0.287,0.16-0.559,0.24-0.816l1.044-3.227h0.96l-2.195,6.311
				c-0.104,0.289-0.221,0.557-0.349,0.805s-0.28,0.463-0.456,0.644s-0.376,0.322-0.6,0.426c-0.225,0.104-0.484,0.156-0.78,0.156
				c-0.136,0-0.26-0.01-0.372-0.031c-0.111-0.02-0.216-0.049-0.312-0.09l0.191-0.778C256.328,34.74,256.399,34.758,256.479,34.778z"
				/>
			<path d="M264.854,28.088h-0.863v-0.744l0.912-0.059l0.119-1.633h0.828v1.633h1.571v0.803h-1.571v3.24
				c0,0.358,0.065,0.639,0.197,0.834c0.133,0.196,0.366,0.295,0.702,0.295c0.104,0,0.216-0.017,0.336-0.049
				c0.12-0.031,0.229-0.068,0.324-0.107l0.192,0.744c-0.16,0.056-0.336,0.104-0.522,0.149c-0.188,0.043-0.374,0.064-0.558,0.064
				c-0.312,0-0.574-0.047-0.787-0.143c-0.211-0.098-0.383-0.229-0.517-0.396c-0.132-0.168-0.226-0.373-0.28-0.611
				c-0.058-0.239-0.084-0.506-0.084-0.793V28.088L264.854,28.088z"/>
			<path d="M268.743,24.572h0.982V26.9l-0.035,1.2c0.279-0.264,0.572-0.488,0.875-0.678c0.306-0.188,0.66-0.281,1.068-0.281
				c0.616,0,1.066,0.191,1.35,0.576c0.285,0.383,0.428,0.951,0.428,1.703v3.697h-0.984v-3.564c0-0.553-0.088-0.949-0.264-1.193
				c-0.178-0.244-0.456-0.367-0.84-0.367c-0.305,0-0.572,0.076-0.805,0.229c-0.231,0.152-0.496,0.375-0.793,0.672v4.225h-0.982
				V24.572z"/>
			<path d="M274.838,30.213c0-0.48,0.074-0.91,0.224-1.291c0.146-0.379,0.344-0.701,0.588-0.965
				c0.242-0.264,0.521-0.467,0.834-0.607c0.312-0.139,0.636-0.209,0.972-0.209c0.368,0,0.698,0.064,0.989,0.191
				c0.293,0.129,0.537,0.312,0.731,0.553c0.196,0.24,0.347,0.527,0.45,0.863s0.156,0.713,0.156,1.129
				c0,0.215-0.012,0.395-0.036,0.539h-3.937c0.039,0.633,0.233,1.133,0.582,1.5c0.349,0.369,0.803,0.553,1.361,0.553
				c0.28,0,0.538-0.043,0.773-0.127s0.463-0.192,0.679-0.329l0.348,0.647c-0.256,0.159-0.54,0.301-0.852,0.42
				c-0.312,0.121-0.668,0.18-1.068,0.18c-0.392,0-0.758-0.069-1.098-0.209c-0.341-0.141-0.636-0.34-0.888-0.6
				c-0.252-0.261-0.451-0.578-0.596-0.955C274.911,31.121,274.838,30.693,274.838,30.213z M278.918,29.768
				c0-0.6-0.126-1.057-0.378-1.373s-0.605-0.475-1.062-0.475c-0.209,0-0.406,0.043-0.595,0.127s-0.356,0.203-0.51,0.359
				c-0.153,0.156-0.278,0.348-0.378,0.576s-0.166,0.49-0.198,0.785L278.918,29.768L278.918,29.768z"/>
			<path d="M283.358,31.604c0-0.64,0.287-1.129,0.858-1.47c0.572-0.34,1.482-0.578,2.73-0.715c0-0.184-0.021-0.363-0.056-0.539
				c-0.035-0.176-0.1-0.332-0.19-0.469c-0.093-0.135-0.216-0.246-0.367-0.33s-0.349-0.125-0.588-0.125
				c-0.345,0-0.662,0.064-0.953,0.191c-0.293,0.129-0.556,0.271-0.787,0.432l-0.396-0.684c0.272-0.176,0.604-0.346,0.998-0.51
				c0.391-0.164,0.822-0.246,1.295-0.246c0.713,0,1.229,0.219,1.549,0.654c0.318,0.436,0.479,1.018,0.479,1.746v3.576h-0.813
				l-0.084-0.697h-0.025c-0.278,0.232-0.581,0.43-0.903,0.594c-0.324,0.164-0.666,0.246-1.027,0.246
				c-0.496,0-0.906-0.143-1.23-0.432C283.521,32.541,283.358,32.133,283.358,31.604z M284.33,31.533
				c0,0.336,0.098,0.575,0.295,0.719c0.194,0.146,0.438,0.217,0.728,0.217c0.278,0,0.545-0.065,0.797-0.198
				c0.252-0.131,0.518-0.324,0.799-0.582v-1.62c-0.488,0.064-0.9,0.141-1.236,0.229s-0.605,0.191-0.811,0.312
				c-0.203,0.119-0.351,0.258-0.438,0.412C284.375,31.179,284.33,31.349,284.33,31.533z"/>
			<path d="M289.371,30.213c0-0.473,0.067-0.898,0.209-1.279c0.142-0.379,0.326-0.701,0.56-0.965c0.229-0.264,0.5-0.469,0.803-0.611
				c0.305-0.145,0.625-0.217,0.961-0.217s0.627,0.061,0.875,0.18c0.248,0.121,0.5,0.285,0.756,0.492l-0.047-0.996v-2.244h0.996
				v8.545h-0.816l-0.084-0.686h-0.035c-0.232,0.225-0.498,0.418-0.799,0.582s-0.621,0.245-0.967,0.245
				c-0.734,0-1.32-0.264-1.758-0.791C289.588,31.94,289.371,31.188,289.371,30.213z M290.392,30.201c0,0.703,0.139,1.252,0.42,1.643
				c0.278,0.394,0.676,0.589,1.188,0.589c0.271,0,0.527-0.064,0.768-0.197c0.241-0.133,0.48-0.334,0.721-0.605v-3.05
				c-0.247-0.223-0.485-0.381-0.715-0.473c-0.227-0.094-0.461-0.139-0.7-0.139c-0.232,0-0.449,0.053-0.654,0.162
				c-0.203,0.107-0.383,0.26-0.532,0.455c-0.152,0.197-0.273,0.43-0.361,0.703C290.435,29.561,290.392,29.865,290.392,30.201z"/>
			<path d="M296.451,27.285h0.813l0.084,0.84h0.037c0.256-0.281,0.533-0.514,0.834-0.703c0.299-0.188,0.625-0.281,0.979-0.281
				c0.446,0,0.797,0.098,1.049,0.293c0.252,0.197,0.438,0.471,0.56,0.822c0.303-0.336,0.608-0.605,0.918-0.809
				c0.307-0.205,0.643-0.307,1.002-0.307c0.6,0,1.045,0.191,1.338,0.576c0.291,0.383,0.438,0.951,0.438,1.703v3.697h-0.984v-3.564
				c0-0.553-0.088-0.949-0.264-1.193c-0.176-0.244-0.447-0.367-0.816-0.367c-0.438,0-0.928,0.301-1.463,0.9v4.225h-0.983v-3.564
				c0-0.553-0.089-0.949-0.265-1.193c-0.176-0.244-0.453-0.367-0.828-0.367c-0.438,0-0.928,0.301-1.465,0.9v4.225h-0.981v-5.833
				H296.451z"/>
			<path d="M306.901,26.084c-0.19,0-0.354-0.059-0.485-0.18c-0.131-0.119-0.196-0.271-0.196-0.455c0-0.193,0.065-0.348,0.196-0.463
				c0.133-0.115,0.295-0.174,0.485-0.174c0.191,0,0.354,0.059,0.486,0.174c0.133,0.115,0.197,0.27,0.197,0.463
				c0,0.184-0.064,0.336-0.197,0.455C307.256,26.025,307.094,26.084,306.901,26.084z M306.397,27.285h0.984v5.832h-0.984V27.285z"/>
			<path d="M309.353,27.285h0.813l0.084,0.84h0.037c0.278-0.281,0.573-0.514,0.881-0.703c0.31-0.188,0.666-0.281,1.074-0.281
				c0.616,0,1.065,0.191,1.35,0.576c0.285,0.383,0.429,0.951,0.429,1.703v3.697h-0.984v-3.564c0-0.553-0.088-0.949-0.264-1.193
				c-0.179-0.244-0.457-0.367-0.84-0.367c-0.306,0-0.572,0.076-0.806,0.229c-0.233,0.153-0.496,0.375-0.793,0.672v4.225h-0.981
				V27.285L309.353,27.285z"/>
		</g>
		<rect x="222.998" y="15.027" fill="none" stroke="#414042" stroke-miterlimit="10" width="100" height="30"/>
	</g>
	<g display="inline">
		<text transform="matrix(1 0 0 1 141.6206 22.0039)" font-family="'SourceSansPro-Regular'" font-size="9.6986">« An order</text>
		<text transform="matrix(1 0 0 1 143.7534 33.6426)" font-family="'SourceSansPro-Regular'" font-size="9.6986">has been</text>
		<text transform="matrix(1 0 0 1 144.2827 45.2812)" font-family="'SourceSansPro-Regular'" font-size="9.6986">placed » </text>
		<circle fill="none" stroke="#333333" stroke-miterlimit="10" cx="162.055" cy="30.5" r="29.5"/>
	</g>
	<path display="inline" fill="#999999" d="M112.614,40.765l5.41-10l-5.41-10h4.59l5.41,10l-5.41,10H112.614z"/>
	<path display="inline" fill="#999999" d="M202.45,40.765l5.41-10l-5.41-10h4.59l5.41,10l-5.41,10H202.45z"/>
</g>
</svg>
