<?xml version="1.0" encoding="utf-8"?>
<!-- Generator: Adobe Illustrator 16.0.0, SVG Export Plug-In . SVG Version: 6.00 Build 0)  -->
<!DOCTYPE svg PUBLIC "-//W3C//DTD SVG 1.1//EN" "http://www.w3.org/Graphics/SVG/1.1/DTD/svg11.dtd">
<svg version="1.1" id="Calque_1" xmlns="http://www.w3.org/2000/svg" xmlns:xlink="http://www.w3.org/1999/xlink" x="0px" y="0px"
	 width="360px" height="80px" viewBox="0 -9.333 360 80" enable-background="new 0 -9.333 360 80" xml:space="preserve">
<g id="Calque_1_1_" display="none">
	<g display="inline">
		<rect x="58.988" y="15.026" fill="none" stroke="#414042" stroke-miterlimit="10" width="200" height="30"/>
		<g>
			<path d="M68.816,25.245h2.412c0.432,0,0.827,0.04,1.188,0.12c0.361,0.08,0.666,0.21,0.918,0.39
				c0.252,0.18,0.448,0.418,0.588,0.714c0.14,0.296,0.21,0.66,0.21,1.092c0,0.416-0.07,0.776-0.21,1.08
				c-0.14,0.304-0.338,0.556-0.594,0.756c-0.256,0.2-0.562,0.35-0.918,0.45c-0.356,0.1-0.75,0.15-1.182,0.15h-1.416v3.12h-0.996
				V25.245z M71.108,29.181c0.688,0,1.197-0.13,1.529-0.39s0.498-0.67,0.498-1.23c0-0.568-0.168-0.962-0.504-1.182
				c-0.336-0.22-0.844-0.33-1.523-0.33h-1.296v3.132H71.108z"/>
			<path d="M75.632,24.573h0.984v7.439c0,0.16,0.028,0.271,0.084,0.336c0.056,0.065,0.12,0.096,0.192,0.096c0.031,0,0.062,0,0.09,0
				c0.027,0,0.069-0.008,0.126-0.022l0.132,0.744c-0.064,0.03-0.14,0.056-0.229,0.071c-0.088,0.017-0.199,0.023-0.336,0.023
				c-0.376,0-0.644-0.111-0.804-0.336s-0.24-0.553-0.24-0.984L75.632,24.573L75.632,24.573z"/>
			<path d="M78.404,31.604c0-0.641,0.286-1.13,0.858-1.471c0.571-0.34,1.481-0.578,2.729-0.714c0-0.184-0.018-0.364-0.054-0.54
				c-0.036-0.176-0.101-0.332-0.192-0.468c-0.092-0.136-0.214-0.246-0.366-0.33c-0.151-0.084-0.348-0.126-0.588-0.126
				c-0.344,0-0.662,0.064-0.954,0.192s-0.554,0.272-0.785,0.432l-0.396-0.684c0.271-0.176,0.604-0.346,0.996-0.51
				c0.392-0.164,0.824-0.246,1.296-0.246c0.712,0,1.228,0.218,1.548,0.654c0.32,0.436,0.48,1.018,0.48,1.746v3.576H82.16
				l-0.084-0.695h-0.023c-0.28,0.232-0.582,0.43-0.906,0.594c-0.324,0.164-0.666,0.246-1.026,0.246
				c-0.496,0-0.906-0.145-1.229-0.432C78.566,32.54,78.404,32.133,78.404,31.604z M79.376,31.532c0,0.336,0.099,0.576,0.294,0.721
				c0.196,0.145,0.438,0.216,0.727,0.216c0.279,0,0.546-0.065,0.798-0.198c0.252-0.131,0.518-0.326,0.798-0.582v-1.62
				c-0.488,0.064-0.9,0.14-1.236,0.228s-0.605,0.192-0.81,0.312c-0.204,0.12-0.351,0.258-0.438,0.414
				C79.42,31.179,79.376,31.349,79.376,31.532z"/>
			<path d="M84.404,30.213c0-0.488,0.076-0.922,0.228-1.302c0.152-0.38,0.356-0.702,0.612-0.966c0.256-0.264,0.554-0.464,0.895-0.6
				c0.34-0.136,0.697-0.204,1.073-0.204c0.385,0,0.715,0.07,0.99,0.21c0.276,0.14,0.514,0.302,0.714,0.486l-0.492,0.636
				c-0.176-0.152-0.357-0.276-0.546-0.372c-0.188-0.096-0.397-0.144-0.63-0.144c-0.264,0-0.508,0.054-0.731,0.162
				c-0.225,0.108-0.416,0.262-0.576,0.462s-0.286,0.438-0.378,0.714s-0.139,0.582-0.139,0.918s0.044,0.64,0.133,0.911
				c0.088,0.273,0.21,0.507,0.365,0.703c0.156,0.195,0.347,0.348,0.57,0.455c0.224,0.107,0.468,0.162,0.732,0.162
				c0.279,0,0.533-0.059,0.762-0.174c0.228-0.115,0.43-0.254,0.606-0.414l0.443,0.647c-0.264,0.231-0.558,0.416-0.882,0.552
				c-0.324,0.137-0.662,0.204-1.014,0.204c-0.385,0-0.744-0.067-1.08-0.204c-0.336-0.136-0.626-0.334-0.87-0.594
				c-0.244-0.261-0.437-0.58-0.576-0.96C84.474,31.122,84.404,30.693,84.404,30.213z"/>
			<path d="M89.624,30.213c0-0.48,0.074-0.91,0.222-1.29c0.148-0.38,0.344-0.702,0.588-0.966s0.522-0.466,0.834-0.606
				s0.637-0.21,0.973-0.21c0.367,0,0.697,0.064,0.99,0.192c0.291,0.128,0.535,0.312,0.731,0.552c0.196,0.24,0.346,0.528,0.45,0.864
				s0.156,0.712,0.156,1.128c0,0.216-0.013,0.396-0.036,0.54h-3.937c0.04,0.632,0.234,1.132,0.582,1.5
				c0.349,0.367,0.802,0.552,1.362,0.552c0.28,0,0.538-0.042,0.774-0.126c0.235-0.084,0.462-0.193,0.678-0.33l0.348,0.648
				c-0.256,0.16-0.54,0.3-0.852,0.42c-0.312,0.119-0.668,0.18-1.068,0.18c-0.392,0-0.758-0.07-1.098-0.21
				c-0.341-0.14-0.637-0.34-0.889-0.601c-0.252-0.26-0.449-0.577-0.594-0.953C89.696,31.12,89.624,30.693,89.624,30.213z
				 M93.704,29.769c0-0.6-0.126-1.058-0.378-1.374s-0.606-0.474-1.062-0.474c-0.208,0-0.406,0.042-0.594,0.126
				s-0.358,0.204-0.51,0.36c-0.152,0.156-0.278,0.348-0.378,0.576c-0.101,0.228-0.166,0.49-0.198,0.786H93.704L93.704,29.769z"/>
			<path d="M98.144,31.604c0-0.641,0.286-1.13,0.858-1.471c0.571-0.34,1.481-0.578,2.729-0.714c0-0.184-0.018-0.364-0.054-0.54
				c-0.036-0.176-0.101-0.332-0.192-0.468c-0.092-0.136-0.214-0.246-0.366-0.33c-0.151-0.084-0.348-0.126-0.588-0.126
				c-0.344,0-0.662,0.064-0.954,0.192s-0.554,0.272-0.785,0.432l-0.396-0.684c0.271-0.176,0.604-0.346,0.996-0.51
				c0.392-0.164,0.824-0.246,1.296-0.246c0.712,0,1.228,0.218,1.548,0.654c0.32,0.436,0.48,1.018,0.48,1.746v3.576H101.9
				l-0.084-0.695h-0.023c-0.28,0.232-0.582,0.43-0.906,0.594c-0.324,0.164-0.666,0.246-1.026,0.246
				c-0.496,0-0.906-0.145-1.229-0.432C98.306,32.54,98.144,32.133,98.144,31.604z M99.115,31.532c0,0.336,0.099,0.576,0.294,0.721
				c0.196,0.145,0.438,0.216,0.727,0.216c0.279,0,0.546-0.065,0.798-0.198c0.252-0.131,0.518-0.326,0.798-0.582v-1.62
				c-0.488,0.064-0.9,0.14-1.236,0.228s-0.605,0.192-0.81,0.312c-0.204,0.12-0.351,0.258-0.438,0.414
				C99.159,31.179,99.115,31.349,99.115,31.532z"/>
			<path d="M104.575,27.285h0.816l0.084,0.84h0.036c0.279-0.28,0.574-0.514,0.882-0.702s0.666-0.282,1.074-0.282
				c0.615,0,1.065,0.192,1.35,0.576c0.284,0.384,0.426,0.952,0.426,1.704v3.695h-0.983v-3.563c0-0.552-0.088-0.95-0.265-1.194
				c-0.176-0.244-0.455-0.366-0.84-0.366c-0.304,0-0.572,0.076-0.804,0.228c-0.232,0.152-0.496,0.376-0.792,0.672v4.224h-0.984
				V27.285z"/>
			<path d="M113.131,30.213c0-0.488,0.074-0.922,0.223-1.302c0.147-0.38,0.346-0.702,0.594-0.966c0.248-0.264,0.534-0.464,0.858-0.6
				c0.323-0.136,0.666-0.204,1.025-0.204c0.36,0,0.702,0.068,1.026,0.204c0.324,0.136,0.609,0.336,0.858,0.6
				c0.247,0.264,0.445,0.586,0.594,0.966c0.147,0.38,0.222,0.814,0.222,1.302c0,0.48-0.074,0.91-0.222,1.29s-0.347,0.699-0.594,0.96
				c-0.249,0.261-0.534,0.458-0.858,0.595c-0.324,0.135-0.666,0.203-1.026,0.203c-0.359,0-0.702-0.068-1.025-0.203
				c-0.324-0.137-0.61-0.334-0.858-0.595c-0.248-0.261-0.446-0.58-0.594-0.96C113.205,31.123,113.131,30.693,113.131,30.213z
				 M114.151,30.213c0,0.336,0.04,0.64,0.12,0.911c0.08,0.273,0.193,0.507,0.342,0.703c0.148,0.195,0.326,0.348,0.534,0.455
				s0.436,0.162,0.684,0.162s0.477-0.055,0.685-0.162s0.386-0.26,0.534-0.455c0.147-0.196,0.262-0.43,0.342-0.703
				c0.08-0.271,0.12-0.575,0.12-0.911s-0.04-0.642-0.12-0.918s-0.194-0.514-0.342-0.714c-0.148-0.2-0.326-0.354-0.534-0.462
				c-0.208-0.108-0.437-0.162-0.685-0.162s-0.476,0.054-0.684,0.162c-0.208,0.108-0.386,0.262-0.534,0.462
				c-0.148,0.2-0.262,0.438-0.342,0.714S114.151,29.876,114.151,30.213z"/>
			<path d="M120.067,27.285h0.815l0.084,1.056h0.036c0.2-0.368,0.442-0.66,0.727-0.876c0.283-0.216,0.594-0.324,0.93-0.324
				c0.232,0,0.44,0.04,0.624,0.12l-0.192,0.864c-0.096-0.032-0.184-0.056-0.264-0.072c-0.08-0.016-0.18-0.024-0.3-0.024
				c-0.248,0-0.506,0.1-0.774,0.3c-0.268,0.2-0.502,0.548-0.702,1.044v3.744h-0.983L120.067,27.285L120.067,27.285z"/>
			<path d="M123.69,30.213c0-0.472,0.07-0.898,0.21-1.278c0.141-0.38,0.326-0.702,0.559-0.966c0.231-0.264,0.5-0.468,0.804-0.612
				c0.304-0.144,0.624-0.216,0.96-0.216s0.628,0.06,0.876,0.18c0.248,0.12,0.5,0.284,0.756,0.492l-0.048-0.996v-2.244h0.996v8.543
				h-0.816l-0.084-0.684h-0.035c-0.232,0.225-0.498,0.418-0.799,0.582c-0.3,0.164-0.622,0.245-0.966,0.245
				c-0.736,0-1.322-0.264-1.758-0.792C123.908,31.94,123.69,31.188,123.69,30.213z M124.711,30.201c0,0.704,0.14,1.251,0.42,1.644
				c0.28,0.393,0.676,0.588,1.188,0.588c0.272,0,0.528-0.065,0.769-0.197c0.24-0.133,0.479-0.334,0.72-0.605v-3.048
				c-0.248-0.224-0.486-0.382-0.714-0.474c-0.229-0.092-0.462-0.138-0.702-0.138c-0.232,0-0.45,0.054-0.654,0.162
				c-0.204,0.108-0.382,0.26-0.533,0.456c-0.152,0.196-0.272,0.43-0.36,0.702C124.757,29.562,124.711,29.865,124.711,30.201z"/>
			<path d="M130.339,30.213c0-0.48,0.074-0.91,0.222-1.29c0.148-0.38,0.344-0.702,0.588-0.966s0.522-0.466,0.834-0.606
				s0.637-0.21,0.973-0.21c0.367,0,0.697,0.064,0.99,0.192c0.291,0.128,0.535,0.312,0.731,0.552c0.196,0.24,0.346,0.528,0.45,0.864
				s0.156,0.712,0.156,1.128c0,0.216-0.013,0.396-0.036,0.54h-3.937c0.04,0.632,0.234,1.132,0.582,1.5
				c0.349,0.367,0.802,0.552,1.362,0.552c0.28,0,0.538-0.042,0.774-0.126c0.235-0.084,0.462-0.193,0.678-0.33l0.348,0.648
				c-0.256,0.16-0.54,0.3-0.852,0.42c-0.312,0.119-0.668,0.18-1.068,0.18c-0.392,0-0.758-0.07-1.098-0.21
				c-0.341-0.14-0.637-0.34-0.889-0.601c-0.252-0.26-0.449-0.577-0.594-0.953C130.411,31.12,130.339,30.693,130.339,30.213z
				 M134.419,29.769c0-0.6-0.126-1.058-0.378-1.374s-0.606-0.474-1.062-0.474c-0.208,0-0.406,0.042-0.594,0.126
				c-0.188,0.084-0.358,0.204-0.51,0.36c-0.152,0.156-0.278,0.348-0.378,0.576c-0.101,0.228-0.166,0.49-0.198,0.786H134.419
				L134.419,29.769z"/>
			<path d="M136.723,27.285h0.815l0.084,1.056h0.036c0.2-0.368,0.442-0.66,0.727-0.876c0.283-0.216,0.594-0.324,0.93-0.324
				c0.232,0,0.44,0.04,0.624,0.12l-0.192,0.864c-0.096-0.032-0.184-0.056-0.264-0.072c-0.08-0.016-0.18-0.024-0.3-0.024
				c-0.248,0-0.506,0.1-0.774,0.3c-0.268,0.2-0.502,0.548-0.702,1.044v3.744h-0.983L136.723,27.285L136.723,27.285z"/>
			<path d="M143.021,31.604c0-0.641,0.286-1.13,0.858-1.471c0.572-0.34,1.482-0.578,2.73-0.714c0-0.184-0.019-0.364-0.054-0.54
				c-0.037-0.176-0.101-0.332-0.192-0.468c-0.093-0.136-0.214-0.246-0.366-0.33s-0.348-0.126-0.588-0.126
				c-0.344,0-0.662,0.064-0.954,0.192s-0.554,0.272-0.786,0.432l-0.396-0.684c0.271-0.176,0.604-0.346,0.995-0.51
				c0.393-0.164,0.824-0.246,1.297-0.246c0.712,0,1.228,0.218,1.548,0.654c0.319,0.436,0.479,1.018,0.479,1.746v3.576h-0.815
				l-0.084-0.695h-0.024c-0.279,0.232-0.582,0.43-0.906,0.594c-0.324,0.164-0.666,0.246-1.025,0.246
				c-0.496,0-0.906-0.145-1.23-0.432C143.184,32.54,143.021,32.133,143.021,31.604z M143.994,31.532
				c0,0.336,0.098,0.576,0.294,0.721c0.196,0.145,0.438,0.216,0.726,0.216c0.28,0,0.547-0.065,0.799-0.198
				c0.252-0.131,0.518-0.326,0.798-0.582v-1.62c-0.488,0.064-0.9,0.14-1.236,0.228s-0.606,0.192-0.81,0.312
				s-0.351,0.258-0.438,0.414C144.038,31.179,143.994,31.349,143.994,31.532z"/>
			<path d="M149.454,27.285h0.815l0.084,0.84h0.037c0.279-0.28,0.574-0.514,0.881-0.702c0.309-0.188,0.666-0.282,1.074-0.282
				c0.616,0,1.066,0.192,1.351,0.576c0.284,0.384,0.426,0.952,0.426,1.704v3.695h-0.983v-3.563c0-0.552-0.088-0.95-0.265-1.194
				c-0.176-0.244-0.456-0.366-0.84-0.366c-0.304,0-0.572,0.076-0.804,0.228c-0.232,0.152-0.496,0.376-0.793,0.672v4.224h-0.983
				V27.285z"/>
			<path d="M155.598,30.213c0-0.472,0.07-0.898,0.211-1.278c0.14-0.38,0.326-0.702,0.558-0.966c0.232-0.264,0.5-0.468,0.804-0.612
				c0.305-0.144,0.624-0.216,0.961-0.216c0.336,0,0.627,0.06,0.875,0.18c0.248,0.12,0.5,0.284,0.756,0.492l-0.047-0.996v-2.244
				h0.995v8.543h-0.815l-0.084-0.684h-0.036c-0.232,0.225-0.498,0.418-0.798,0.582c-0.301,0.164-0.623,0.245-0.967,0.245
				c-0.736,0-1.322-0.264-1.758-0.792C155.817,31.94,155.598,31.188,155.598,30.213z M156.618,30.201c0,0.704,0.14,1.251,0.42,1.644
				c0.28,0.393,0.677,0.588,1.188,0.588c0.271,0,0.527-0.065,0.768-0.197c0.24-0.133,0.48-0.334,0.721-0.605v-3.048
				c-0.248-0.224-0.486-0.382-0.715-0.474c-0.229-0.092-0.462-0.138-0.701-0.138c-0.232,0-0.451,0.054-0.654,0.162
				c-0.205,0.108-0.383,0.26-0.534,0.456c-0.152,0.196-0.272,0.43-0.36,0.702S156.618,29.865,156.618,30.201z"/>
			<path d="M165.103,27.285h0.815l0.084,0.84h0.036c0.279-0.28,0.574-0.514,0.882-0.702c0.31-0.188,0.666-0.282,1.074-0.282
				c0.614,0,1.065,0.192,1.351,0.576c0.283,0.384,0.426,0.952,0.426,1.704v3.695h-0.983v-3.563c0-0.552-0.088-0.95-0.265-1.194
				c-0.176-0.244-0.455-0.366-0.84-0.366c-0.305,0-0.572,0.076-0.805,0.228c-0.232,0.152-0.496,0.376-0.792,0.672v4.224h-0.983
				V27.285z"/>
			<path d="M171.233,30.213c0-0.488,0.074-0.922,0.223-1.302s0.348-0.702,0.595-0.966c0.247-0.264,0.533-0.464,0.857-0.6
				c0.323-0.136,0.666-0.204,1.024-0.204c0.36,0,0.703,0.068,1.026,0.204c0.324,0.136,0.61,0.336,0.858,0.6
				c0.248,0.264,0.445,0.586,0.594,0.966s0.223,0.814,0.223,1.302c0,0.48-0.074,0.91-0.223,1.29s-0.346,0.699-0.594,0.96
				s-0.534,0.458-0.858,0.595c-0.323,0.135-0.666,0.203-1.026,0.203c-0.358,0-0.701-0.068-1.024-0.203
				c-0.324-0.137-0.61-0.334-0.857-0.595s-0.446-0.58-0.595-0.96S171.233,30.693,171.233,30.213z M172.254,30.213
				c0,0.336,0.04,0.64,0.12,0.911c0.08,0.273,0.193,0.507,0.343,0.703c0.147,0.195,0.325,0.348,0.533,0.455s0.437,0.162,0.685,0.162
				s0.477-0.055,0.685-0.162s0.386-0.26,0.534-0.455c0.147-0.196,0.262-0.43,0.342-0.703c0.08-0.271,0.12-0.575,0.12-0.911
				s-0.04-0.642-0.12-0.918s-0.193-0.514-0.342-0.714s-0.326-0.354-0.534-0.462c-0.208-0.108-0.437-0.162-0.685-0.162
				s-0.477,0.054-0.685,0.162c-0.208,0.108-0.386,0.262-0.533,0.462s-0.263,0.438-0.343,0.714S172.254,29.876,172.254,30.213z"/>
			<path d="M178.338,28.089h-0.862v-0.744l0.912-0.06l0.118-1.632h0.828v1.632h1.572v0.804h-1.572v3.24
				c0,0.359,0.065,0.638,0.198,0.834c0.132,0.195,0.365,0.293,0.701,0.293c0.104,0,0.217-0.016,0.336-0.047
				c0.119-0.032,0.229-0.068,0.324-0.108l0.191,0.744c-0.16,0.056-0.334,0.106-0.521,0.149c-0.188,0.045-0.375,0.065-0.559,0.065
				c-0.312,0-0.574-0.048-0.785-0.145c-0.213-0.097-0.385-0.228-0.517-0.396c-0.132-0.168-0.226-0.372-0.282-0.612
				c-0.056-0.239-0.084-0.504-0.084-0.791L178.338,28.089L178.338,28.089z"/>
			<path d="M182.729,26.084c-0.191,0-0.354-0.06-0.485-0.18c-0.132-0.12-0.197-0.272-0.197-0.456c0-0.192,0.065-0.346,0.197-0.462
				c0.132-0.116,0.294-0.174,0.485-0.174s0.354,0.058,0.486,0.174c0.131,0.116,0.197,0.27,0.197,0.462
				c0,0.184-0.066,0.336-0.197,0.456C183.084,26.025,182.922,26.084,182.729,26.084z M182.228,27.285h0.982v5.832h-0.982V27.285z"/>
			<path d="M187.806,25.376c-0.216-0.096-0.437-0.144-0.658-0.144c-0.545,0-0.816,0.376-0.816,1.128v0.924h1.236v0.804h-1.236v5.027
				h-0.984v-5.027h-0.791v-0.744l0.791-0.06V26.36c0-0.6,0.139-1.072,0.414-1.416c0.275-0.344,0.706-0.516,1.29-0.516
				c0.185,0,0.358,0.018,0.522,0.054s0.312,0.082,0.449,0.138L187.806,25.376z"/>
			<path d="M188.502,34.778c0.08,0.02,0.156,0.029,0.229,0.029c0.336,0,0.608-0.117,0.82-0.354c0.213-0.235,0.379-0.533,0.498-0.895
				l0.133-0.432l-2.341-5.844h1.021l1.188,3.228c0.088,0.256,0.182,0.526,0.282,0.811c0.101,0.283,0.192,0.562,0.28,0.834h0.05
				c0.088-0.266,0.172-0.541,0.252-0.828c0.08-0.289,0.16-0.56,0.239-0.816l1.044-3.228h0.961l-2.196,6.312
				c-0.104,0.288-0.22,0.557-0.35,0.805c-0.127,0.248-0.278,0.461-0.454,0.642c-0.177,0.181-0.377,0.322-0.601,0.427
				c-0.225,0.105-0.483,0.155-0.781,0.155c-0.135,0-0.26-0.01-0.37-0.028c-0.113-0.021-0.218-0.052-0.312-0.091l0.19-0.78
				C188.351,34.741,188.422,34.759,188.502,34.778z"/>
			<path d="M196.878,28.089h-0.863v-0.744l0.911-0.06l0.12-1.632h0.828v1.632h1.57v0.804h-1.57v3.24
				c0,0.359,0.064,0.638,0.197,0.834c0.132,0.195,0.365,0.293,0.701,0.293c0.104,0,0.217-0.016,0.336-0.047
				c0.121-0.032,0.229-0.068,0.324-0.108l0.192,0.744c-0.16,0.056-0.335,0.106-0.522,0.149c-0.188,0.045-0.373,0.065-0.558,0.065
				c-0.312,0-0.573-0.048-0.786-0.145c-0.212-0.097-0.384-0.228-0.517-0.396c-0.132-0.168-0.226-0.372-0.281-0.612
				c-0.058-0.239-0.084-0.504-0.084-0.791L196.878,28.089L196.878,28.089z"/>
			<path d="M200.767,24.573h0.982v2.328l-0.036,1.2c0.28-0.264,0.572-0.49,0.876-0.678c0.305-0.188,0.66-0.282,1.068-0.282
				c0.615,0,1.066,0.192,1.35,0.576c0.284,0.384,0.428,0.952,0.428,1.704v3.695h-0.984v-3.563c0-0.552-0.088-0.95-0.264-1.194
				c-0.178-0.244-0.457-0.366-0.84-0.366c-0.306,0-0.572,0.076-0.806,0.228c-0.231,0.152-0.496,0.376-0.792,0.672v4.224h-0.982
				V24.573L200.767,24.573z"/>
			<path d="M206.86,30.213c0-0.48,0.074-0.91,0.224-1.29c0.147-0.38,0.345-0.702,0.588-0.966s0.521-0.466,0.834-0.606
				c0.312-0.14,0.636-0.21,0.972-0.21c0.369,0,0.698,0.064,0.99,0.192s0.536,0.312,0.731,0.552c0.196,0.24,0.347,0.528,0.45,0.864
				s0.156,0.712,0.156,1.128c0,0.216-0.013,0.396-0.037,0.54h-3.936c0.039,0.632,0.232,1.132,0.582,1.5
				c0.348,0.367,0.802,0.552,1.361,0.552c0.279,0,0.537-0.042,0.773-0.126c0.235-0.084,0.463-0.193,0.678-0.33l0.349,0.648
				c-0.257,0.16-0.54,0.3-0.853,0.42c-0.312,0.119-0.668,0.18-1.067,0.18c-0.392,0-0.759-0.07-1.099-0.21s-0.636-0.34-0.888-0.601
				c-0.252-0.26-0.45-0.577-0.595-0.953C206.935,31.12,206.86,30.693,206.86,30.213z M210.94,29.769c0-0.6-0.125-1.058-0.377-1.374
				s-0.605-0.474-1.062-0.474c-0.209,0-0.406,0.042-0.596,0.126c-0.188,0.084-0.356,0.204-0.51,0.36
				c-0.151,0.156-0.277,0.348-0.377,0.576c-0.101,0.228-0.166,0.49-0.199,0.786H210.94L210.94,29.769z"/>
			<path d="M215.382,31.604c0-0.641,0.286-1.13,0.857-1.471c0.572-0.34,1.482-0.578,2.729-0.714c0-0.184-0.019-0.364-0.054-0.54
				c-0.036-0.176-0.102-0.332-0.191-0.468c-0.093-0.136-0.215-0.246-0.367-0.33c-0.151-0.084-0.348-0.126-0.588-0.126
				c-0.344,0-0.662,0.064-0.953,0.192c-0.293,0.128-0.555,0.272-0.787,0.432l-0.396-0.684c0.271-0.176,0.604-0.346,0.996-0.51
				c0.392-0.164,0.823-0.246,1.296-0.246c0.713,0,1.229,0.218,1.549,0.654c0.318,0.436,0.479,1.018,0.479,1.746v3.576h-0.814
				l-0.084-0.695h-0.025c-0.279,0.232-0.581,0.43-0.904,0.594c-0.324,0.164-0.666,0.246-1.025,0.246
				c-0.496,0-0.906-0.145-1.23-0.432C215.544,32.54,215.382,32.133,215.382,31.604z M216.354,31.532
				c0,0.336,0.098,0.576,0.293,0.721c0.197,0.145,0.438,0.216,0.728,0.216c0.278,0,0.546-0.065,0.798-0.198
				c0.252-0.131,0.518-0.326,0.799-0.582v-1.62c-0.488,0.064-0.9,0.14-1.236,0.228s-0.605,0.192-0.811,0.312
				c-0.203,0.12-0.351,0.258-0.438,0.414C216.397,31.179,216.354,31.349,216.354,31.532z"/>
			<path d="M221.394,30.213c0-0.472,0.069-0.898,0.211-1.278c0.14-0.38,0.324-0.702,0.558-0.966c0.231-0.264,0.5-0.468,0.804-0.612
				c0.305-0.144,0.624-0.216,0.96-0.216c0.337,0,0.628,0.06,0.876,0.18c0.248,0.12,0.5,0.284,0.756,0.492l-0.048-0.996v-2.244h0.996
				v8.543h-0.815l-0.084-0.684h-0.035c-0.232,0.225-0.498,0.418-0.799,0.582s-0.621,0.245-0.967,0.245
				c-0.734,0-1.32-0.264-1.758-0.792C221.61,31.94,221.394,31.188,221.394,30.213z M222.413,30.201c0,0.704,0.141,1.251,0.42,1.644
				s0.676,0.588,1.188,0.588c0.271,0,0.527-0.065,0.769-0.197c0.239-0.133,0.479-0.334,0.72-0.605v-3.048
				c-0.248-0.224-0.484-0.382-0.714-0.474c-0.228-0.092-0.462-0.138-0.702-0.138c-0.23,0-0.449,0.054-0.652,0.162
				c-0.205,0.108-0.383,0.26-0.534,0.456c-0.152,0.196-0.272,0.43-0.36,0.702S222.413,29.865,222.413,30.201z"/>
			<path d="M228.474,27.285h0.815l0.084,0.84h0.036c0.256-0.28,0.533-0.514,0.834-0.702c0.3-0.188,0.626-0.282,0.979-0.282
				c0.447,0,0.799,0.098,1.051,0.294s0.438,0.47,0.558,0.822c0.304-0.336,0.61-0.606,0.918-0.81
				c0.308-0.204,0.644-0.306,1.002-0.306c0.601,0,1.046,0.192,1.338,0.576c0.292,0.384,0.438,0.952,0.438,1.704v3.695h-0.984v-3.563
				c0-0.552-0.088-0.95-0.264-1.194c-0.176-0.244-0.448-0.366-0.816-0.366c-0.439,0-0.928,0.3-1.464,0.9v4.224h-0.983v-3.563
				c0-0.552-0.089-0.95-0.265-1.194c-0.176-0.244-0.452-0.366-0.828-0.366c-0.438,0-0.928,0.3-1.464,0.9v4.224h-0.982v-5.833
				H228.474z"/>
			<path d="M238.926,26.084c-0.192,0-0.354-0.06-0.485-0.18c-0.133-0.12-0.198-0.272-0.198-0.456c0-0.192,0.065-0.346,0.198-0.462
				c0.131-0.116,0.293-0.174,0.485-0.174c0.191,0,0.354,0.058,0.485,0.174c0.133,0.116,0.197,0.27,0.197,0.462
				c0,0.184-0.064,0.336-0.197,0.456C239.278,26.025,239.117,26.084,238.926,26.084z M238.422,27.285h0.983v5.832h-0.983V27.285z"/>
			<path d="M241.374,27.285h0.814l0.084,0.84h0.037c0.279-0.28,0.573-0.514,0.881-0.702c0.31-0.188,0.666-0.282,1.074-0.282
				c0.616,0,1.066,0.192,1.351,0.576c0.284,0.384,0.427,0.952,0.427,1.704v3.695h-0.984v-3.563c0-0.552-0.088-0.95-0.264-1.194
				c-0.177-0.244-0.456-0.366-0.84-0.366c-0.305,0-0.572,0.076-0.805,0.228c-0.231,0.152-0.496,0.376-0.793,0.672v4.224h-0.982
				V27.285L241.374,27.285z"/>
			<path d="M247.733,32.517c0-0.231,0.07-0.418,0.211-0.559c0.14-0.139,0.31-0.209,0.51-0.209c0.191,0,0.357,0.07,0.498,0.209
				c0.14,0.141,0.21,0.326,0.21,0.559c0,0.217-0.07,0.396-0.21,0.534c-0.141,0.14-0.307,0.21-0.498,0.21c-0.2,0-0.37-0.07-0.51-0.21
				C247.804,32.911,247.733,32.733,247.733,32.517z"/>
		</g>
	</g>
</g>
<g id="Calque_2">
	<g>
		<g>
			<path d="M25.198,26.828h2.412c0.432,0,0.828,0.04,1.188,0.12c0.36,0.08,0.666,0.21,0.918,0.391
				c0.252,0.18,0.448,0.418,0.588,0.713c0.14,0.297,0.21,0.66,0.21,1.092c0,0.416-0.07,0.777-0.21,1.08
				c-0.14,0.305-0.338,0.558-0.594,0.756c-0.256,0.201-0.562,0.352-0.918,0.451c-0.356,0.101-0.75,0.149-1.182,0.149h-1.416v3.12
				h-0.996V26.828z M27.49,30.765c0.688,0,1.198-0.131,1.53-0.391s0.498-0.67,0.498-1.23c0-0.567-0.168-0.961-0.504-1.182
				c-0.336-0.22-0.844-0.33-1.524-0.33h-1.296v3.133H27.49z"/>
			<path d="M32.014,26.156h0.984v7.44c0,0.159,0.028,0.271,0.084,0.336c0.056,0.062,0.12,0.096,0.192,0.096c0.032,0,0.062,0,0.09,0
				s0.07-0.008,0.126-0.023l0.132,0.743c-0.064,0.032-0.14,0.056-0.228,0.071c-0.088,0.017-0.2,0.024-0.336,0.024
				c-0.376,0-0.644-0.112-0.804-0.336c-0.16-0.225-0.24-0.553-0.24-0.983V26.156z"/>
			<path d="M34.786,33.188c0-0.642,0.286-1.131,0.858-1.472c0.572-0.34,1.482-0.577,2.73-0.713c0-0.185-0.018-0.364-0.054-0.541
				c-0.036-0.176-0.1-0.332-0.192-0.468c-0.092-0.136-0.214-0.246-0.366-0.33c-0.152-0.084-0.348-0.126-0.588-0.126
				c-0.344,0-0.662,0.064-0.954,0.192s-0.554,0.272-0.786,0.432l-0.396-0.685c0.271-0.176,0.604-0.346,0.996-0.51
				c0.392-0.164,0.824-0.246,1.296-0.246c0.712,0,1.228,0.219,1.548,0.654c0.32,0.437,0.48,1.02,0.48,1.746V34.7h-0.816
				l-0.084-0.695h-0.024c-0.28,0.23-0.582,0.43-0.906,0.594s-0.666,0.246-1.026,0.246c-0.496,0-0.906-0.145-1.23-0.433
				C34.948,34.124,34.786,33.716,34.786,33.188z M35.758,33.116c0,0.336,0.098,0.576,0.294,0.721
				c0.196,0.143,0.438,0.215,0.726,0.215c0.28,0,0.546-0.064,0.798-0.197s0.518-0.326,0.798-0.582v-1.619
				c-0.488,0.062-0.9,0.14-1.236,0.228s-0.606,0.192-0.81,0.312c-0.204,0.119-0.35,0.259-0.438,0.414
				C35.802,32.763,35.758,32.933,35.758,33.116z"/>
			<path d="M40.786,31.796c0-0.488,0.076-0.922,0.228-1.302c0.152-0.38,0.356-0.702,0.612-0.966c0.256-0.264,0.554-0.464,0.894-0.6
				c0.34-0.137,0.698-0.205,1.074-0.205c0.384,0,0.714,0.07,0.99,0.211c0.276,0.14,0.514,0.302,0.714,0.486l-0.492,0.635
				c-0.176-0.151-0.358-0.275-0.546-0.371c-0.188-0.096-0.398-0.145-0.63-0.145c-0.264,0-0.508,0.055-0.732,0.162
				c-0.224,0.107-0.416,0.262-0.576,0.462c-0.16,0.199-0.286,0.438-0.378,0.714s-0.138,0.582-0.138,0.918s0.044,0.642,0.132,0.912
				c0.088,0.272,0.21,0.506,0.366,0.702c0.156,0.195,0.346,0.349,0.57,0.456c0.224,0.106,0.468,0.161,0.732,0.161
				c0.28,0,0.534-0.059,0.762-0.174s0.43-0.254,0.606-0.414l0.444,0.648c-0.264,0.23-0.558,0.416-0.882,0.551
				c-0.324,0.137-0.662,0.205-1.014,0.205c-0.384,0-0.744-0.068-1.08-0.205c-0.336-0.135-0.626-0.334-0.87-0.594
				s-0.436-0.58-0.576-0.959C40.857,32.706,40.786,32.276,40.786,31.796z"/>
			<path d="M46.006,31.796c0-0.479,0.074-0.91,0.222-1.289c0.148-0.381,0.344-0.703,0.588-0.967s0.522-0.466,0.834-0.605
				c0.312-0.141,0.636-0.211,0.972-0.211c0.368,0,0.698,0.064,0.99,0.192s0.536,0.312,0.732,0.552
				c0.196,0.24,0.346,0.528,0.45,0.864s0.156,0.712,0.156,1.128c0,0.217-0.012,0.396-0.036,0.54h-3.936
				c0.04,0.632,0.234,1.132,0.582,1.5c0.348,0.368,0.802,0.552,1.362,0.552c0.28,0,0.538-0.041,0.774-0.125s0.462-0.193,0.678-0.33
				l0.348,0.647c-0.256,0.159-0.54,0.3-0.852,0.42s-0.668,0.181-1.068,0.181c-0.392,0-0.758-0.07-1.098-0.211
				c-0.34-0.14-0.636-0.34-0.888-0.6s-0.45-0.578-0.594-0.954S46.006,32.276,46.006,31.796z M50.086,31.353
				c0-0.601-0.126-1.059-0.378-1.375c-0.252-0.315-0.606-0.473-1.062-0.473c-0.208,0-0.406,0.041-0.594,0.125
				s-0.358,0.204-0.51,0.36c-0.152,0.155-0.278,0.349-0.378,0.575c-0.1,0.228-0.166,0.49-0.198,0.787H50.086L50.086,31.353z"/>
			<path d="M54.526,33.188c0-0.642,0.286-1.131,0.858-1.472c0.572-0.34,1.482-0.577,2.73-0.713c0-0.185-0.018-0.364-0.054-0.541
				c-0.036-0.176-0.1-0.332-0.192-0.468c-0.092-0.136-0.214-0.246-0.366-0.33c-0.152-0.084-0.348-0.126-0.588-0.126
				c-0.344,0-0.662,0.064-0.954,0.192s-0.554,0.272-0.786,0.432l-0.396-0.685c0.271-0.176,0.604-0.346,0.996-0.51
				c0.392-0.164,0.824-0.246,1.296-0.246c0.712,0,1.228,0.219,1.548,0.654c0.32,0.437,0.48,1.02,0.48,1.746V34.7h-0.816
				l-0.084-0.695h-0.024c-0.28,0.23-0.582,0.43-0.906,0.594c-0.324,0.164-0.666,0.246-1.026,0.246c-0.496,0-0.906-0.145-1.23-0.433
				C54.688,34.124,54.526,33.716,54.526,33.188z M55.498,33.116c0,0.336,0.098,0.576,0.294,0.721
				c0.196,0.143,0.438,0.215,0.726,0.215c0.28,0,0.546-0.064,0.798-0.197s0.518-0.326,0.798-0.582v-1.619
				c-0.488,0.062-0.9,0.14-1.236,0.228s-0.606,0.192-0.81,0.312s-0.35,0.259-0.438,0.414C55.542,32.763,55.498,32.933,55.498,33.116
				z"/>
			<path d="M60.958,28.868h0.816l0.084,0.84h0.036c0.28-0.279,0.574-0.514,0.882-0.701c0.308-0.188,0.666-0.283,1.074-0.283
				c0.616,0,1.066,0.192,1.35,0.576c0.284,0.385,0.426,0.953,0.426,1.705V34.7h-0.984v-3.564c0-0.552-0.088-0.949-0.264-1.193
				c-0.176-0.244-0.456-0.366-0.84-0.366c-0.304,0-0.572,0.076-0.804,0.228c-0.232,0.152-0.496,0.377-0.792,0.672V34.7h-0.984
				V28.868z"/>
			<path d="M67.102,31.796c0-0.472,0.07-0.896,0.21-1.277c0.14-0.38,0.326-0.702,0.558-0.967c0.232-0.264,0.5-0.468,0.804-0.611
				c0.304-0.145,0.624-0.217,0.96-0.217s0.628,0.061,0.876,0.181c0.248,0.12,0.5,0.284,0.756,0.491L71.218,28.4v-2.244h0.996V34.7
				h-0.816l-0.084-0.684h-0.036c-0.232,0.224-0.498,0.418-0.798,0.582c-0.3,0.164-0.622,0.245-0.966,0.245
				c-0.736,0-1.322-0.265-1.758-0.793C67.319,33.524,67.102,32.772,67.102,31.796z M68.122,31.784c0,0.703,0.14,1.252,0.42,1.645
				c0.28,0.393,0.676,0.588,1.188,0.588c0.272,0,0.528-0.065,0.768-0.197c0.24-0.133,0.48-0.334,0.72-0.606v-3.048
				c-0.248-0.224-0.486-0.382-0.714-0.474c-0.228-0.092-0.462-0.139-0.702-0.139c-0.232,0-0.45,0.055-0.654,0.162
				c-0.204,0.108-0.382,0.26-0.534,0.457c-0.152,0.195-0.272,0.43-0.36,0.701S68.122,31.448,68.122,31.784z"/>
			<path d="M76.173,31.796c0-0.488,0.074-0.922,0.222-1.302s0.346-0.702,0.594-0.966c0.248-0.264,0.534-0.464,0.858-0.6
				c0.324-0.137,0.666-0.205,1.026-0.205c0.36,0,0.702,0.068,1.026,0.205c0.324,0.136,0.61,0.336,0.858,0.6
				c0.248,0.264,0.446,0.586,0.594,0.966c0.148,0.38,0.222,0.813,0.222,1.302c0,0.48-0.074,0.91-0.222,1.291
				c-0.148,0.379-0.346,0.699-0.594,0.959c-0.249,0.26-0.534,0.459-0.858,0.594c-0.324,0.137-0.666,0.205-1.026,0.205
				c-0.36,0-0.702-0.068-1.026-0.205c-0.324-0.135-0.61-0.334-0.858-0.594s-0.446-0.58-0.594-0.959
				C76.247,32.706,76.173,32.276,76.173,31.796z M77.193,31.796c0,0.336,0.04,0.641,0.12,0.912s0.194,0.506,0.342,0.702
				s0.326,0.349,0.534,0.456s0.436,0.162,0.684,0.162c0.248,0,0.476-0.055,0.684-0.162s0.386-0.26,0.534-0.456
				s0.262-0.431,0.342-0.702c0.08-0.271,0.12-0.576,0.12-0.912s-0.04-0.643-0.12-0.918c-0.08-0.275-0.194-0.514-0.342-0.714
				s-0.326-0.354-0.534-0.462c-0.208-0.108-0.436-0.162-0.684-0.162c-0.248,0-0.476,0.055-0.684,0.162s-0.386,0.262-0.534,0.462
				s-0.262,0.438-0.342,0.714S77.193,31.46,77.193,31.796z"/>
			<path d="M83.109,28.868h0.816l0.084,1.057h0.036c0.2-0.369,0.442-0.66,0.726-0.877c0.284-0.216,0.594-0.324,0.93-0.324
				c0.232,0,0.44,0.041,0.624,0.121l-0.192,0.863c-0.096-0.031-0.184-0.056-0.264-0.072c-0.08-0.016-0.18-0.023-0.3-0.023
				c-0.248,0-0.506,0.1-0.774,0.3c-0.268,0.2-0.502,0.548-0.702,1.044V34.7h-0.984V28.868z"/>
			<path d="M86.733,31.796c0-0.472,0.07-0.896,0.21-1.277c0.14-0.38,0.326-0.702,0.558-0.967c0.232-0.264,0.5-0.468,0.804-0.611
				c0.304-0.145,0.624-0.217,0.96-0.217c0.336,0,0.628,0.061,0.876,0.181c0.248,0.12,0.5,0.284,0.756,0.491L90.849,28.4v-2.244
				h0.996V34.7h-0.816l-0.084-0.684h-0.036c-0.232,0.224-0.498,0.418-0.798,0.582s-0.622,0.245-0.966,0.245
				c-0.736,0-1.322-0.265-1.758-0.793C86.951,33.524,86.733,32.772,86.733,31.796z M87.753,31.784c0,0.703,0.14,1.252,0.42,1.645
				s0.676,0.588,1.188,0.588c0.272,0,0.528-0.065,0.768-0.197c0.24-0.133,0.48-0.334,0.72-0.606v-3.048
				c-0.248-0.224-0.486-0.382-0.714-0.474c-0.228-0.092-0.462-0.139-0.702-0.139c-0.232,0-0.45,0.055-0.654,0.162
				c-0.204,0.108-0.382,0.26-0.534,0.457c-0.152,0.195-0.272,0.43-0.36,0.701S87.753,31.448,87.753,31.784z"/>
			<path d="M93.381,31.796c0-0.479,0.074-0.91,0.222-1.289c0.148-0.381,0.344-0.703,0.588-0.967s0.522-0.466,0.834-0.605
				c0.312-0.141,0.636-0.211,0.972-0.211c0.368,0,0.698,0.064,0.99,0.192s0.536,0.312,0.732,0.552
				c0.196,0.24,0.346,0.528,0.45,0.864s0.156,0.712,0.156,1.128c0,0.217-0.012,0.396-0.036,0.54h-3.936
				c0.04,0.632,0.234,1.132,0.582,1.5c0.348,0.368,0.802,0.552,1.362,0.552c0.28,0,0.538-0.041,0.774-0.125s0.462-0.193,0.678-0.33
				l0.348,0.647c-0.256,0.159-0.54,0.3-0.852,0.42s-0.668,0.181-1.068,0.181c-0.392,0-0.758-0.07-1.098-0.211
				c-0.34-0.14-0.636-0.34-0.888-0.6s-0.45-0.578-0.594-0.954S93.381,32.276,93.381,31.796z M97.461,31.353
				c0-0.601-0.126-1.059-0.378-1.375c-0.252-0.315-0.606-0.473-1.062-0.473c-0.208,0-0.406,0.041-0.594,0.125
				s-0.358,0.204-0.51,0.36c-0.152,0.155-0.278,0.349-0.378,0.575c-0.1,0.228-0.166,0.49-0.198,0.787H97.461L97.461,31.353z"/>
			<path d="M99.765,28.868h0.816l0.084,1.057h0.036c0.2-0.369,0.442-0.66,0.726-0.877c0.284-0.216,0.594-0.324,0.93-0.324
				c0.232,0,0.44,0.041,0.624,0.121l-0.192,0.863c-0.096-0.031-0.184-0.056-0.264-0.072c-0.08-0.016-0.18-0.023-0.3-0.023
				c-0.248,0-0.506,0.1-0.774,0.3c-0.268,0.2-0.502,0.548-0.702,1.044V34.7h-0.984V28.868z"/>
		</g>
		<rect x="14.09" y="15.5" fill="none" stroke="#414042" stroke-miterlimit="10" width="100" height="30"/>
	</g>
	<g>
		<g>
			<path d="M242.065,11.244h1.032l2.845,4.943l0.852,1.632h0.049c-0.023-0.399-0.051-0.813-0.078-1.241
				c-0.027-0.428-0.042-0.85-0.042-1.266v-4.068h0.947v7.873h-1.031l-2.856-4.957l-0.852-1.619h-0.048
				c0.031,0.4,0.062,0.805,0.09,1.217c0.027,0.412,0.042,0.826,0.042,1.242v4.117h-0.947v-7.873H242.065z"/>
			<path d="M249.301,16.213c0-0.488,0.074-0.922,0.224-1.303c0.146-0.379,0.346-0.701,0.594-0.965
				c0.248-0.266,0.533-0.465,0.856-0.602c0.324-0.135,0.666-0.203,1.026-0.203c0.359,0,0.701,0.068,1.025,0.203
				c0.323,0.137,0.609,0.336,0.857,0.602c0.248,0.264,0.446,0.586,0.596,0.965c0.146,0.381,0.221,0.814,0.221,1.303
				c0,0.48-0.073,0.91-0.221,1.289c-0.148,0.381-0.348,0.701-0.596,0.961c-0.248,0.261-0.534,0.457-0.857,0.595
				c-0.324,0.137-0.666,0.202-1.025,0.202c-0.36,0-0.702-0.065-1.026-0.202c-0.323-0.138-0.608-0.334-0.856-0.595
				c-0.248-0.26-0.446-0.58-0.594-0.961C249.376,17.123,249.301,16.693,249.301,16.213z M250.321,16.213
				c0,0.336,0.041,0.641,0.121,0.912c0.078,0.271,0.192,0.506,0.342,0.701c0.146,0.196,0.326,0.348,0.533,0.457
				c0.209,0.106,0.437,0.161,0.685,0.161s0.476-0.055,0.685-0.161c0.207-0.109,0.387-0.261,0.533-0.457
				c0.148-0.195,0.264-0.431,0.342-0.701c0.08-0.271,0.12-0.576,0.12-0.912s-0.04-0.643-0.12-0.918
				c-0.078-0.277-0.193-0.514-0.342-0.715c-0.146-0.199-0.326-0.354-0.533-0.461c-0.209-0.109-0.437-0.162-0.685-0.162
				s-0.476,0.053-0.685,0.162c-0.207,0.107-0.387,0.262-0.533,0.461c-0.148,0.201-0.264,0.438-0.342,0.715
				C250.362,15.57,250.321,15.877,250.321,16.213z"/>
			<path d="M256.405,14.088h-0.863v-0.744l0.912-0.059l0.119-1.633h0.828v1.633h1.571v0.803h-1.571v3.24
				c0,0.358,0.065,0.639,0.197,0.834c0.133,0.196,0.366,0.295,0.702,0.295c0.104,0,0.216-0.017,0.336-0.049
				c0.12-0.031,0.229-0.068,0.324-0.107l0.192,0.744c-0.16,0.056-0.336,0.104-0.522,0.149c-0.188,0.043-0.374,0.064-0.558,0.064
				c-0.312,0-0.574-0.047-0.787-0.143c-0.211-0.098-0.383-0.229-0.516-0.396s-0.227-0.373-0.281-0.611
				c-0.058-0.239-0.084-0.506-0.084-0.793V14.088L256.405,14.088z"/>
			<path d="M260.798,12.084c-0.191,0-0.354-0.059-0.486-0.18c-0.132-0.119-0.197-0.271-0.197-0.455c0-0.193,0.065-0.348,0.197-0.463
				c0.133-0.115,0.295-0.174,0.486-0.174s0.354,0.059,0.484,0.174c0.134,0.115,0.199,0.27,0.199,0.463
				c0,0.184-0.065,0.336-0.199,0.455C261.151,12.025,260.989,12.084,260.798,12.084z M260.294,13.285h0.982v5.832h-0.982V13.285z"/>
			<path d="M265.874,11.377c-0.217-0.096-0.438-0.145-0.66-0.145c-0.544,0-0.816,0.377-0.816,1.129v0.924h1.236v0.803h-1.236v5.029
				h-0.982v-5.029h-0.792v-0.744l0.792-0.059v-0.924c0-0.602,0.138-1.072,0.414-1.416c0.275-0.346,0.705-0.518,1.289-0.518
				c0.185,0,0.357,0.02,0.521,0.055s0.312,0.082,0.45,0.139L265.874,11.377z"/>
			<path d="M266.569,20.778c0.08,0.021,0.155,0.029,0.229,0.029c0.336,0,0.609-0.119,0.82-0.354c0.213-0.236,0.38-0.535,0.498-0.895
				l0.134-0.433l-2.341-5.844h1.021l1.188,3.227c0.088,0.258,0.183,0.527,0.281,0.812c0.102,0.285,0.194,0.562,0.282,0.834h0.048
				c0.088-0.264,0.172-0.539,0.252-0.828c0.08-0.287,0.16-0.559,0.24-0.816l1.044-3.227h0.96l-2.195,6.311
				c-0.104,0.289-0.221,0.557-0.349,0.805s-0.28,0.463-0.456,0.644s-0.376,0.322-0.6,0.426c-0.225,0.104-0.484,0.156-0.78,0.156
				c-0.136,0-0.26-0.01-0.372-0.031c-0.111-0.02-0.216-0.049-0.312-0.09l0.191-0.778C266.418,20.74,266.489,20.758,266.569,20.778z"
				/>
			<path d="M274.944,14.088h-0.863v-0.744l0.912-0.059l0.119-1.633h0.828v1.633h1.571v0.803h-1.571v3.24
				c0,0.358,0.065,0.639,0.197,0.834c0.133,0.196,0.366,0.295,0.702,0.295c0.104,0,0.216-0.017,0.336-0.049
				c0.12-0.031,0.229-0.068,0.324-0.107l0.192,0.744c-0.16,0.056-0.336,0.104-0.522,0.149c-0.188,0.043-0.374,0.064-0.558,0.064
				c-0.312,0-0.574-0.047-0.787-0.143c-0.211-0.098-0.383-0.229-0.517-0.396c-0.132-0.168-0.226-0.373-0.28-0.611
				c-0.058-0.239-0.084-0.506-0.084-0.793V14.088L274.944,14.088z"/>
			<path d="M278.833,10.572h0.982V12.9l-0.035,1.2c0.279-0.264,0.572-0.488,0.875-0.678c0.306-0.188,0.66-0.281,1.068-0.281
				c0.616,0,1.066,0.191,1.35,0.576c0.285,0.383,0.428,0.951,0.428,1.703v3.697h-0.984v-3.564c0-0.553-0.088-0.949-0.264-1.193
				c-0.178-0.244-0.456-0.367-0.84-0.367c-0.305,0-0.572,0.076-0.805,0.229c-0.231,0.152-0.496,0.375-0.793,0.672v4.225h-0.982
				V10.572z"/>
			<path d="M284.928,16.213c0-0.48,0.074-0.91,0.224-1.291c0.146-0.379,0.344-0.701,0.588-0.965
				c0.242-0.264,0.521-0.467,0.834-0.607c0.312-0.139,0.636-0.209,0.972-0.209c0.368,0,0.698,0.064,0.989,0.191
				c0.293,0.129,0.537,0.312,0.731,0.553c0.196,0.24,0.347,0.527,0.45,0.863s0.156,0.713,0.156,1.129
				c0,0.215-0.012,0.395-0.036,0.539h-3.937c0.039,0.633,0.233,1.133,0.582,1.5c0.349,0.369,0.803,0.553,1.361,0.553
				c0.28,0,0.538-0.043,0.773-0.127s0.463-0.192,0.679-0.329l0.348,0.647c-0.256,0.159-0.54,0.301-0.852,0.42
				c-0.312,0.121-0.668,0.18-1.068,0.18c-0.392,0-0.758-0.069-1.098-0.209c-0.341-0.141-0.636-0.34-0.888-0.6
				c-0.252-0.261-0.451-0.578-0.596-0.955C285.001,17.121,284.928,16.693,284.928,16.213z M289.008,15.768
				c0-0.6-0.126-1.057-0.378-1.373s-0.605-0.475-1.062-0.475c-0.209,0-0.406,0.043-0.595,0.127s-0.356,0.203-0.51,0.359
				c-0.153,0.156-0.278,0.348-0.378,0.576s-0.166,0.49-0.198,0.785L289.008,15.768L289.008,15.768z"/>
			<path d="M293.448,17.604c0-0.64,0.287-1.129,0.858-1.47c0.572-0.34,1.482-0.578,2.73-0.715c0-0.184-0.021-0.363-0.056-0.539
				c-0.035-0.176-0.1-0.332-0.19-0.469c-0.093-0.135-0.216-0.246-0.367-0.33s-0.349-0.125-0.588-0.125
				c-0.345,0-0.662,0.064-0.953,0.191c-0.293,0.129-0.556,0.271-0.787,0.432l-0.396-0.684c0.272-0.176,0.604-0.346,0.998-0.51
				c0.391-0.164,0.822-0.246,1.295-0.246c0.713,0,1.229,0.219,1.549,0.654c0.318,0.436,0.479,1.018,0.479,1.746v3.576h-0.813
				l-0.084-0.697h-0.025c-0.278,0.232-0.581,0.43-0.903,0.594c-0.324,0.164-0.666,0.246-1.027,0.246
				c-0.496,0-0.906-0.143-1.23-0.432C293.61,18.541,293.448,18.133,293.448,17.604z M294.42,17.533c0,0.336,0.098,0.575,0.295,0.719
				c0.194,0.146,0.438,0.217,0.728,0.217c0.278,0,0.545-0.065,0.797-0.198c0.252-0.131,0.518-0.324,0.799-0.582v-1.62
				c-0.488,0.064-0.9,0.141-1.236,0.229s-0.605,0.191-0.811,0.312c-0.203,0.119-0.351,0.258-0.438,0.412
				C294.465,17.179,294.42,17.349,294.42,17.533z"/>
			<path d="M299.461,16.213c0-0.473,0.067-0.898,0.209-1.279c0.142-0.379,0.326-0.701,0.56-0.965c0.229-0.264,0.5-0.469,0.803-0.611
				c0.305-0.145,0.625-0.217,0.961-0.217s0.627,0.061,0.875,0.18c0.248,0.121,0.5,0.285,0.756,0.492l-0.047-0.996v-2.244h0.996
				v8.545h-0.816l-0.084-0.686h-0.035c-0.232,0.225-0.498,0.418-0.799,0.582s-0.621,0.245-0.967,0.245
				c-0.734,0-1.32-0.264-1.758-0.791C299.678,17.94,299.461,17.188,299.461,16.213z M300.481,16.201c0,0.703,0.139,1.252,0.42,1.643
				c0.278,0.394,0.676,0.589,1.188,0.589c0.271,0,0.527-0.064,0.768-0.197c0.241-0.133,0.48-0.334,0.721-0.605v-3.05
				c-0.247-0.223-0.485-0.381-0.715-0.473c-0.227-0.094-0.461-0.139-0.7-0.139c-0.232,0-0.449,0.053-0.654,0.162
				c-0.203,0.107-0.383,0.26-0.532,0.455c-0.152,0.197-0.273,0.43-0.361,0.703C300.524,15.561,300.481,15.865,300.481,16.201z"/>
			<path d="M306.541,13.285h0.813l0.084,0.84h0.037c0.256-0.281,0.533-0.514,0.834-0.703c0.299-0.188,0.625-0.281,0.979-0.281
				c0.446,0,0.797,0.098,1.049,0.293c0.252,0.197,0.438,0.471,0.56,0.822c0.303-0.336,0.608-0.605,0.918-0.809
				c0.307-0.205,0.643-0.307,1.002-0.307c0.6,0,1.045,0.191,1.338,0.576c0.291,0.383,0.438,0.951,0.438,1.703v3.697h-0.984v-3.564
				c0-0.553-0.088-0.949-0.264-1.193c-0.176-0.244-0.447-0.367-0.816-0.367c-0.438,0-0.928,0.301-1.463,0.9v4.225h-0.983v-3.564
				c0-0.553-0.089-0.949-0.265-1.193c-0.176-0.244-0.453-0.367-0.828-0.367c-0.438,0-0.928,0.301-1.465,0.9v4.225h-0.981v-5.833
				H306.541z"/>
			<path d="M316.991,12.084c-0.19,0-0.354-0.059-0.485-0.18c-0.131-0.119-0.196-0.271-0.196-0.455c0-0.193,0.065-0.348,0.196-0.463
				c0.133-0.115,0.295-0.174,0.485-0.174c0.191,0,0.354,0.059,0.486,0.174c0.133,0.115,0.197,0.27,0.197,0.463
				c0,0.184-0.064,0.336-0.197,0.455C317.346,12.025,317.184,12.084,316.991,12.084z M316.487,13.285h0.984v5.832h-0.984V13.285z"/>
			<path d="M319.442,13.285h0.813l0.084,0.84h0.037c0.278-0.281,0.573-0.514,0.881-0.703c0.31-0.188,0.666-0.281,1.074-0.281
				c0.616,0,1.065,0.191,1.35,0.576c0.285,0.383,0.429,0.951,0.429,1.703v3.697h-0.984v-3.564c0-0.553-0.088-0.949-0.264-1.193
				c-0.179-0.244-0.457-0.367-0.84-0.367c-0.306,0-0.572,0.076-0.806,0.229c-0.233,0.153-0.496,0.375-0.793,0.672v4.225h-0.981
				V13.285L319.442,13.285z"/>
		</g>
		<rect x="233.088" y="5.289" fill="none" stroke="#414042" stroke-miterlimit="10" width="100" height="21.476"/>
	</g>
	<g>
		<rect x="233.501" y="35.38" fill="none" stroke="#414042" stroke-miterlimit="10" width="100" height="21.476"/>
		<g>
			<path d="M242.912,42.192c0.456-0.096,1.176-0.168,1.907-0.168c1.044,0,1.715,0.18,2.219,0.588
				c0.42,0.312,0.672,0.791,0.672,1.427c0,0.78-0.516,1.464-1.367,1.775v0.023c0.768,0.192,1.667,0.828,1.667,2.027
				c0,0.695-0.276,1.224-0.684,1.619c-0.563,0.516-1.476,0.756-2.795,0.756c-0.72,0-1.271-0.048-1.619-0.097V42.192z
				 M243.956,45.503h0.947c1.104,0,1.751-0.576,1.751-1.355c0-0.947-0.72-1.319-1.774-1.319c-0.48,0-0.756,0.036-0.924,0.072V45.503
				z M243.956,49.376c0.204,0.036,0.504,0.049,0.875,0.049c1.08,0,2.075-0.396,2.075-1.571c0-1.104-0.947-1.56-2.087-1.56h-0.863
				V49.376z"/>
			<path d="M254.237,48.585c0,0.6,0.013,1.127,0.049,1.583h-0.936l-0.061-0.947h-0.023c-0.276,0.468-0.888,1.079-1.919,1.079
				c-0.912,0-2.003-0.504-2.003-2.543v-3.394h1.055v3.214c0,1.104,0.336,1.848,1.296,1.848c0.707,0,1.199-0.492,1.391-0.96
				c0.061-0.156,0.097-0.348,0.097-0.54v-3.562h1.055V48.585z"/>
			<path d="M257.168,42.732c0.012,0.359-0.252,0.647-0.672,0.647c-0.371,0-0.636-0.288-0.636-0.647c0-0.372,0.276-0.66,0.66-0.66
				C256.916,42.072,257.168,42.36,257.168,42.732z M255.993,50.168v-5.805h1.055v5.805H255.993z"/>
			<path d="M258.801,41.652h1.055v8.516h-1.055V41.652z"/>
			<path d="M266.646,41.652v7.017c0,0.516,0.012,1.104,0.048,1.499h-0.947l-0.048-1.008h-0.024c-0.323,0.648-1.031,1.14-1.979,1.14
				c-1.403,0-2.482-1.188-2.482-2.95c-0.013-1.931,1.188-3.118,2.603-3.118c0.888,0,1.487,0.42,1.751,0.888h0.023v-3.467H266.646z
				 M265.59,46.726c0-0.132-0.012-0.312-0.048-0.443c-0.155-0.672-0.731-1.224-1.523-1.224c-1.091,0-1.738,0.96-1.738,2.243
				c0,1.175,0.575,2.146,1.715,2.146c0.708,0,1.355-0.468,1.547-1.259c0.036-0.145,0.048-0.288,0.048-0.456V46.726z"/>
			<path d="M272.215,42.696v1.667h1.512v0.804h-1.512v3.13c0,0.72,0.204,1.128,0.792,1.128c0.275,0,0.479-0.036,0.611-0.072
				l0.048,0.791c-0.203,0.084-0.527,0.145-0.936,0.145c-0.491,0-0.887-0.156-1.139-0.444c-0.3-0.312-0.408-0.827-0.408-1.511v-3.166
				h-0.899v-0.804h0.899v-1.392L272.215,42.696z"/>
			<path d="M274.916,41.652h1.055v3.622h0.024c0.168-0.3,0.432-0.563,0.756-0.743c0.312-0.18,0.684-0.3,1.079-0.3
				c0.779,0,2.026,0.479,2.026,2.482v3.454h-1.055v-3.334c0-0.936-0.348-1.728-1.344-1.728c-0.684,0-1.224,0.48-1.415,1.056
				c-0.06,0.144-0.072,0.3-0.072,0.504v3.502h-1.055V41.652z"/>
			<path d="M282.163,47.457c0.024,1.428,0.936,2.016,1.991,2.016c0.756,0,1.211-0.132,1.607-0.3l0.18,0.755
				c-0.372,0.168-1.008,0.36-1.931,0.36c-1.787,0-2.854-1.176-2.854-2.927s1.031-3.13,2.723-3.13c1.895,0,2.398,1.667,2.398,2.734
				c0,0.216-0.024,0.384-0.036,0.491H282.163z M285.258,46.702c0.012-0.672-0.276-1.716-1.463-1.716
				c-1.067,0-1.535,0.984-1.619,1.716H285.258z"/>
			<path d="M291.307,42.732c0.012,0.359-0.252,0.647-0.672,0.647c-0.371,0-0.636-0.288-0.636-0.647c0-0.372,0.276-0.66,0.66-0.66
				C291.055,42.072,291.307,42.36,291.307,42.732z M290.132,50.168v-5.805h1.055v5.805H290.132z"/>
			<path d="M292.94,45.935c0-0.6-0.013-1.092-0.049-1.571h0.936l0.061,0.959h0.023c0.288-0.552,0.96-1.091,1.919-1.091
				c0.804,0,2.051,0.479,2.051,2.471v3.466h-1.055v-3.346c0-0.936-0.349-1.716-1.344-1.716c-0.695,0-1.235,0.492-1.415,1.08
				c-0.048,0.132-0.072,0.312-0.072,0.491v3.49h-1.055V45.935z"/>
			<path d="M299.852,44.363l1.14,3.262c0.191,0.528,0.348,1.008,0.468,1.487h0.036c0.132-0.479,0.3-0.959,0.491-1.487l1.128-3.262
				h1.103l-2.278,5.805h-1.008l-2.206-5.805H299.852z"/>
			<path d="M310.349,47.218c0,2.146-1.487,3.082-2.891,3.082c-1.571,0-2.782-1.151-2.782-2.986c0-1.942,1.271-3.082,2.878-3.082
				C309.221,44.231,310.349,45.442,310.349,47.218z M305.743,47.277c0,1.271,0.731,2.231,1.763,2.231
				c1.008,0,1.763-0.948,1.763-2.255c0-0.983-0.491-2.231-1.738-2.231C306.282,45.022,305.743,46.174,305.743,47.277z"/>
			<path d="M312.858,42.732c0.012,0.359-0.252,0.647-0.672,0.647c-0.371,0-0.636-0.288-0.636-0.647c0-0.372,0.276-0.66,0.66-0.66
				C312.606,42.072,312.858,42.36,312.858,42.732z M311.684,50.168v-5.805h1.055v5.805H311.684z"/>
			<path d="M318.63,49.952c-0.276,0.144-0.888,0.336-1.668,0.336c-1.751,0-2.89-1.188-2.89-2.963c0-1.787,1.223-3.082,3.118-3.082
				c0.623,0,1.175,0.156,1.463,0.3l-0.24,0.815c-0.251-0.144-0.647-0.275-1.223-0.275c-1.331,0-2.051,0.983-2.051,2.194
				c0,1.344,0.863,2.171,2.015,2.171c0.6,0,0.995-0.156,1.295-0.288L318.63,49.952z"/>
			<path d="M320.383,47.457c0.024,1.428,0.936,2.016,1.991,2.016c0.756,0,1.211-0.132,1.607-0.3l0.18,0.755
				c-0.372,0.168-1.008,0.36-1.931,0.36c-1.787,0-2.854-1.176-2.854-2.927s1.031-3.13,2.723-3.13c1.895,0,2.398,1.667,2.398,2.734
				c0,0.216-0.024,0.384-0.036,0.491H320.383z M323.478,46.702c0.012-0.672-0.276-1.716-1.463-1.716
				c-1.067,0-1.535,0.984-1.619,1.716H323.478z"/>
		</g>
	</g>
	<g>
		<g>
			<path d="M159.616,20.634h-2.318l-0.611,1.94h-0.824l2.153-6.362h0.912l2.154,6.362h-0.863L159.616,20.634z M159.412,19.984
				l-0.3-0.97c-0.117-0.355-0.227-0.709-0.33-1.062c-0.104-0.352-0.207-0.713-0.31-1.081h-0.039
				c-0.097,0.368-0.197,0.729-0.301,1.081c-0.104,0.353-0.213,0.707-0.33,1.062l-0.301,0.97H159.412z"/>
			<path d="M161.904,17.86h0.66l0.067,0.679h0.029c0.227-0.226,0.464-0.416,0.713-0.567s0.538-0.228,0.868-0.228
				c0.498,0,0.861,0.155,1.091,0.466c0.229,0.31,0.345,0.77,0.345,1.377v2.987h-0.796v-2.88c0-0.446-0.071-0.768-0.213-0.965
				c-0.143-0.197-0.369-0.295-0.679-0.295c-0.246,0-0.463,0.062-0.65,0.184c-0.188,0.123-0.4,0.304-0.64,0.543v3.414h-0.796V17.86z"
				/>
			<path d="M168.819,20.227c0-0.394,0.06-0.745,0.18-1.052c0.119-0.307,0.279-0.567,0.479-0.781s0.432-0.375,0.693-0.485
				s0.538-0.165,0.829-0.165s0.567,0.055,0.83,0.165c0.262,0.11,0.492,0.271,0.693,0.485c0.2,0.213,0.36,0.474,0.479,0.781
				c0.12,0.307,0.18,0.658,0.18,1.052c0,0.388-0.06,0.736-0.18,1.042c-0.119,0.308-0.279,0.566-0.479,0.776
				c-0.201,0.21-0.432,0.371-0.693,0.48c-0.263,0.11-0.539,0.165-0.83,0.165s-0.567-0.055-0.829-0.165s-0.493-0.27-0.693-0.48
				c-0.2-0.21-0.36-0.468-0.479-0.776C168.879,20.962,168.819,20.615,168.819,20.227z M169.644,20.227
				c0,0.271,0.032,0.518,0.097,0.737s0.157,0.409,0.276,0.567c0.12,0.158,0.264,0.281,0.432,0.369
				c0.168,0.087,0.353,0.131,0.553,0.131c0.201,0,0.385-0.044,0.553-0.131c0.169-0.087,0.312-0.21,0.432-0.369
				c0.12-0.159,0.212-0.348,0.276-0.567c0.065-0.22,0.098-0.466,0.098-0.737s-0.032-0.519-0.098-0.742
				c-0.064-0.223-0.156-0.416-0.276-0.577c-0.119-0.162-0.263-0.286-0.432-0.374c-0.168-0.087-0.352-0.131-0.553-0.131
				c-0.2,0-0.385,0.043-0.553,0.131s-0.312,0.212-0.432,0.374c-0.119,0.162-0.212,0.354-0.276,0.577S169.644,19.955,169.644,20.227z
				"/>
			<path d="M174.425,17.86h0.66l0.067,0.854h0.029c0.161-0.297,0.357-0.534,0.587-0.708c0.229-0.175,0.479-0.262,0.752-0.262
				c0.188,0,0.355,0.033,0.504,0.097l-0.155,0.698c-0.077-0.026-0.148-0.045-0.213-0.058c-0.065-0.013-0.146-0.02-0.243-0.02
				c-0.2,0-0.409,0.081-0.625,0.243c-0.217,0.162-0.406,0.443-0.567,0.844v3.026h-0.796V17.86z"/>
			<path d="M177.354,20.227c0-0.381,0.057-0.726,0.17-1.033c0.112-0.307,0.263-0.567,0.45-0.781s0.404-0.378,0.65-0.495
				c0.245-0.116,0.504-0.175,0.775-0.175s0.508,0.049,0.708,0.146c0.2,0.097,0.404,0.229,0.611,0.398l-0.039-0.805v-1.813h0.806
				v6.905h-0.66l-0.067-0.553h-0.029c-0.188,0.181-0.402,0.338-0.646,0.47c-0.242,0.132-0.502,0.199-0.78,0.199
				c-0.595,0-1.068-0.213-1.421-0.64S177.354,21.016,177.354,20.227z M178.179,20.217c0,0.569,0.113,1.012,0.34,1.329
				c0.226,0.317,0.546,0.475,0.96,0.475c0.22,0,0.427-0.053,0.62-0.16c0.194-0.106,0.389-0.27,0.582-0.49v-2.463
				c-0.2-0.181-0.393-0.309-0.577-0.383c-0.184-0.074-0.373-0.111-0.567-0.111c-0.188,0-0.363,0.043-0.528,0.131
				s-0.309,0.21-0.432,0.369c-0.123,0.158-0.22,0.348-0.291,0.567S178.179,19.945,178.179,20.217z"/>
			<path d="M182.728,20.227c0-0.388,0.06-0.735,0.18-1.042c0.119-0.307,0.277-0.567,0.475-0.781s0.422-0.376,0.674-0.49
				c0.253-0.113,0.515-0.17,0.786-0.17c0.297,0,0.563,0.052,0.8,0.155c0.236,0.104,0.434,0.252,0.592,0.446s0.279,0.427,0.363,0.698
				s0.127,0.576,0.127,0.912c0,0.175-0.01,0.32-0.029,0.437h-3.182c0.032,0.511,0.189,0.915,0.471,1.212s0.648,0.446,1.101,0.446
				c0.227,0,0.435-0.034,0.626-0.102c0.19-0.068,0.373-0.157,0.548-0.267l0.281,0.523c-0.207,0.129-0.437,0.243-0.688,0.339
				c-0.252,0.097-0.54,0.146-0.863,0.146c-0.317,0-0.613-0.057-0.888-0.169c-0.274-0.113-0.514-0.275-0.718-0.485
				c-0.203-0.21-0.363-0.467-0.479-0.771C182.785,20.96,182.728,20.615,182.728,20.227z M186.025,19.868
				c0-0.485-0.103-0.855-0.306-1.11c-0.204-0.255-0.49-0.383-0.858-0.383c-0.169,0-0.328,0.034-0.48,0.102s-0.289,0.165-0.412,0.291
				s-0.225,0.281-0.306,0.465c-0.081,0.185-0.134,0.396-0.16,0.635H186.025z"/>
			<path d="M187.887,17.86h0.66l0.067,0.854h0.029c0.161-0.297,0.357-0.534,0.587-0.708c0.229-0.175,0.479-0.262,0.752-0.262
				c0.188,0,0.355,0.033,0.504,0.097l-0.155,0.698c-0.077-0.026-0.148-0.045-0.213-0.058c-0.065-0.013-0.146-0.02-0.243-0.02
				c-0.2,0-0.409,0.081-0.625,0.243c-0.217,0.162-0.406,0.443-0.567,0.844v3.026h-0.796V17.86z"/>
			<path d="M155.654,27.307h0.795v1.881l-0.029,0.97c0.226-0.213,0.462-0.396,0.708-0.548c0.246-0.152,0.533-0.228,0.863-0.228
				c0.498,0,0.861,0.155,1.091,0.466c0.229,0.31,0.344,0.77,0.344,1.377v2.987h-0.795v-2.881c0-0.446-0.071-0.767-0.213-0.965
				c-0.143-0.197-0.369-0.295-0.679-0.295c-0.246,0-0.462,0.062-0.65,0.184c-0.188,0.123-0.401,0.304-0.64,0.543v3.414h-0.795
				V27.307z"/>
			<path d="M160.697,32.989c0-0.517,0.231-0.912,0.693-1.188s1.198-0.467,2.206-0.577c0-0.148-0.014-0.294-0.043-0.437
				c-0.029-0.142-0.081-0.268-0.155-0.378s-0.173-0.199-0.296-0.267s-0.281-0.102-0.476-0.102c-0.277,0-0.535,0.052-0.771,0.155
				c-0.236,0.104-0.448,0.22-0.636,0.349l-0.319-0.553c0.22-0.142,0.487-0.28,0.805-0.412c0.316-0.133,0.666-0.199,1.047-0.199
				c0.576,0,0.993,0.176,1.252,0.529c0.258,0.353,0.388,0.823,0.388,1.411v2.891h-0.659l-0.068-0.562h-0.02
				c-0.227,0.188-0.471,0.348-0.732,0.48c-0.262,0.132-0.538,0.198-0.829,0.198c-0.4,0-0.732-0.116-0.994-0.349
				S160.697,33.417,160.697,32.989z M161.482,32.932c0,0.271,0.079,0.466,0.238,0.582c0.158,0.116,0.354,0.175,0.587,0.175
				c0.226,0,0.441-0.054,0.645-0.16c0.204-0.107,0.419-0.264,0.645-0.471v-1.309c-0.394,0.051-0.727,0.113-0.998,0.184
				c-0.272,0.071-0.49,0.155-0.655,0.252c-0.165,0.098-0.283,0.209-0.354,0.335C161.519,32.646,161.482,32.783,161.482,32.932z"/>
			<path d="M165.77,33.146c0.207,0.168,0.419,0.304,0.636,0.406c0.217,0.104,0.467,0.156,0.751,0.156
				c0.311,0,0.544-0.071,0.699-0.214c0.154-0.142,0.232-0.316,0.232-0.523c0-0.123-0.032-0.229-0.097-0.32
				c-0.065-0.091-0.147-0.169-0.248-0.237c-0.1-0.068-0.215-0.128-0.344-0.18c-0.13-0.052-0.259-0.104-0.389-0.155
				c-0.168-0.058-0.336-0.124-0.504-0.198s-0.318-0.166-0.451-0.271c-0.133-0.107-0.24-0.231-0.324-0.374
				c-0.085-0.142-0.127-0.313-0.127-0.514c0-0.187,0.037-0.363,0.112-0.528c0.074-0.165,0.181-0.307,0.319-0.427
				c0.14-0.12,0.309-0.213,0.51-0.281c0.2-0.068,0.427-0.102,0.679-0.102c0.297,0,0.57,0.052,0.819,0.155
				c0.249,0.104,0.464,0.229,0.646,0.378l-0.379,0.504c-0.161-0.123-0.329-0.223-0.504-0.301s-0.365-0.116-0.572-0.116
				c-0.298,0-0.516,0.068-0.654,0.204c-0.14,0.136-0.209,0.294-0.209,0.475c0,0.11,0.029,0.205,0.087,0.286
				c0.059,0.081,0.136,0.152,0.233,0.213c0.097,0.062,0.208,0.117,0.334,0.166c0.126,0.048,0.258,0.098,0.394,0.149
				c0.168,0.065,0.337,0.133,0.509,0.204c0.171,0.07,0.325,0.16,0.461,0.267s0.247,0.237,0.334,0.393
				c0.088,0.155,0.131,0.343,0.131,0.562c0,0.194-0.037,0.375-0.111,0.544c-0.074,0.168-0.184,0.316-0.329,0.445
				s-0.327,0.231-0.544,0.306c-0.216,0.074-0.464,0.111-0.741,0.111c-0.337,0-0.656-0.062-0.961-0.185
				c-0.304-0.122-0.568-0.277-0.795-0.465L165.77,33.146z"/>
			<path d="M171.918,27.307h0.796v1.881l-0.02,0.854c0.213-0.188,0.446-0.344,0.698-0.47c0.252-0.126,0.511-0.189,0.775-0.189
				c0.305,0,0.572,0.057,0.806,0.17c0.232,0.113,0.428,0.275,0.587,0.485c0.158,0.21,0.277,0.462,0.358,0.756
				c0.081,0.294,0.121,0.622,0.121,0.984c0,0.401-0.055,0.761-0.165,1.077c-0.109,0.316-0.259,0.585-0.445,0.805
				c-0.188,0.22-0.404,0.387-0.65,0.5c-0.246,0.112-0.504,0.169-0.775,0.169c-0.221,0-0.448-0.05-0.685-0.15
				c-0.235-0.101-0.457-0.243-0.664-0.431h-0.029l-0.067,0.465h-0.641V27.307z M172.714,33.165c0.207,0.181,0.412,0.309,0.615,0.383
				c0.204,0.074,0.384,0.111,0.539,0.111c0.193,0,0.373-0.044,0.538-0.131c0.165-0.088,0.307-0.21,0.427-0.369
				c0.119-0.158,0.213-0.354,0.281-0.586c0.067-0.233,0.102-0.495,0.102-0.786c0-0.259-0.022-0.495-0.067-0.708
				c-0.046-0.213-0.118-0.396-0.219-0.548s-0.229-0.27-0.388-0.354c-0.159-0.084-0.348-0.126-0.567-0.126
				c-0.382,0-0.802,0.213-1.261,0.64V33.165z"/>
			<path d="M176.952,31.864c0-0.387,0.06-0.735,0.18-1.042c0.119-0.307,0.277-0.567,0.475-0.781s0.422-0.376,0.674-0.49
				c0.253-0.113,0.515-0.17,0.786-0.17c0.297,0,0.563,0.052,0.8,0.155c0.236,0.104,0.434,0.252,0.592,0.446s0.279,0.427,0.363,0.698
				s0.127,0.575,0.127,0.911c0,0.176-0.01,0.32-0.029,0.438h-3.182c0.032,0.51,0.189,0.914,0.471,1.212s0.648,0.446,1.101,0.446
				c0.227,0,0.435-0.034,0.626-0.102c0.19-0.068,0.373-0.157,0.548-0.268l0.281,0.523c-0.207,0.13-0.437,0.243-0.688,0.34
				c-0.252,0.098-0.54,0.146-0.863,0.146c-0.317,0-0.613-0.057-0.888-0.169c-0.274-0.113-0.514-0.275-0.718-0.485
				c-0.203-0.21-0.363-0.468-0.479-0.771C177.01,32.599,176.952,32.253,176.952,31.864z M180.25,31.506
				c0-0.485-0.103-0.855-0.306-1.11c-0.204-0.255-0.49-0.383-0.858-0.383c-0.169,0-0.328,0.034-0.48,0.102s-0.289,0.165-0.412,0.291
				s-0.225,0.281-0.306,0.465c-0.081,0.185-0.134,0.396-0.16,0.635H180.25z"/>
			<path d="M181.763,31.864c0-0.387,0.06-0.735,0.18-1.042c0.119-0.307,0.277-0.567,0.475-0.781s0.422-0.376,0.674-0.49
				c0.253-0.113,0.515-0.17,0.786-0.17c0.297,0,0.563,0.052,0.8,0.155c0.236,0.104,0.434,0.252,0.592,0.446s0.279,0.427,0.363,0.698
				s0.127,0.575,0.127,0.911c0,0.176-0.01,0.32-0.029,0.438h-3.182c0.032,0.51,0.189,0.914,0.471,1.212s0.648,0.446,1.101,0.446
				c0.227,0,0.435-0.034,0.626-0.102c0.19-0.068,0.373-0.157,0.548-0.268l0.281,0.523c-0.207,0.13-0.437,0.243-0.688,0.34
				c-0.252,0.098-0.54,0.146-0.863,0.146c-0.317,0-0.613-0.057-0.888-0.169c-0.274-0.113-0.514-0.275-0.718-0.485
				c-0.203-0.21-0.363-0.468-0.479-0.771C181.82,32.599,181.763,32.253,181.763,31.864z M185.061,31.506
				c0-0.485-0.103-0.855-0.306-1.11c-0.204-0.255-0.49-0.383-0.858-0.383c-0.169,0-0.328,0.034-0.48,0.102s-0.289,0.165-0.412,0.291
				s-0.225,0.281-0.306,0.465c-0.081,0.185-0.134,0.396-0.16,0.635H185.061z"/>
			<path d="M186.922,29.499h0.66l0.067,0.679h0.029c0.227-0.226,0.464-0.416,0.713-0.567s0.538-0.228,0.868-0.228
				c0.498,0,0.861,0.155,1.091,0.466c0.229,0.31,0.345,0.77,0.345,1.377v2.987h-0.796v-2.881c0-0.446-0.071-0.767-0.213-0.965
				c-0.143-0.197-0.369-0.295-0.679-0.295c-0.246,0-0.463,0.062-0.65,0.184c-0.188,0.123-0.4,0.304-0.64,0.543v3.414h-0.796V29.499z
				"/>
			<path d="M161.12,46.248v1.591h-0.796v-6.701h0.659l0.068,0.543h0.029c0.213-0.182,0.447-0.336,0.703-0.466
				s0.521-0.194,0.799-0.194c0.305,0,0.572,0.057,0.807,0.17c0.232,0.113,0.426,0.275,0.582,0.484
				c0.154,0.211,0.271,0.463,0.354,0.757c0.08,0.294,0.121,0.626,0.121,0.994c0,0.401-0.055,0.759-0.166,1.071
				c-0.109,0.314-0.258,0.581-0.445,0.801s-0.404,0.387-0.65,0.5c-0.246,0.112-0.504,0.169-0.775,0.169
				c-0.221,0-0.438-0.048-0.654-0.146c-0.217-0.097-0.436-0.229-0.654-0.397L161.12,46.248z M161.12,44.804
				c0.213,0.181,0.42,0.309,0.619,0.383c0.201,0.074,0.379,0.111,0.535,0.111c0.193,0,0.373-0.044,0.537-0.131
				c0.166-0.088,0.307-0.21,0.428-0.369c0.119-0.158,0.213-0.354,0.281-0.586c0.066-0.233,0.102-0.495,0.102-0.786
				c0-0.259-0.023-0.495-0.068-0.708s-0.117-0.396-0.219-0.548c-0.1-0.151-0.229-0.271-0.387-0.354
				c-0.16-0.084-0.348-0.125-0.568-0.125c-0.199,0-0.402,0.055-0.605,0.164c-0.203,0.11-0.422,0.269-0.654,0.476V44.804z"/>
			<path d="M165.706,38.945h0.796v6.013c0,0.13,0.022,0.221,0.067,0.271c0.046,0.053,0.098,0.078,0.155,0.078
				c0.026,0,0.05,0,0.073,0c0.022,0,0.057-0.006,0.102-0.02l0.106,0.602c-0.052,0.025-0.113,0.045-0.185,0.059
				c-0.07,0.012-0.161,0.019-0.271,0.019c-0.304,0-0.521-0.091-0.649-0.271c-0.13-0.181-0.194-0.446-0.194-0.796V38.945z"/>
			<path d="M167.946,44.628c0-0.517,0.231-0.912,0.693-1.188s1.198-0.467,2.206-0.577c0-0.148-0.014-0.294-0.043-0.437
				s-0.081-0.268-0.155-0.378s-0.173-0.198-0.296-0.267s-0.281-0.102-0.476-0.102c-0.277,0-0.535,0.051-0.771,0.154
				c-0.236,0.104-0.448,0.221-0.636,0.35l-0.319-0.553c0.22-0.143,0.487-0.279,0.805-0.412c0.316-0.133,0.666-0.199,1.047-0.199
				c0.576,0,0.993,0.176,1.252,0.529c0.258,0.352,0.388,0.822,0.388,1.41v2.891h-0.659l-0.068-0.562h-0.02
				c-0.227,0.188-0.471,0.348-0.732,0.48c-0.262,0.132-0.538,0.198-0.829,0.198c-0.4,0-0.732-0.116-0.994-0.349
				S167.946,45.056,167.946,44.628z M168.731,44.57c0,0.271,0.079,0.466,0.238,0.582c0.158,0.116,0.354,0.175,0.587,0.175
				c0.226,0,0.441-0.054,0.645-0.16c0.204-0.107,0.419-0.264,0.645-0.471v-1.309c-0.394,0.051-0.727,0.113-0.998,0.184
				c-0.272,0.071-0.49,0.155-0.655,0.252c-0.165,0.098-0.283,0.209-0.354,0.335C168.768,44.284,168.731,44.422,168.731,44.57z"/>
			<path d="M172.796,43.503c0-0.394,0.062-0.744,0.185-1.052c0.122-0.308,0.287-0.567,0.494-0.78
				c0.207-0.214,0.447-0.375,0.723-0.485c0.274-0.11,0.563-0.165,0.868-0.165c0.311,0,0.577,0.057,0.8,0.17
				c0.224,0.113,0.415,0.244,0.577,0.393l-0.397,0.514c-0.143-0.122-0.29-0.223-0.441-0.301c-0.152-0.077-0.321-0.115-0.509-0.115
				c-0.214,0-0.411,0.043-0.592,0.131c-0.182,0.087-0.337,0.211-0.466,0.373s-0.231,0.354-0.306,0.577s-0.111,0.47-0.111,0.741
				s0.035,0.518,0.106,0.738c0.071,0.219,0.17,0.408,0.296,0.566s0.279,0.281,0.461,0.369c0.181,0.087,0.378,0.131,0.592,0.131
				c0.226,0,0.432-0.047,0.615-0.141c0.185-0.094,0.348-0.205,0.49-0.335l0.358,0.524c-0.213,0.188-0.45,0.336-0.713,0.445
				c-0.262,0.11-0.535,0.165-0.819,0.165c-0.311,0-0.602-0.055-0.873-0.165c-0.271-0.109-0.506-0.27-0.703-0.48
				c-0.197-0.209-0.353-0.468-0.465-0.775C172.853,44.239,172.796,43.892,172.796,43.503z"/>
			<path d="M177.015,43.503c0-0.387,0.06-0.734,0.18-1.042c0.119-0.308,0.277-0.567,0.475-0.78c0.197-0.214,0.422-0.377,0.674-0.49
				c0.253-0.113,0.515-0.17,0.786-0.17c0.297,0,0.563,0.053,0.8,0.155c0.236,0.104,0.434,0.253,0.592,0.446s0.279,0.427,0.363,0.698
				s0.127,0.575,0.127,0.911c0,0.176-0.01,0.32-0.029,0.438H177.8c0.032,0.51,0.189,0.914,0.471,1.212s0.648,0.446,1.101,0.446
				c0.227,0,0.435-0.034,0.626-0.102c0.19-0.068,0.373-0.157,0.548-0.268l0.281,0.523c-0.207,0.13-0.437,0.243-0.688,0.34
				c-0.252,0.098-0.54,0.146-0.863,0.146c-0.317,0-0.613-0.057-0.888-0.169c-0.274-0.113-0.514-0.275-0.718-0.485
				c-0.203-0.21-0.363-0.468-0.479-0.771C177.072,44.237,177.015,43.892,177.015,43.503z M180.312,43.145
				c0-0.485-0.103-0.854-0.306-1.11c-0.204-0.256-0.49-0.383-0.858-0.383c-0.169,0-0.328,0.033-0.48,0.102s-0.289,0.165-0.412,0.291
				s-0.225,0.281-0.306,0.465c-0.081,0.186-0.134,0.396-0.16,0.636H180.312z"/>
			<path d="M181.835,43.503c0-0.381,0.057-0.725,0.17-1.032c0.112-0.308,0.263-0.567,0.45-0.78c0.188-0.214,0.404-0.379,0.65-0.495
				c0.245-0.116,0.504-0.175,0.775-0.175s0.508,0.049,0.708,0.146s0.404,0.229,0.611,0.397l-0.039-0.805v-1.813h0.806v6.905h-0.66
				l-0.067-0.553h-0.029c-0.188,0.182-0.402,0.338-0.646,0.471c-0.242,0.132-0.502,0.198-0.78,0.198
				c-0.595,0-1.068-0.214-1.421-0.64C182.011,44.899,181.835,44.292,181.835,43.503z M182.659,43.493c0,0.57,0.113,1.013,0.34,1.33
				c0.226,0.316,0.546,0.475,0.96,0.475c0.22,0,0.427-0.053,0.62-0.16c0.194-0.106,0.389-0.27,0.582-0.49v-2.463
				c-0.2-0.182-0.393-0.309-0.577-0.383c-0.184-0.074-0.373-0.111-0.567-0.111c-0.188,0-0.363,0.043-0.528,0.131
				c-0.165,0.087-0.309,0.209-0.432,0.368c-0.123,0.158-0.22,0.348-0.291,0.567S182.659,43.222,182.659,43.493z"/>
		</g>
		<circle fill="none" stroke="#333333" stroke-miterlimit="10" cx="173.146" cy="30.5" r="29.5"/>
	</g>
	<path fill="#999999" d="M124.704,40.765l5.41-10l-5.41-10h4.59l5.41,10l-5.41,10H124.704z"/>
	<path fill="#999999" d="M212.319,23.5l5.41-7.474l-5.41-7.474h4.59l5.41,7.474l-5.41,7.474H212.319z"/>
	<path fill="#999999" d="M212.319,53.592l5.41-7.475l-5.41-7.474h4.59l5.41,7.474l-5.41,7.475H212.319z"/>
</g>
</svg>
