<?xml version="1.0" encoding="utf-8"?>
<!-- Generator: Adobe Illustrator 16.0.0, SVG Export Plug-In . SVG Version: 6.00 Build 0)  -->
<!DOCTYPE svg PUBLIC "-//W3C//DTD SVG 1.1//EN" "http://www.w3.org/Graphics/SVG/1.1/DTD/svg11.dtd">
<svg version="1.1" id="Calque_1" xmlns="http://www.w3.org/2000/svg" xmlns:xlink="http://www.w3.org/1999/xlink" x="0px" y="0px"
	 width="538.129px" height="84.008px" viewBox="0 0 538.129 84.008" enable-background="new 0 0 538.129 84.008"
	 xml:space="preserve">
<g>
	<line fill="none" stroke="#000000" stroke-width="2" stroke-miterlimit="10" x1="-0.326" y1="25.712" x2="137.806" y2="25.712"/>
	<line fill="none" stroke="#000000" stroke-width="2" stroke-miterlimit="10" x1="-0.326" y1="46.674" x2="137.806" y2="46.674"/>
	<line fill="none" stroke="#000000" stroke-width="2" stroke-miterlimit="10" x1="-0.326" y1="67.097" x2="137.806" y2="67.097"/>
</g>
<circle fill="none" stroke="#000000" stroke-width="2" stroke-miterlimit="10" cx="269.592" cy="46.544" r="34.588"/>
<g>
	<path d="M254.255,40.319h5.292v0.979h-4.13v2.885h3.485v0.993h-3.485v3.333h4.271v0.994h-5.433V40.319L254.255,40.319z"/>
	<path d="M260.541,42.699h1.189l1.289,3.863c0.103,0.336,0.207,0.672,0.314,1.008c0.107,0.337,0.212,0.667,0.314,0.994h0.057
		c0.104-0.327,0.205-0.657,0.309-0.994c0.103-0.336,0.204-0.672,0.307-1.008l1.289-3.863h1.134l-2.408,6.805h-1.344L260.541,42.699z
		"/>
	<path d="M267.499,46.115c0-0.561,0.086-1.062,0.259-1.506c0.174-0.442,0.401-0.818,0.686-1.127
		c0.285-0.309,0.609-0.543,0.974-0.707c0.364-0.163,0.742-0.244,1.134-0.244c0.43,0,0.814,0.074,1.154,0.224
		c0.342,0.148,0.625,0.364,0.854,0.645c0.229,0.28,0.401,0.616,0.524,1.009c0.121,0.392,0.183,0.83,0.183,1.315
		c0,0.252-0.015,0.462-0.043,0.63h-4.592c0.047,0.736,0.273,1.319,0.68,1.75c0.405,0.431,0.936,0.646,1.588,0.646
		c0.326,0,0.629-0.05,0.903-0.146c0.273-0.1,0.537-0.228,0.791-0.387l0.404,0.757c-0.3,0.188-0.629,0.351-0.994,0.489
		c-0.362,0.142-0.778,0.211-1.246,0.211c-0.457,0-0.883-0.082-1.28-0.246c-0.396-0.161-0.742-0.396-1.035-0.698
		c-0.295-0.304-0.525-0.674-0.693-1.112C267.583,47.174,267.499,46.675,267.499,46.115z M272.258,45.597
		c0-0.7-0.146-1.234-0.439-1.604c-0.295-0.369-0.707-0.554-1.237-0.554c-0.244,0-0.476,0.05-0.692,0.146
		c-0.22,0.099-0.418,0.238-0.596,0.42c-0.177,0.183-0.324,0.406-0.441,0.673c-0.117,0.266-0.193,0.571-0.23,0.917L272.258,45.597
		L272.258,45.597z"/>
	<path d="M274.947,42.699h0.951l0.099,0.979h0.043c0.325-0.326,0.67-0.601,1.028-0.819c0.357-0.219,0.775-0.328,1.252-0.328
		c0.72,0,1.244,0.224,1.576,0.672c0.33,0.447,0.496,1.11,0.496,1.987v4.312h-1.147v-4.159c0-0.644-0.103-1.107-0.308-1.393
		c-0.207-0.285-0.533-0.428-0.979-0.428c-0.354,0-0.668,0.089-0.938,0.267c-0.271,0.177-0.58,0.438-0.924,0.784v4.929h-1.147
		L274.947,42.699L274.947,42.699z"/>
	<path d="M282.801,43.637h-1.008v-0.868l1.062-0.069l0.141-1.904h0.967V42.7h1.834v0.938h-1.834v3.779
		c0,0.42,0.076,0.745,0.23,0.974c0.152,0.229,0.428,0.343,0.818,0.343c0.12,0,0.252-0.02,0.393-0.056
		c0.141-0.037,0.266-0.08,0.379-0.128l0.223,0.869c-0.188,0.063-0.389,0.123-0.607,0.174c-0.219,0.053-0.438,0.078-0.649,0.078
		c-0.365,0-0.67-0.057-0.918-0.168c-0.246-0.111-0.447-0.268-0.603-0.463c-0.154-0.194-0.266-0.435-0.328-0.713
		c-0.065-0.281-0.1-0.59-0.1-0.926V43.637L282.801,43.637z"/>
</g>
<g>
	<path d="M54.558,9.135h-3.346l-0.882,2.801h-1.19l3.108-9.185h1.316l3.108,9.185h-1.246L54.558,9.135z M54.264,8.198l-0.434-1.4
		c-0.168-0.513-0.327-1.023-0.476-1.532c-0.149-0.51-0.299-1.029-0.448-1.562H52.85c-0.14,0.531-0.285,1.052-0.434,1.562
		c-0.149,0.509-0.308,1.021-0.476,1.532l-0.434,1.4H54.264z"/>
	<path d="M57.357,8.547c0-0.568,0.088-1.074,0.266-1.52C57.8,6.585,58.038,6.209,58.337,5.9c0.298-0.309,0.646-0.541,1.043-0.699
		c0.396-0.159,0.814-0.238,1.253-0.238c0.448,0,0.833,0.082,1.155,0.245c0.322,0.164,0.6,0.354,0.833,0.566l-0.574,0.742
		c-0.206-0.178-0.418-0.322-0.637-0.435c-0.219-0.111-0.464-0.168-0.735-0.168c-0.308,0-0.593,0.062-0.854,0.188
		c-0.261,0.126-0.485,0.307-0.672,0.539s-0.334,0.511-0.441,0.833c-0.107,0.321-0.161,0.679-0.161,1.07
		c0,0.393,0.051,0.747,0.154,1.063s0.245,0.592,0.427,0.818c0.182,0.229,0.403,0.406,0.665,0.532
		c0.261,0.126,0.546,0.188,0.854,0.188c0.327,0,0.623-0.066,0.889-0.202c0.266-0.136,0.501-0.297,0.707-0.483l0.518,0.756
		c-0.308,0.271-0.651,0.485-1.029,0.646C61.354,12.02,60.96,12.1,60.549,12.1c-0.448,0-0.868-0.08-1.26-0.237
		c-0.392-0.159-0.73-0.391-1.015-0.693c-0.285-0.302-0.509-0.676-0.672-1.12C57.439,9.609,57.357,9.107,57.357,8.547z"/>
	<path d="M64.441,6.069h-1.008V5.202l1.064-0.07l0.14-1.903h0.966v1.903h1.834V6.07h-1.834v3.78c0,0.42,0.077,0.743,0.231,0.974
		c0.154,0.229,0.427,0.343,0.819,0.343c0.121,0,0.252-0.02,0.392-0.057c0.14-0.036,0.266-0.078,0.378-0.126l0.224,0.868
		c-0.187,0.064-0.39,0.124-0.609,0.175c-0.219,0.052-0.437,0.077-0.651,0.077c-0.364,0-0.67-0.057-0.917-0.168
		c-0.248-0.111-0.448-0.267-0.602-0.462c-0.154-0.196-0.264-0.435-0.329-0.715c-0.065-0.279-0.098-0.588-0.098-0.924V6.069z"/>
	<path d="M69.565,3.731c-0.225,0-0.413-0.069-0.567-0.21s-0.23-0.316-0.23-0.531c0-0.225,0.076-0.404,0.23-0.539
		c0.154-0.136,0.343-0.203,0.567-0.203s0.413,0.067,0.566,0.203c0.154,0.135,0.231,0.314,0.231,0.539
		c0,0.215-0.077,0.392-0.231,0.531C69.979,3.662,69.789,3.731,69.565,3.731z M68.978,5.131h1.147v6.805h-1.147V5.131z"/>
	<path d="M71.916,8.547c0-0.568,0.087-1.074,0.26-1.52c0.172-0.442,0.403-0.818,0.692-1.127s0.623-0.541,1.001-0.699
		c0.378-0.159,0.777-0.238,1.197-0.238s0.819,0.08,1.197,0.238c0.378,0.157,0.711,0.392,1.001,0.699
		c0.289,0.309,0.52,0.685,0.692,1.127c0.173,0.444,0.26,0.95,0.26,1.52c0,0.561-0.087,1.062-0.26,1.505
		c-0.173,0.443-0.403,0.816-0.692,1.12c-0.29,0.305-0.623,0.535-1.001,0.693c-0.378,0.157-0.777,0.237-1.197,0.237
		s-0.819-0.08-1.197-0.237c-0.378-0.159-0.712-0.391-1.001-0.693c-0.289-0.302-0.521-0.676-0.692-1.12
		C72.003,9.609,71.916,9.107,71.916,8.547z M73.106,8.547c0,0.393,0.047,0.747,0.14,1.063c0.094,0.316,0.227,0.592,0.399,0.819
		c0.172,0.229,0.38,0.405,0.623,0.531c0.242,0.126,0.509,0.188,0.798,0.188s0.556-0.062,0.798-0.188
		c0.243-0.126,0.45-0.303,0.623-0.531c0.173-0.229,0.306-0.503,0.399-0.819c0.093-0.316,0.14-0.672,0.14-1.063
		c0-0.393-0.047-0.749-0.14-1.07c-0.094-0.322-0.227-0.601-0.399-0.833c-0.172-0.232-0.38-0.413-0.623-0.539
		c-0.242-0.126-0.509-0.188-0.798-0.188s-0.556,0.062-0.798,0.188c-0.243,0.126-0.45,0.307-0.623,0.539s-0.306,0.511-0.399,0.833
		C73.153,7.798,73.106,8.156,73.106,8.547z"/>
	<path d="M80.009,5.131h0.951l0.099,0.979h0.042c0.326-0.325,0.669-0.601,1.028-0.818s0.777-0.329,1.254-0.329
		c0.718,0,1.243,0.225,1.574,0.672c0.331,0.448,0.497,1.111,0.497,1.988v4.312h-1.147V7.777c0-0.645-0.104-1.107-0.309-1.394
		c-0.205-0.285-0.531-0.427-0.979-0.427c-0.355,0-0.668,0.089-0.938,0.267c-0.27,0.177-0.578,0.438-0.924,0.783v4.929H80.01
		L80.009,5.131L80.009,5.131z"/>
	<path d="M87.484,10.396c0.299,0.243,0.604,0.438,0.917,0.588c0.312,0.148,0.675,0.225,1.085,0.225c0.448,0,0.784-0.104,1.008-0.309
		c0.225-0.205,0.336-0.457,0.336-0.756c0-0.178-0.046-0.331-0.14-0.462c-0.094-0.132-0.212-0.245-0.356-0.344
		c-0.146-0.098-0.311-0.185-0.497-0.259c-0.188-0.075-0.374-0.148-0.561-0.225c-0.242-0.084-0.485-0.181-0.728-0.287
		c-0.243-0.106-0.46-0.237-0.651-0.393c-0.191-0.154-0.348-0.334-0.469-0.538c-0.121-0.206-0.183-0.453-0.183-0.742
		c0-0.271,0.054-0.524,0.161-0.764c0.107-0.237,0.262-0.442,0.462-0.615c0.201-0.174,0.446-0.309,0.735-0.406
		s0.616-0.146,0.98-0.146c0.429,0,0.823,0.075,1.183,0.225c0.359,0.148,0.67,0.332,0.931,0.546l-0.546,0.729
		c-0.233-0.177-0.476-0.321-0.728-0.435c-0.252-0.111-0.527-0.168-0.826-0.168c-0.43,0-0.744,0.099-0.945,0.294
		c-0.2,0.196-0.301,0.426-0.301,0.687c0,0.159,0.042,0.297,0.126,0.413c0.084,0.117,0.196,0.221,0.336,0.309
		c0.14,0.089,0.301,0.168,0.483,0.237c0.182,0.07,0.371,0.144,0.566,0.218c0.243,0.093,0.488,0.19,0.735,0.294
		s0.469,0.23,0.665,0.385c0.196,0.154,0.356,0.344,0.482,0.567c0.127,0.224,0.189,0.494,0.189,0.812
		c0,0.279-0.054,0.541-0.161,0.783c-0.107,0.243-0.266,0.458-0.476,0.645c-0.21,0.188-0.472,0.334-0.784,0.44
		s-0.67,0.161-1.071,0.161c-0.485,0-0.947-0.089-1.386-0.267c-0.439-0.177-0.821-0.4-1.148-0.672L87.484,10.396z"/>
</g>
<g>
	<path d="M424.149,5.94c0-0.736,0.102-1.399,0.307-1.987s0.49-1.087,0.854-1.498c0.365-0.411,0.798-0.727,1.298-0.945
		c0.498-0.219,1.043-0.328,1.631-0.328c0.559,0,1.049,0.113,1.469,0.343c0.42,0.229,0.766,0.492,1.037,0.791l-0.658,0.742
		c-0.242-0.262-0.512-0.47-0.805-0.623c-0.295-0.154-0.64-0.23-1.029-0.23c-0.438,0-0.836,0.086-1.188,0.259
		c-0.354,0.173-0.658,0.42-0.91,0.742c-0.252,0.321-0.447,0.712-0.588,1.169c-0.142,0.458-0.209,0.972-0.209,1.54
		c0,0.579,0.065,1.1,0.2,1.562c0.138,0.462,0.324,0.855,0.566,1.184c0.244,0.326,0.539,0.578,0.889,0.756
		c0.353,0.178,0.744,0.267,1.187,0.267c0.446,0,0.838-0.089,1.168-0.267c0.332-0.178,0.646-0.43,0.944-0.756l0.656,0.714
		c-0.36,0.42-0.772,0.747-1.229,0.979s-0.979,0.351-1.566,0.351c-0.58,0-1.113-0.106-1.604-0.322
		c-0.491-0.215-0.916-0.524-1.273-0.932c-0.359-0.405-0.641-0.904-0.842-1.497C424.25,7.356,424.149,6.687,424.149,5.94z"/>
	<path d="M432.059,7.144c0-0.568,0.086-1.075,0.261-1.52c0.172-0.442,0.401-0.818,0.69-1.127s0.623-0.541,1.002-0.7
		c0.377-0.158,0.775-0.237,1.195-0.237s0.82,0.08,1.197,0.237c0.379,0.159,0.713,0.393,1.002,0.7c0.289,0.309,0.52,0.685,0.69,1.127
		c0.175,0.443,0.261,0.95,0.261,1.52c0,0.561-0.086,1.062-0.261,1.505c-0.172,0.442-0.401,0.815-0.69,1.12s-0.623,0.535-1.002,0.692
		c-0.377,0.158-0.777,0.238-1.197,0.238s-0.818-0.08-1.195-0.238c-0.379-0.158-0.713-0.391-1.002-0.692
		c-0.289-0.303-0.52-0.677-0.69-1.12C432.147,8.205,432.059,7.704,432.059,7.144z M433.249,7.144c0,0.393,0.047,0.747,0.141,1.063
		c0.095,0.316,0.228,0.591,0.398,0.818c0.172,0.229,0.381,0.406,0.623,0.532s0.508,0.188,0.797,0.188s0.557-0.062,0.799-0.188
		s0.449-0.304,0.623-0.532c0.172-0.229,0.305-0.502,0.398-0.818s0.141-0.672,0.141-1.063c0-0.393-0.047-0.749-0.141-1.07
		c-0.095-0.322-0.228-0.601-0.398-0.833c-0.174-0.233-0.381-0.413-0.623-0.539s-0.51-0.188-0.799-0.188s-0.555,0.062-0.797,0.188
		s-0.451,0.306-0.623,0.539c-0.174,0.232-0.307,0.511-0.398,0.833C433.295,6.395,433.249,6.752,433.249,7.144z"/>
	<path d="M440.151,3.728h0.95l0.099,0.979h0.043c0.326-0.326,0.67-0.601,1.028-0.818c0.357-0.22,0.775-0.329,1.253-0.329
		c0.719,0,1.243,0.225,1.573,0.672c0.332,0.448,0.498,1.11,0.498,1.988v4.312h-1.147V6.374c0-0.645-0.104-1.107-0.31-1.394
		s-0.53-0.427-0.979-0.427c-0.355,0-0.668,0.089-0.938,0.266c-0.27,0.178-0.58,0.438-0.926,0.784v4.929h-1.146L440.151,3.728
		L440.151,3.728z"/>
	<path d="M447.625,8.992c0.299,0.242,0.605,0.438,0.918,0.588c0.312,0.148,0.674,0.225,1.084,0.225c0.449,0,0.785-0.104,1.008-0.309
		c0.228-0.205,0.336-0.457,0.336-0.756c0-0.178-0.047-0.331-0.139-0.463c-0.094-0.131-0.213-0.244-0.357-0.343
		s-0.311-0.185-0.498-0.26c-0.186-0.074-0.37-0.148-0.559-0.224c-0.244-0.084-0.486-0.181-0.729-0.287s-0.459-0.238-0.65-0.393
		c-0.191-0.153-0.348-0.334-0.469-0.539c-0.123-0.206-0.185-0.452-0.185-0.741c0-0.271,0.056-0.525,0.162-0.764
		c0.105-0.237,0.26-0.442,0.461-0.616c0.201-0.173,0.445-0.308,0.734-0.405c0.289-0.099,0.617-0.146,0.979-0.146
		c0.433,0,0.824,0.074,1.187,0.225c0.356,0.148,0.67,0.332,0.932,0.546l-0.547,0.729c-0.234-0.178-0.477-0.322-0.729-0.435
		c-0.254-0.111-0.527-0.168-0.826-0.168c-0.431,0-0.744,0.099-0.945,0.294c-0.199,0.195-0.301,0.425-0.301,0.687
		c0,0.159,0.043,0.296,0.127,0.413c0.084,0.116,0.195,0.22,0.336,0.309s0.301,0.168,0.48,0.237c0.184,0.069,0.37,0.144,0.567,0.217
		c0.242,0.094,0.486,0.191,0.734,0.295c0.248,0.103,0.469,0.23,0.666,0.385c0.194,0.153,0.354,0.343,0.481,0.566
		c0.125,0.225,0.188,0.495,0.188,0.812c0,0.28-0.056,0.541-0.16,0.784c-0.107,0.242-0.266,0.458-0.479,0.645
		c-0.209,0.188-0.471,0.334-0.78,0.44c-0.312,0.106-0.67,0.161-1.072,0.161c-0.484,0-0.947-0.09-1.385-0.267
		c-0.439-0.178-0.822-0.4-1.148-0.673L447.625,8.992z"/>
	<path d="M453.17,7.144c0-0.561,0.086-1.062,0.258-1.505c0.174-0.443,0.402-0.819,0.688-1.127c0.286-0.309,0.606-0.544,0.973-0.707
		c0.365-0.163,0.742-0.245,1.135-0.245c0.431,0,0.814,0.074,1.154,0.225c0.342,0.148,0.625,0.363,0.855,0.645
		c0.229,0.279,0.399,0.615,0.522,1.008c0.121,0.393,0.185,0.831,0.185,1.315c0,0.252-0.017,0.462-0.043,0.63h-4.595
		c0.047,0.737,0.273,1.321,0.683,1.75c0.403,0.43,0.936,0.645,1.588,0.645c0.326,0,0.629-0.049,0.901-0.146
		c0.275-0.098,0.539-0.228,0.791-0.385L458.672,10c-0.299,0.188-0.631,0.351-0.994,0.49c-0.362,0.14-0.778,0.21-1.246,0.21
		c-0.457,0-0.885-0.082-1.278-0.245c-0.398-0.163-0.742-0.396-1.037-0.7c-0.293-0.303-0.525-0.674-0.693-1.112
		C453.254,8.203,453.17,7.704,453.17,7.144z M457.93,6.626c0-0.7-0.146-1.233-0.438-1.604c-0.295-0.369-0.707-0.554-1.24-0.554
		c-0.242,0-0.473,0.05-0.693,0.147c-0.219,0.098-0.416,0.237-0.594,0.42c-0.178,0.182-0.324,0.405-0.44,0.672
		c-0.115,0.267-0.193,0.572-0.23,0.917L457.93,6.626L457.93,6.626z"/>
	<path d="M460.127,7.144c0-0.551,0.082-1.047,0.244-1.491c0.164-0.442,0.381-0.818,0.652-1.127c0.27-0.309,0.582-0.546,0.938-0.714
		c0.356-0.168,0.73-0.252,1.119-0.252c0.393,0,0.738,0.067,1.037,0.203c0.299,0.135,0.602,0.338,0.91,0.608h0.026l0.111-0.645h0.924
		v9.674h-1.162V10.98l0.058-1.204c-0.271,0.252-0.58,0.47-0.933,0.65c-0.35,0.183-0.721,0.273-1.11,0.273
		c-0.859,0-1.543-0.309-2.054-0.925C460.381,9.16,460.127,8.283,460.127,7.144z M461.317,7.13c0,0.821,0.164,1.46,0.489,1.918
		c0.326,0.458,0.789,0.687,1.388,0.687c0.315,0,0.614-0.076,0.896-0.23c0.279-0.153,0.562-0.391,0.84-0.707V5.24
		c-0.289-0.262-0.565-0.446-0.834-0.554c-0.266-0.106-0.539-0.161-0.815-0.161c-0.271,0-0.525,0.062-0.767,0.188
		c-0.237,0.126-0.442,0.304-0.623,0.532c-0.178,0.229-0.315,0.502-0.42,0.818C461.37,6.383,461.317,6.738,461.317,7.13z"/>
	<path d="M468.219,3.728h1.162v4.157c0,0.645,0.103,1.108,0.301,1.394c0.201,0.285,0.525,0.428,0.976,0.428
		c0.354,0,0.668-0.091,0.938-0.272c0.271-0.183,0.57-0.475,0.896-0.875v-4.83h1.146v6.805h-0.951l-0.098-1.063h-0.043
		c-0.316,0.373-0.65,0.672-1,0.896s-0.764,0.336-1.24,0.336c-0.727,0-1.258-0.225-1.588-0.673c-0.332-0.447-0.498-1.11-0.498-1.987
		V3.728L468.219,3.728z"/>
	<path d="M475.43,7.144c0-0.561,0.086-1.062,0.261-1.505c0.172-0.443,0.399-0.819,0.686-1.127c0.287-0.309,0.609-0.544,0.973-0.707
		c0.365-0.163,0.742-0.245,1.138-0.245c0.428,0,0.812,0.074,1.151,0.225c0.343,0.148,0.627,0.363,0.855,0.645
		c0.227,0.279,0.401,0.615,0.522,1.008s0.185,0.831,0.185,1.315c0,0.252-0.017,0.462-0.043,0.63h-4.592
		c0.047,0.737,0.271,1.321,0.68,1.75c0.406,0.43,0.936,0.645,1.588,0.645c0.328,0,0.629-0.049,0.904-0.146
		c0.272-0.098,0.539-0.228,0.791-0.385L480.932,10c-0.299,0.188-0.631,0.351-0.991,0.49c-0.365,0.14-0.779,0.21-1.246,0.21
		c-0.459,0-0.888-0.082-1.281-0.245c-0.396-0.163-0.742-0.396-1.037-0.7c-0.293-0.304-0.523-0.674-0.691-1.112
		C475.514,8.203,475.43,7.704,475.43,7.144z M480.19,6.626c0-0.7-0.146-1.233-0.441-1.604c-0.293-0.369-0.707-0.554-1.238-0.554
		c-0.242,0-0.475,0.05-0.69,0.147c-0.222,0.098-0.418,0.237-0.599,0.42c-0.176,0.182-0.321,0.405-0.438,0.672
		s-0.193,0.572-0.23,0.917L480.19,6.626L480.19,6.626z"/>
	<path d="M482.877,3.728h0.951l0.1,0.979h0.041c0.326-0.326,0.67-0.601,1.029-0.818c0.359-0.219,0.777-0.329,1.254-0.329
		c0.717,0,1.242,0.225,1.574,0.672c0.33,0.448,0.496,1.11,0.496,1.988v4.312h-1.146V6.374c0-0.645-0.104-1.107-0.309-1.394
		s-0.531-0.427-0.98-0.427c-0.354,0-0.668,0.089-0.938,0.266c-0.271,0.178-0.578,0.438-0.924,0.784v4.929h-1.146V3.728H482.877z"/>
	<path d="M490.032,7.144c0-0.568,0.088-1.075,0.266-1.52c0.178-0.443,0.416-0.818,0.715-1.127c0.3-0.309,0.646-0.541,1.043-0.7
		c0.397-0.158,0.814-0.237,1.252-0.237c0.449,0,0.834,0.082,1.156,0.245s0.601,0.354,0.832,0.566l-0.574,0.742
		c-0.205-0.178-0.418-0.322-0.637-0.435c-0.219-0.113-0.465-0.169-0.734-0.169c-0.309,0-0.594,0.063-0.854,0.189
		c-0.262,0.126-0.486,0.306-0.674,0.539c-0.188,0.232-0.332,0.511-0.439,0.833c-0.106,0.321-0.162,0.679-0.162,1.07
		c0,0.393,0.054,0.747,0.154,1.063c0.104,0.316,0.246,0.591,0.428,0.818c0.183,0.229,0.402,0.406,0.664,0.532
		c0.263,0.126,0.547,0.188,0.855,0.188c0.326,0,0.623-0.066,0.889-0.203c0.267-0.135,0.502-0.296,0.707-0.482l0.521,0.756
		c-0.31,0.271-0.65,0.484-1.029,0.645c-0.379,0.158-0.771,0.238-1.185,0.238c-0.446,0-0.866-0.08-1.26-0.238
		c-0.393-0.159-0.729-0.391-1.016-0.692c-0.286-0.303-0.51-0.677-0.672-1.12C490.114,8.205,490.032,7.704,490.032,7.144z"/>
	<path d="M496.122,7.144c0-0.561,0.086-1.062,0.26-1.505c0.172-0.443,0.4-0.819,0.687-1.127c0.287-0.309,0.608-0.544,0.973-0.707
		c0.365-0.163,0.742-0.245,1.135-0.245c0.431,0,0.814,0.074,1.154,0.225c0.342,0.148,0.627,0.363,0.854,0.645
		c0.229,0.279,0.404,0.615,0.525,1.008s0.182,0.831,0.182,1.315c0,0.252-0.014,0.462-0.041,0.63h-4.592
		c0.045,0.737,0.271,1.321,0.678,1.75c0.408,0.43,0.938,0.645,1.591,0.645c0.325,0,0.629-0.049,0.901-0.146
		c0.275-0.098,0.539-0.228,0.791-0.385L501.624,10c-0.299,0.188-0.631,0.351-0.994,0.49s-0.779,0.21-1.246,0.21
		c-0.457,0-0.885-0.082-1.278-0.245c-0.396-0.163-0.742-0.396-1.037-0.7c-0.293-0.304-0.523-0.674-0.691-1.112
		C496.206,8.203,496.122,7.704,496.122,7.144z M500.881,6.626c0-0.7-0.146-1.233-0.438-1.604c-0.295-0.369-0.707-0.554-1.24-0.554
		c-0.242,0-0.476,0.05-0.691,0.147c-0.221,0.098-0.418,0.237-0.596,0.42c-0.178,0.182-0.324,0.405-0.441,0.672
		c-0.114,0.267-0.192,0.572-0.229,0.917L500.881,6.626L500.881,6.626z"/>
	<path d="M503.387,8.992c0.299,0.242,0.604,0.438,0.916,0.588c0.312,0.148,0.677,0.225,1.086,0.225c0.447,0,0.783-0.104,1.009-0.309
		c0.225-0.205,0.336-0.457,0.336-0.756c0-0.178-0.045-0.331-0.142-0.463c-0.094-0.131-0.211-0.244-0.354-0.343
		c-0.146-0.099-0.312-0.185-0.496-0.26c-0.189-0.074-0.375-0.148-0.562-0.224c-0.239-0.084-0.483-0.181-0.727-0.287
		c-0.244-0.106-0.461-0.238-0.652-0.393c-0.188-0.153-0.348-0.334-0.469-0.539c-0.121-0.206-0.182-0.452-0.182-0.741
		c0-0.271,0.053-0.525,0.159-0.764c0.107-0.237,0.263-0.442,0.464-0.616c0.198-0.173,0.444-0.308,0.733-0.405
		c0.289-0.099,0.615-0.146,0.98-0.146c0.428,0,0.822,0.074,1.182,0.225c0.359,0.148,0.67,0.332,0.932,0.546l-0.547,0.729
		c-0.231-0.178-0.475-0.322-0.727-0.435c-0.252-0.111-0.527-0.168-0.826-0.168c-0.43,0-0.744,0.099-0.945,0.294
		c-0.2,0.195-0.301,0.425-0.301,0.687c0,0.159,0.041,0.296,0.125,0.413c0.084,0.116,0.197,0.22,0.336,0.309
		c0.142,0.089,0.301,0.168,0.484,0.237c0.182,0.069,0.371,0.144,0.563,0.217c0.244,0.094,0.488,0.191,0.736,0.295
		c0.246,0.103,0.469,0.23,0.664,0.385c0.195,0.153,0.355,0.343,0.482,0.566c0.127,0.225,0.188,0.495,0.188,0.812
		c0,0.28-0.055,0.541-0.162,0.784c-0.106,0.242-0.266,0.458-0.475,0.645c-0.211,0.188-0.473,0.334-0.785,0.44
		c-0.312,0.106-0.67,0.161-1.07,0.161c-0.485,0-0.946-0.09-1.387-0.267c-0.439-0.178-0.82-0.4-1.147-0.673L503.387,8.992z"/>
</g>
<g>
	<line fill="none" stroke="#000000" stroke-width="2" stroke-miterlimit="10" x1="399.672" y1="25.543" x2="537.803" y2="25.543"/>
	<line fill="none" stroke="#000000" stroke-width="2" stroke-miterlimit="10" x1="399.672" y1="46.506" x2="537.803" y2="46.506"/>
	<line fill="none" stroke="#000000" stroke-width="2" stroke-miterlimit="10" x1="399.672" y1="66.929" x2="537.803" y2="66.929"/>
</g>
<g>
	<line fill="none" stroke="#A7A9AB" stroke-miterlimit="10" x1="208.845" y1="36.597" x2="159.428" y2="25.712"/>
	<line fill="none" stroke="#A7A9AB" stroke-miterlimit="10" x1="208.845" y1="56.441" x2="159.428" y2="67.097"/>
	<line fill="none" stroke="#A7A9AB" stroke-miterlimit="10" x1="208.845" y1="46.635" x2="159.428" y2="46.635"/>
	<path fill="none" stroke="#A7A9AB" stroke-miterlimit="10" d="M207.231,48.091"/>
	<polyline fill="none" stroke="#A7A9AB" stroke-miterlimit="10" points="207.179,44.577 209.189,46.588 207.267,48.51 	"/>
	<polyline fill="none" stroke="#A7A9AB" stroke-miterlimit="10" points="207.995,34.43 209.373,36.917 206.996,38.235 	"/>
	<polyline fill="none" stroke="#A7A9AB" stroke-miterlimit="10" points="206.941,54.825 209.427,56.204 208.109,58.581 	"/>
</g>
<g>
	<line fill="none" stroke="#A7A9AB" stroke-miterlimit="10" x1="379.523" y1="46.485" x2="330.107" y2="46.485"/>
	<line fill="none" stroke="#A7A9AB" stroke-miterlimit="10" x1="330.107" y1="36.447" x2="379.523" y2="25.562"/>
	<line fill="none" stroke="#A7A9AB" stroke-miterlimit="10" x1="330.107" y1="56.291" x2="379.523" y2="66.947"/>
</g>
<polyline fill="none" stroke="#A7A9AB" stroke-miterlimit="10" points="377.954,44.519 379.964,46.53 378.042,48.452 "/>
<polyline fill="none" stroke="#A7A9AB" stroke-miterlimit="10" points="377.015,24.098 379.501,25.476 378.184,27.854 "/>
<polyline fill="none" stroke="#A7A9AB" stroke-miterlimit="10" points="378.77,64.768 380.148,67.255 377.77,68.572 "/>
</svg>
